<svg width="210" height="297" viewBox="0 0 210 297" fill="none" xmlns="http://www.w3.org/2000/svg">
<path d="M69.9395 47.1973H68.5684V51H68.0088V47.1973H66.6406V46.7344H69.9395V47.1973ZM71.5098 51.0586C71.0801 51.0586 70.7305 50.918 70.4609 50.6367C70.1914 50.3535 70.0566 49.9756 70.0566 49.5029V49.4033C70.0566 49.0889 70.1162 48.8086 70.2354 48.5625C70.3564 48.3145 70.5244 48.1211 70.7393 47.9824C70.9561 47.8418 71.1904 47.7715 71.4424 47.7715C71.8545 47.7715 72.1748 47.9072 72.4033 48.1787C72.6318 48.4502 72.7461 48.8389 72.7461 49.3447V49.5703H70.5986C70.6064 49.8828 70.6973 50.1357 70.8711 50.3291C71.0469 50.5205 71.2695 50.6162 71.5391 50.6162C71.7305 50.6162 71.8926 50.5771 72.0254 50.499C72.1582 50.4209 72.2744 50.3174 72.374 50.1885L72.7051 50.4463C72.4395 50.8545 72.041 51.0586 71.5098 51.0586ZM71.4424 48.2168C71.2236 48.2168 71.04 48.2969 70.8916 48.457C70.7432 48.6152 70.6514 48.8379 70.6162 49.125H72.2041V49.084C72.1885 48.8086 72.1143 48.5957 71.9814 48.4453C71.8486 48.293 71.6689 48.2168 71.4424 48.2168ZM74.9082 48.3164C74.8262 48.3027 74.7373 48.2959 74.6416 48.2959C74.2861 48.2959 74.0449 48.4473 73.918 48.75V51H73.376V47.8301H73.9033L73.9121 48.1963C74.0898 47.9131 74.3418 47.7715 74.668 47.7715C74.7734 47.7715 74.8535 47.7852 74.9082 47.8125V48.3164ZM77.249 51C77.2178 50.9375 77.1924 50.8262 77.1729 50.666C76.9209 50.9277 76.6201 51.0586 76.2705 51.0586C75.958 51.0586 75.7012 50.9707 75.5 50.7949C75.3008 50.6172 75.2012 50.3926 75.2012 50.1211C75.2012 49.791 75.3262 49.5352 75.5762 49.3535C75.8281 49.1699 76.1816 49.0781 76.6367 49.0781H77.1641V48.8291C77.1641 48.6396 77.1074 48.4893 76.9941 48.3779C76.8809 48.2646 76.7139 48.208 76.4932 48.208C76.2998 48.208 76.1377 48.2568 76.0068 48.3545C75.876 48.4521 75.8105 48.5703 75.8105 48.709H75.2656C75.2656 48.5508 75.3213 48.3984 75.4326 48.252C75.5459 48.1035 75.6982 47.9863 75.8896 47.9004C76.083 47.8145 76.2949 47.7715 76.5254 47.7715C76.8906 47.7715 77.1768 47.8633 77.3838 48.0469C77.5908 48.2285 77.6982 48.4795 77.7061 48.7998V50.2588C77.7061 50.5498 77.7432 50.7812 77.8174 50.9531V51H77.249ZM76.3496 50.5869C76.5195 50.5869 76.6807 50.543 76.833 50.4551C76.9854 50.3672 77.0957 50.2529 77.1641 50.1123V49.4619H76.7393C76.0752 49.4619 75.7432 49.6562 75.7432 50.0449C75.7432 50.2148 75.7998 50.3477 75.9131 50.4434C76.0264 50.5391 76.1719 50.5869 76.3496 50.5869ZM80.4014 50.1592C80.4014 50.0127 80.3457 49.8994 80.2344 49.8193C80.125 49.7373 79.9326 49.667 79.6572 49.6084C79.3838 49.5498 79.166 49.4795 79.0039 49.3975C78.8438 49.3154 78.7246 49.2178 78.6465 49.1045C78.5703 48.9912 78.5322 48.8564 78.5322 48.7002C78.5322 48.4404 78.6416 48.2207 78.8604 48.041C79.0811 47.8613 79.3623 47.7715 79.7041 47.7715C80.0635 47.7715 80.3545 47.8643 80.5771 48.0498C80.8018 48.2354 80.9141 48.4727 80.9141 48.7617H80.3691C80.3691 48.6133 80.3057 48.4854 80.1787 48.3779C80.0537 48.2705 79.8955 48.2168 79.7041 48.2168C79.5068 48.2168 79.3525 48.2598 79.2412 48.3457C79.1299 48.4316 79.0742 48.5439 79.0742 48.6826C79.0742 48.8135 79.126 48.9121 79.2295 48.9785C79.333 49.0449 79.5195 49.1084 79.7891 49.1689C80.0605 49.2295 80.2803 49.3018 80.4482 49.3857C80.6162 49.4697 80.7402 49.5713 80.8203 49.6904C80.9023 49.8076 80.9434 49.9512 80.9434 50.1211C80.9434 50.4043 80.8301 50.6318 80.6035 50.8037C80.377 50.9736 80.083 51.0586 79.7217 51.0586C79.4678 51.0586 79.2432 51.0137 79.0479 50.9238C78.8525 50.834 78.6992 50.709 78.5879 50.5488C78.4785 50.3867 78.4238 50.2119 78.4238 50.0244H78.9658C78.9756 50.2061 79.0479 50.3506 79.1826 50.458C79.3193 50.5635 79.499 50.6162 79.7217 50.6162C79.9268 50.6162 80.0908 50.5752 80.2139 50.4932C80.3389 50.4092 80.4014 50.2979 80.4014 50.1592ZM83.6064 51C83.5752 50.9375 83.5498 50.8262 83.5303 50.666C83.2783 50.9277 82.9775 51.0586 82.6279 51.0586C82.3154 51.0586 82.0586 50.9707 81.8574 50.7949C81.6582 50.6172 81.5586 50.3926 81.5586 50.1211C81.5586 49.791 81.6836 49.5352 81.9336 49.3535C82.1855 49.1699 82.5391 49.0781 82.9941 49.0781H83.5215V48.8291C83.5215 48.6396 83.4648 48.4893 83.3516 48.3779C83.2383 48.2646 83.0713 48.208 82.8506 48.208C82.6572 48.208 82.4951 48.2568 82.3643 48.3545C82.2334 48.4521 82.168 48.5703 82.168 48.709H81.623C81.623 48.5508 81.6787 48.3984 81.79 48.252C81.9033 48.1035 82.0557 47.9863 82.2471 47.9004C82.4404 47.8145 82.6523 47.7715 82.8828 47.7715C83.248 47.7715 83.5342 47.8633 83.7412 48.0469C83.9482 48.2285 84.0557 48.4795 84.0635 48.7998V50.2588C84.0635 50.5498 84.1006 50.7812 84.1748 50.9531V51H83.6064ZM82.707 50.5869C82.877 50.5869 83.0381 50.543 83.1904 50.4551C83.3428 50.3672 83.4531 50.2529 83.5215 50.1123V49.4619H83.0967C82.4326 49.4619 82.1006 49.6562 82.1006 50.0449C82.1006 50.2148 82.1572 50.3477 82.2705 50.4434C82.3838 50.5391 82.5293 50.5869 82.707 50.5869Z" fill="black"/>
<path d="M68.8955 250.099C68.4131 249.96 68.0615 249.79 67.8408 249.589C67.6221 249.386 67.5127 249.136 67.5127 248.839C67.5127 248.503 67.6465 248.226 67.9141 248.007C68.1836 247.786 68.5332 247.676 68.9629 247.676C69.2559 247.676 69.5166 247.732 69.7451 247.846C69.9756 247.959 70.1533 248.115 70.2783 248.314C70.4053 248.514 70.4688 248.731 70.4688 248.968H69.9033C69.9033 248.71 69.8213 248.508 69.6572 248.361C69.4932 248.213 69.2617 248.139 68.9629 248.139C68.6855 248.139 68.4688 248.2 68.3125 248.323C68.1582 248.444 68.0811 248.613 68.0811 248.83C68.0811 249.004 68.1543 249.151 68.3008 249.272C68.4492 249.392 68.7002 249.501 69.0537 249.601C69.4092 249.7 69.6865 249.811 69.8857 249.932C70.0869 250.051 70.2354 250.19 70.3311 250.351C70.4287 250.511 70.4775 250.699 70.4775 250.916C70.4775 251.262 70.3428 251.539 70.0732 251.748C69.8037 251.955 69.4434 252.059 68.9922 252.059C68.6992 252.059 68.4258 252.003 68.1719 251.892C67.918 251.778 67.7217 251.624 67.583 251.429C67.4463 251.233 67.3779 251.012 67.3779 250.764H67.9434C67.9434 251.021 68.0381 251.226 68.2275 251.376C68.4189 251.524 68.6738 251.599 68.9922 251.599C69.2891 251.599 69.5166 251.538 69.6748 251.417C69.833 251.296 69.9121 251.131 69.9121 250.922C69.9121 250.713 69.8389 250.552 69.6924 250.438C69.5459 250.323 69.2803 250.21 68.8955 250.099ZM72.001 250.532L71.6611 250.887V252H71.1191V247.5H71.6611V250.222L71.9512 249.873L72.9385 248.83H73.5977L72.3643 250.154L73.7412 252H73.1055L72.001 250.532ZM74.7461 252H74.2041V247.5H74.7461V252ZM77.5732 252C77.542 251.938 77.5166 251.826 77.4971 251.666C77.2451 251.928 76.9443 252.059 76.5947 252.059C76.2822 252.059 76.0254 251.971 75.8242 251.795C75.625 251.617 75.5254 251.393 75.5254 251.121C75.5254 250.791 75.6504 250.535 75.9004 250.354C76.1523 250.17 76.5059 250.078 76.9609 250.078H77.4883V249.829C77.4883 249.64 77.4316 249.489 77.3184 249.378C77.2051 249.265 77.0381 249.208 76.8174 249.208C76.624 249.208 76.4619 249.257 76.3311 249.354C76.2002 249.452 76.1348 249.57 76.1348 249.709H75.5898C75.5898 249.551 75.6455 249.398 75.7568 249.252C75.8701 249.104 76.0225 248.986 76.2139 248.9C76.4072 248.814 76.6191 248.771 76.8496 248.771C77.2148 248.771 77.501 248.863 77.708 249.047C77.915 249.229 78.0225 249.479 78.0303 249.8V251.259C78.0303 251.55 78.0674 251.781 78.1416 251.953V252H77.5732ZM76.6738 251.587C76.8438 251.587 77.0049 251.543 77.1572 251.455C77.3096 251.367 77.4199 251.253 77.4883 251.112V250.462H77.0635C76.3994 250.462 76.0674 250.656 76.0674 251.045C76.0674 251.215 76.124 251.348 76.2373 251.443C76.3506 251.539 76.4961 251.587 76.6738 251.587ZM78.748 250.389C78.748 249.902 78.8633 249.512 79.0938 249.217C79.3242 248.92 79.626 248.771 79.999 248.771C80.3701 248.771 80.6641 248.898 80.8809 249.152V247.5H81.4229V252H80.9248L80.8984 251.66C80.6816 251.926 80.3799 252.059 79.9932 252.059C79.626 252.059 79.3262 251.908 79.0938 251.607C78.8633 251.307 78.748 250.914 78.748 250.43V250.389ZM79.29 250.45C79.29 250.81 79.3643 251.091 79.5127 251.294C79.6611 251.497 79.8662 251.599 80.1279 251.599C80.4717 251.599 80.7227 251.444 80.8809 251.136V249.68C80.7188 249.381 80.4697 249.231 80.1338 249.231C79.8682 249.231 79.6611 249.334 79.5127 249.539C79.3643 249.744 79.29 250.048 79.29 250.45Z" fill="black"/>
<path d="M124.896 251.099C124.413 250.96 124.062 250.79 123.841 250.589C123.622 250.386 123.513 250.136 123.513 249.839C123.513 249.503 123.646 249.226 123.914 249.007C124.184 248.786 124.533 248.676 124.963 248.676C125.256 248.676 125.517 248.732 125.745 248.846C125.976 248.959 126.153 249.115 126.278 249.314C126.405 249.514 126.469 249.731 126.469 249.968H125.903C125.903 249.71 125.821 249.508 125.657 249.361C125.493 249.213 125.262 249.139 124.963 249.139C124.686 249.139 124.469 249.2 124.312 249.323C124.158 249.444 124.081 249.613 124.081 249.83C124.081 250.004 124.154 250.151 124.301 250.272C124.449 250.392 124.7 250.501 125.054 250.601C125.409 250.7 125.687 250.811 125.886 250.932C126.087 251.051 126.235 251.19 126.331 251.351C126.429 251.511 126.478 251.699 126.478 251.916C126.478 252.262 126.343 252.539 126.073 252.748C125.804 252.955 125.443 253.059 124.992 253.059C124.699 253.059 124.426 253.003 124.172 252.892C123.918 252.778 123.722 252.624 123.583 252.429C123.446 252.233 123.378 252.012 123.378 251.764H123.943C123.943 252.021 124.038 252.226 124.228 252.376C124.419 252.524 124.674 252.599 124.992 252.599C125.289 252.599 125.517 252.538 125.675 252.417C125.833 252.296 125.912 252.131 125.912 251.922C125.912 251.713 125.839 251.552 125.692 251.438C125.546 251.323 125.28 251.21 124.896 251.099ZM128.001 251.532L127.661 251.887V253H127.119V248.5H127.661V251.222L127.951 250.873L128.938 249.83H129.598L128.364 251.154L129.741 253H129.105L128.001 251.532ZM130.746 253H130.204V248.5H130.746V253ZM133.573 253C133.542 252.938 133.517 252.826 133.497 252.666C133.245 252.928 132.944 253.059 132.595 253.059C132.282 253.059 132.025 252.971 131.824 252.795C131.625 252.617 131.525 252.393 131.525 252.121C131.525 251.791 131.65 251.535 131.9 251.354C132.152 251.17 132.506 251.078 132.961 251.078H133.488V250.829C133.488 250.64 133.432 250.489 133.318 250.378C133.205 250.265 133.038 250.208 132.817 250.208C132.624 250.208 132.462 250.257 132.331 250.354C132.2 250.452 132.135 250.57 132.135 250.709H131.59C131.59 250.551 131.646 250.398 131.757 250.252C131.87 250.104 132.022 249.986 132.214 249.9C132.407 249.814 132.619 249.771 132.85 249.771C133.215 249.771 133.501 249.863 133.708 250.047C133.915 250.229 134.022 250.479 134.03 250.8V252.259C134.03 252.55 134.067 252.781 134.142 252.953V253H133.573ZM132.674 252.587C132.844 252.587 133.005 252.543 133.157 252.455C133.31 252.367 133.42 252.253 133.488 252.112V251.462H133.063C132.399 251.462 132.067 251.656 132.067 252.045C132.067 252.215 132.124 252.348 132.237 252.443C132.351 252.539 132.496 252.587 132.674 252.587ZM134.748 251.389C134.748 250.902 134.863 250.512 135.094 250.217C135.324 249.92 135.626 249.771 135.999 249.771C136.37 249.771 136.664 249.898 136.881 250.152V248.5H137.423V253H136.925L136.898 252.66C136.682 252.926 136.38 253.059 135.993 253.059C135.626 253.059 135.326 252.908 135.094 252.607C134.863 252.307 134.748 251.914 134.748 251.43V251.389ZM135.29 251.45C135.29 251.81 135.364 252.091 135.513 252.294C135.661 252.497 135.866 252.599 136.128 252.599C136.472 252.599 136.723 252.444 136.881 252.136V250.68C136.719 250.381 136.47 250.231 136.134 250.231C135.868 250.231 135.661 250.334 135.513 250.539C135.364 250.744 135.29 251.048 135.29 251.45Z" fill="black"/>
<path d="M148.798 127.655L148.88 128.218L149 127.711L149.844 124.734H150.318L151.142 127.711L151.259 128.227L151.35 127.652L152.012 124.734H152.577L151.543 129H151.03L150.151 125.892L150.084 125.566L150.017 125.892L149.105 129H148.593L147.562 124.734H148.124L148.798 127.655ZM156.342 127.646C156.289 128.098 156.122 128.446 155.841 128.692C155.562 128.937 155.189 129.059 154.725 129.059C154.221 129.059 153.816 128.878 153.512 128.517C153.209 128.155 153.058 127.672 153.058 127.066V126.656C153.058 126.26 153.128 125.911 153.269 125.61C153.411 125.31 153.612 125.079 153.872 124.919C154.132 124.757 154.433 124.676 154.774 124.676C155.228 124.676 155.591 124.803 155.864 125.057C156.138 125.309 156.297 125.658 156.342 126.105H155.776C155.728 125.766 155.621 125.52 155.457 125.367C155.295 125.215 155.067 125.139 154.774 125.139C154.415 125.139 154.133 125.271 153.928 125.537C153.725 125.803 153.623 126.181 153.623 126.671V127.084C153.623 127.547 153.72 127.915 153.913 128.188C154.106 128.462 154.377 128.599 154.725 128.599C155.037 128.599 155.276 128.528 155.442 128.388C155.61 128.245 155.722 127.998 155.776 127.646H156.342Z" fill="black"/>
<path d="M57.7979 188.655L57.8799 189.218L58 188.711L58.8438 185.734H59.3184L60.1416 188.711L60.2588 189.227L60.3496 188.652L61.0117 185.734H61.5771L60.543 190H60.0303L59.1514 186.892L59.084 186.566L59.0166 186.892L58.1055 190H57.5928L56.5615 185.734H57.124L57.7979 188.655ZM65.3418 188.646C65.2891 189.098 65.1221 189.446 64.8408 189.692C64.5615 189.937 64.1895 190.059 63.7246 190.059C63.2207 190.059 62.8164 189.878 62.5117 189.517C62.209 189.155 62.0576 188.672 62.0576 188.066V187.656C62.0576 187.26 62.1279 186.911 62.2686 186.61C62.4111 186.31 62.6123 186.079 62.8721 185.919C63.1318 185.757 63.4326 185.676 63.7744 185.676C64.2275 185.676 64.5908 185.803 64.8643 186.057C65.1377 186.309 65.2969 186.658 65.3418 187.105H64.7764C64.7275 186.766 64.6211 186.52 64.457 186.367C64.2949 186.215 64.0674 186.139 63.7744 186.139C63.415 186.139 63.1328 186.271 62.9277 186.537C62.7246 186.803 62.623 187.181 62.623 187.671V188.084C62.623 188.547 62.7197 188.915 62.9131 189.188C63.1064 189.462 63.377 189.599 63.7246 189.599C64.0371 189.599 64.2764 189.528 64.4424 189.388C64.6104 189.245 64.7217 188.998 64.7764 188.646H65.3418Z" fill="black"/>
<path d="M68.3965 96.54H70.418V97H67.8311V92.7344H68.3965V96.54ZM74.3379 97H73.7725V95.0283H71.6221V97H71.0596V92.7344H71.6221V94.5684H73.7725V92.7344H74.3379V97ZM78.6182 95.0049C78.6182 95.4229 78.5479 95.7881 78.4072 96.1006C78.2666 96.4111 78.0674 96.6484 77.8096 96.8125C77.5518 96.9766 77.251 97.0586 76.9072 97.0586C76.5713 97.0586 76.2734 96.9766 76.0137 96.8125C75.7539 96.6465 75.5518 96.4111 75.4072 96.1064C75.2646 95.7998 75.1914 95.4453 75.1875 95.043V94.7354C75.1875 94.3252 75.2588 93.9629 75.4014 93.6484C75.5439 93.334 75.7451 93.0938 76.0049 92.9277C76.2666 92.7598 76.5654 92.6758 76.9014 92.6758C77.2432 92.6758 77.5439 92.7588 77.8037 92.9248C78.0654 93.0889 78.2666 93.3281 78.4072 93.6426C78.5479 93.9551 78.6182 94.3193 78.6182 94.7354V95.0049ZM78.0586 94.7295C78.0586 94.2236 77.957 93.8359 77.7539 93.5664C77.5508 93.2949 77.2666 93.1592 76.9014 93.1592C76.5459 93.1592 76.2656 93.2949 76.0605 93.5664C75.8574 93.8359 75.7529 94.2109 75.7471 94.6914V95.0049C75.7471 95.4951 75.8496 95.8809 76.0547 96.1621C76.2617 96.4414 76.5459 96.5811 76.9072 96.5811C77.2705 96.5811 77.5518 96.4492 77.751 96.1855C77.9502 95.9199 78.0527 95.54 78.0586 95.0459V94.7295ZM81.0264 95.2744H80.0244V97H79.459V92.7344H80.8711C81.3516 92.7344 81.7207 92.8438 81.9785 93.0625C82.2383 93.2812 82.3682 93.5996 82.3682 94.0176C82.3682 94.2832 82.2959 94.5146 82.1514 94.7119C82.0088 94.9092 81.8096 95.0566 81.5537 95.1543L82.5557 96.9648V97H81.9521L81.0264 95.2744ZM80.0244 94.8145H80.8887C81.168 94.8145 81.3896 94.7422 81.5537 94.5977C81.7197 94.4531 81.8027 94.2598 81.8027 94.0176C81.8027 93.7539 81.7236 93.5518 81.5654 93.4111C81.4092 93.2705 81.1826 93.1992 80.8857 93.1973H80.0244V94.8145ZM70.4707 99.7314V100.191H70.3711C69.9492 100.199 69.6133 100.324 69.3633 100.566C69.1133 100.809 68.9688 101.149 68.9297 101.589C69.1543 101.331 69.4609 101.202 69.8496 101.202C70.2207 101.202 70.5166 101.333 70.7373 101.595C70.96 101.856 71.0713 102.194 71.0713 102.608C71.0713 103.048 70.9512 103.399 70.7109 103.663C70.4727 103.927 70.1523 104.059 69.75 104.059C69.3418 104.059 69.0107 103.902 68.7568 103.59C68.5029 103.275 68.376 102.871 68.376 102.377V102.169C68.376 101.384 68.543 100.784 68.877 100.37C69.2129 99.9541 69.7119 99.7412 70.374 99.7314H70.4707ZM69.7588 101.653C69.5732 101.653 69.4023 101.709 69.2461 101.82C69.0898 101.932 68.9814 102.071 68.9209 102.239V102.438C68.9209 102.79 69 103.073 69.1582 103.288C69.3164 103.503 69.5137 103.61 69.75 103.61C69.9941 103.61 70.1855 103.521 70.3242 103.341C70.4648 103.161 70.5352 102.926 70.5352 102.635C70.5352 102.342 70.4639 102.105 70.3213 101.926C70.1807 101.744 69.9932 101.653 69.7588 101.653ZM74.209 102.887H72.4219L72.0205 104H71.4404L73.0693 99.7344H73.5615L75.1934 104H74.6162L74.209 102.887ZM72.5918 102.424H74.042L73.3154 100.429L72.5918 102.424ZM78.3018 102.181C78.3018 102.815 78.1934 103.287 77.9766 103.596C77.7598 103.904 77.4209 104.059 76.96 104.059C76.5049 104.059 76.168 103.908 75.9492 103.607C75.7305 103.305 75.6172 102.854 75.6094 102.254V101.53C75.6094 100.903 75.7178 100.438 75.9346 100.133C76.1514 99.8281 76.4912 99.6758 76.9541 99.6758C77.4131 99.6758 77.751 99.8232 77.9678 100.118C78.1846 100.411 78.2959 100.864 78.3018 101.478V102.181ZM77.7598 101.439C77.7598 100.98 77.6953 100.646 77.5664 100.438C77.4375 100.227 77.2334 100.121 76.9541 100.121C76.6768 100.121 76.4746 100.226 76.3477 100.435C76.2207 100.644 76.1553 100.965 76.1514 101.398V102.266C76.1514 102.727 76.2178 103.067 76.3506 103.288C76.4854 103.507 76.6885 103.616 76.96 103.616C77.2275 103.616 77.4258 103.513 77.5547 103.306C77.6855 103.099 77.7539 102.772 77.7598 102.327V101.439ZM80.7773 104H80.2324V100.388L79.1396 100.789V100.297L80.6924 99.7139H80.7773V104Z" fill="black"/>
<path d="M149.066 70.54H151.088V71H148.501V66.7344H149.066V70.54ZM152.292 69.3301V71H151.729V66.7344H153.303C153.77 66.7344 154.135 66.8535 154.398 67.0918C154.664 67.3301 154.797 67.6455 154.797 68.0381C154.797 68.4521 154.667 68.7715 154.407 68.9961C154.149 69.2188 153.779 69.3301 153.297 69.3301H152.292ZM152.292 68.8701H153.303C153.604 68.8701 153.834 68.7998 153.994 68.6592C154.154 68.5166 154.234 68.3115 154.234 68.0439C154.234 67.79 154.154 67.5869 153.994 67.4346C153.834 67.2822 153.614 67.2031 153.335 67.1973H152.292V68.8701ZM158.796 69.0049C158.796 69.4229 158.726 69.7881 158.585 70.1006C158.444 70.4111 158.245 70.6484 157.987 70.8125C157.729 70.9766 157.429 71.0586 157.085 71.0586C156.749 71.0586 156.451 70.9766 156.191 70.8125C155.932 70.6465 155.729 70.4111 155.585 70.1064C155.442 69.7998 155.369 69.4453 155.365 69.043V68.7354C155.365 68.3252 155.437 67.9629 155.579 67.6484C155.722 67.334 155.923 67.0938 156.183 66.9277C156.444 66.7598 156.743 66.6758 157.079 66.6758C157.421 66.6758 157.722 66.7588 157.981 66.9248C158.243 67.0889 158.444 67.3281 158.585 67.6426C158.726 67.9551 158.796 68.3193 158.796 68.7354V69.0049ZM158.236 68.7295C158.236 68.2236 158.135 67.8359 157.932 67.5664C157.729 67.2949 157.444 67.1592 157.079 67.1592C156.724 67.1592 156.443 67.2949 156.238 67.5664C156.035 67.8359 155.931 68.2109 155.925 68.6914V69.0049C155.925 69.4951 156.027 69.8809 156.232 70.1621C156.439 70.4414 156.724 70.5811 157.085 70.5811C157.448 70.5811 157.729 70.4492 157.929 70.1855C158.128 69.9199 158.23 69.54 158.236 69.0459V68.7295ZM161.931 69.8867H160.144L159.742 71H159.162L160.791 66.7344H161.283L162.915 71H162.338L161.931 69.8867ZM160.313 69.4238H161.764L161.037 67.4287L160.313 69.4238ZM150.971 73.7314V74.1914H150.871C150.449 74.1992 150.113 74.3242 149.863 74.5664C149.613 74.8086 149.469 75.1494 149.43 75.5889C149.654 75.3311 149.961 75.2021 150.35 75.2021C150.721 75.2021 151.017 75.333 151.237 75.5947C151.46 75.8564 151.571 76.1943 151.571 76.6084C151.571 77.0479 151.451 77.3994 151.211 77.6631C150.973 77.9268 150.652 78.0586 150.25 78.0586C149.842 78.0586 149.511 77.9023 149.257 77.5898C149.003 77.2754 148.876 76.8711 148.876 76.377V76.1689C148.876 75.3838 149.043 74.7842 149.377 74.3701C149.713 73.9541 150.212 73.7412 150.874 73.7314H150.971ZM150.259 75.6533C150.073 75.6533 149.902 75.709 149.746 75.8203C149.59 75.9316 149.481 76.0713 149.421 76.2393V76.4385C149.421 76.79 149.5 77.0732 149.658 77.2881C149.816 77.5029 150.014 77.6104 150.25 77.6104C150.494 77.6104 150.686 77.5205 150.824 77.3408C150.965 77.1611 151.035 76.9258 151.035 76.6348C151.035 76.3418 150.964 76.1055 150.821 75.9258C150.681 75.7441 150.493 75.6533 150.259 75.6533ZM154.709 76.8867H152.922L152.521 78H151.94L153.569 73.7344H154.062L155.693 78H155.116L154.709 76.8867ZM153.092 76.4238H154.542L153.815 74.4287L153.092 76.4238ZM158.802 76.1807C158.802 76.8154 158.693 77.2871 158.477 77.5957C158.26 77.9043 157.921 78.0586 157.46 78.0586C157.005 78.0586 156.668 77.9082 156.449 77.6074C156.23 77.3047 156.117 76.8535 156.109 76.2539V75.5303C156.109 74.9033 156.218 74.4375 156.435 74.1328C156.651 73.8281 156.991 73.6758 157.454 73.6758C157.913 73.6758 158.251 73.8232 158.468 74.1182C158.685 74.4111 158.796 74.8643 158.802 75.4775V76.1807ZM158.26 75.4395C158.26 74.9805 158.195 74.6465 158.066 74.4375C157.938 74.2266 157.733 74.1211 157.454 74.1211C157.177 74.1211 156.975 74.2256 156.848 74.4346C156.721 74.6436 156.655 74.9648 156.651 75.3984V76.2656C156.651 76.7266 156.718 77.0674 156.851 77.2881C156.985 77.5068 157.188 77.6162 157.46 77.6162C157.728 77.6162 157.926 77.5127 158.055 77.3057C158.186 77.0986 158.254 76.7725 158.26 76.3271V75.4395ZM159.745 75.8613L159.962 73.7344H162.147V74.2354H160.422L160.293 75.3984C160.502 75.2754 160.739 75.2139 161.005 75.2139C161.394 75.2139 161.702 75.3428 161.931 75.6006C162.159 75.8564 162.273 76.2031 162.273 76.6406C162.273 77.0801 162.154 77.4268 161.916 77.6807C161.68 77.9326 161.349 78.0586 160.923 78.0586C160.546 78.0586 160.238 77.9541 160 77.7451C159.762 77.5361 159.626 77.2471 159.593 76.8779H160.105C160.139 77.1221 160.226 77.3066 160.366 77.4316C160.507 77.5547 160.692 77.6162 160.923 77.6162C161.175 77.6162 161.372 77.5303 161.515 77.3584C161.659 77.1865 161.731 76.9492 161.731 76.6465C161.731 76.3613 161.653 76.1328 161.497 75.9609C161.343 75.7871 161.137 75.7002 160.879 75.7002C160.643 75.7002 160.457 75.752 160.322 75.8555L160.179 75.9727L159.745 75.8613Z" fill="black"/>
</svg>
