<svg width="210" height="297" viewBox="0 0 210 297" fill="none" xmlns="http://www.w3.org/2000/svg">
<path d="M72.9395 82.1973H71.5684V86H71.0088V82.1973H69.6406V81.7344H72.9395V82.1973ZM74.5098 86.0586C74.0801 86.0586 73.7305 85.918 73.4609 85.6367C73.1914 85.3535 73.0566 84.9756 73.0566 84.5029V84.4033C73.0566 84.0889 73.1162 83.8086 73.2354 83.5625C73.3564 83.3145 73.5244 83.1211 73.7393 82.9824C73.9561 82.8418 74.1904 82.7715 74.4424 82.7715C74.8545 82.7715 75.1748 82.9072 75.4033 83.1787C75.6318 83.4502 75.7461 83.8389 75.7461 84.3447V84.5703H73.5986C73.6064 84.8828 73.6973 85.1357 73.8711 85.3291C74.0469 85.5205 74.2695 85.6162 74.5391 85.6162C74.7305 85.6162 74.8926 85.5771 75.0254 85.499C75.1582 85.4209 75.2744 85.3174 75.374 85.1885L75.7051 85.4463C75.4395 85.8545 75.041 86.0586 74.5098 86.0586ZM74.4424 83.2168C74.2236 83.2168 74.04 83.2969 73.8916 83.457C73.7432 83.6152 73.6514 83.8379 73.6162 84.125H75.2041V84.084C75.1885 83.8086 75.1143 83.5957 74.9814 83.4453C74.8486 83.293 74.6689 83.2168 74.4424 83.2168ZM77.9082 83.3164C77.8262 83.3027 77.7373 83.2959 77.6416 83.2959C77.2861 83.2959 77.0449 83.4473 76.918 83.75V86H76.376V82.8301H76.9033L76.9121 83.1963C77.0898 82.9131 77.3418 82.7715 77.668 82.7715C77.7734 82.7715 77.8535 82.7852 77.9082 82.8125V83.3164ZM80.249 86C80.2178 85.9375 80.1924 85.8262 80.1729 85.666C79.9209 85.9277 79.6201 86.0586 79.2705 86.0586C78.958 86.0586 78.7012 85.9707 78.5 85.7949C78.3008 85.6172 78.2012 85.3926 78.2012 85.1211C78.2012 84.791 78.3262 84.5352 78.5762 84.3535C78.8281 84.1699 79.1816 84.0781 79.6367 84.0781H80.1641V83.8291C80.1641 83.6396 80.1074 83.4893 79.9941 83.3779C79.8809 83.2646 79.7139 83.208 79.4932 83.208C79.2998 83.208 79.1377 83.2568 79.0068 83.3545C78.876 83.4521 78.8105 83.5703 78.8105 83.709H78.2656C78.2656 83.5508 78.3213 83.3984 78.4326 83.252C78.5459 83.1035 78.6982 82.9863 78.8896 82.9004C79.083 82.8145 79.2949 82.7715 79.5254 82.7715C79.8906 82.7715 80.1768 82.8633 80.3838 83.0469C80.5908 83.2285 80.6982 83.4795 80.7061 83.7998V85.2588C80.7061 85.5498 80.7432 85.7812 80.8174 85.9531V86H80.249ZM79.3496 85.5869C79.5195 85.5869 79.6807 85.543 79.833 85.4551C79.9854 85.3672 80.0957 85.2529 80.1641 85.1123V84.4619H79.7393C79.0752 84.4619 78.7432 84.6562 78.7432 85.0449C78.7432 85.2148 78.7998 85.3477 78.9131 85.4434C79.0264 85.5391 79.1719 85.5869 79.3496 85.5869ZM83.4014 85.1592C83.4014 85.0127 83.3457 84.8994 83.2344 84.8193C83.125 84.7373 82.9326 84.667 82.6572 84.6084C82.3838 84.5498 82.166 84.4795 82.0039 84.3975C81.8438 84.3154 81.7246 84.2178 81.6465 84.1045C81.5703 83.9912 81.5322 83.8564 81.5322 83.7002C81.5322 83.4404 81.6416 83.2207 81.8604 83.041C82.0811 82.8613 82.3623 82.7715 82.7041 82.7715C83.0635 82.7715 83.3545 82.8643 83.5771 83.0498C83.8018 83.2354 83.9141 83.4727 83.9141 83.7617H83.3691C83.3691 83.6133 83.3057 83.4854 83.1787 83.3779C83.0537 83.2705 82.8955 83.2168 82.7041 83.2168C82.5068 83.2168 82.3525 83.2598 82.2412 83.3457C82.1299 83.4316 82.0742 83.5439 82.0742 83.6826C82.0742 83.8135 82.126 83.9121 82.2295 83.9785C82.333 84.0449 82.5195 84.1084 82.7891 84.1689C83.0605 84.2295 83.2803 84.3018 83.4482 84.3857C83.6162 84.4697 83.7402 84.5713 83.8203 84.6904C83.9023 84.8076 83.9434 84.9512 83.9434 85.1211C83.9434 85.4043 83.8301 85.6318 83.6035 85.8037C83.377 85.9736 83.083 86.0586 82.7217 86.0586C82.4678 86.0586 82.2432 86.0137 82.0479 85.9238C81.8525 85.834 81.6992 85.709 81.5879 85.5488C81.4785 85.3867 81.4238 85.2119 81.4238 85.0244H81.9658C81.9756 85.2061 82.0479 85.3506 82.1826 85.458C82.3193 85.5635 82.499 85.6162 82.7217 85.6162C82.9268 85.6162 83.0908 85.5752 83.2139 85.4932C83.3389 85.4092 83.4014 85.2979 83.4014 85.1592ZM86.6064 86C86.5752 85.9375 86.5498 85.8262 86.5303 85.666C86.2783 85.9277 85.9775 86.0586 85.6279 86.0586C85.3154 86.0586 85.0586 85.9707 84.8574 85.7949C84.6582 85.6172 84.5586 85.3926 84.5586 85.1211C84.5586 84.791 84.6836 84.5352 84.9336 84.3535C85.1855 84.1699 85.5391 84.0781 85.9941 84.0781H86.5215V83.8291C86.5215 83.6396 86.4648 83.4893 86.3516 83.3779C86.2383 83.2646 86.0713 83.208 85.8506 83.208C85.6572 83.208 85.4951 83.2568 85.3643 83.3545C85.2334 83.4521 85.168 83.5703 85.168 83.709H84.623C84.623 83.5508 84.6787 83.3984 84.79 83.252C84.9033 83.1035 85.0557 82.9863 85.2471 82.9004C85.4404 82.8145 85.6523 82.7715 85.8828 82.7715C86.248 82.7715 86.5342 82.8633 86.7412 83.0469C86.9482 83.2285 87.0557 83.4795 87.0635 83.7998V85.2588C87.0635 85.5498 87.1006 85.7812 87.1748 85.9531V86H86.6064ZM85.707 85.5869C85.877 85.5869 86.0381 85.543 86.1904 85.4551C86.3428 85.3672 86.4531 85.2529 86.5215 85.1123V84.4619H86.0967C85.4326 84.4619 85.1006 84.6562 85.1006 85.0449C85.1006 85.2148 85.1572 85.3477 85.2705 85.4434C85.3838 85.5391 85.5293 85.5869 85.707 85.5869Z" fill="black"/>
<path d="M70.1455 131.54H72.167V132H69.5801V127.734H70.1455V131.54ZM73.5352 127.734L74.9297 131.215L76.3242 127.734H77.0537V132H76.4912V130.339L76.5439 128.546L75.1436 132H74.7129L73.3154 128.555L73.3711 130.339V132H72.8086V127.734H73.5352ZM81.3281 130.005C81.3281 130.423 81.2578 130.788 81.1172 131.101C80.9766 131.411 80.7773 131.648 80.5195 131.812C80.2617 131.977 79.9609 132.059 79.6172 132.059C79.2812 132.059 78.9834 131.977 78.7236 131.812C78.4639 131.646 78.2617 131.411 78.1172 131.106C77.9746 130.8 77.9014 130.445 77.8975 130.043V129.735C77.8975 129.325 77.9688 128.963 78.1113 128.648C78.2539 128.334 78.4551 128.094 78.7148 127.928C78.9766 127.76 79.2754 127.676 79.6113 127.676C79.9531 127.676 80.2539 127.759 80.5137 127.925C80.7754 128.089 80.9766 128.328 81.1172 128.643C81.2578 128.955 81.3281 129.319 81.3281 129.735V130.005ZM80.7686 129.729C80.7686 129.224 80.667 128.836 80.4639 128.566C80.2607 128.295 79.9766 128.159 79.6113 128.159C79.2559 128.159 78.9756 128.295 78.7705 128.566C78.5674 128.836 78.4629 129.211 78.457 129.691V130.005C78.457 130.495 78.5596 130.881 78.7646 131.162C78.9717 131.441 79.2559 131.581 79.6172 131.581C79.9805 131.581 80.2617 131.449 80.4609 131.186C80.6602 130.92 80.7627 130.54 80.7686 130.046V129.729ZM82.8984 127.734L84.293 131.215L85.6875 127.734H86.417V132H85.8545V130.339L85.9072 128.546L84.5068 132H84.0762L82.6787 128.555L82.7344 130.339V132H82.1719V127.734H82.8984ZM71.7861 134.731V135.191H71.6865C71.2646 135.199 70.9287 135.324 70.6787 135.566C70.4287 135.809 70.2842 136.149 70.2451 136.589C70.4697 136.331 70.7764 136.202 71.165 136.202C71.5361 136.202 71.832 136.333 72.0527 136.595C72.2754 136.856 72.3867 137.194 72.3867 137.608C72.3867 138.048 72.2666 138.399 72.0264 138.663C71.7881 138.927 71.4678 139.059 71.0654 139.059C70.6572 139.059 70.3262 138.902 70.0723 138.59C69.8184 138.275 69.6914 137.871 69.6914 137.377V137.169C69.6914 136.384 69.8584 135.784 70.1924 135.37C70.5283 134.954 71.0273 134.741 71.6895 134.731H71.7861ZM71.0742 136.653C70.8887 136.653 70.7178 136.709 70.5615 136.82C70.4053 136.932 70.2969 137.071 70.2363 137.239V137.438C70.2363 137.79 70.3154 138.073 70.4736 138.288C70.6318 138.503 70.8291 138.61 71.0654 138.61C71.3096 138.61 71.501 138.521 71.6396 138.341C71.7803 138.161 71.8506 137.926 71.8506 137.635C71.8506 137.342 71.7793 137.105 71.6367 136.926C71.4961 136.744 71.3086 136.653 71.0742 136.653ZM75.5244 137.887H73.7373L73.3359 139H72.7559L74.3848 134.734H74.877L76.5088 139H75.9316L75.5244 137.887ZM73.9072 137.424H75.3574L74.6309 135.429L73.9072 137.424ZM78.7236 139H78.1787V135.388L77.0859 135.789V135.297L78.6387 134.714H78.7236V139ZM82.9863 137.181C82.9863 137.815 82.8779 138.287 82.6611 138.596C82.4443 138.904 82.1055 139.059 81.6445 139.059C81.1895 139.059 80.8525 138.908 80.6338 138.607C80.415 138.305 80.3018 137.854 80.2939 137.254V136.53C80.2939 135.903 80.4023 135.438 80.6191 135.133C80.8359 134.828 81.1758 134.676 81.6387 134.676C82.0977 134.676 82.4355 134.823 82.6523 135.118C82.8691 135.411 82.9805 135.864 82.9863 136.478V137.181ZM82.4443 136.439C82.4443 135.98 82.3799 135.646 82.251 135.438C82.1221 135.227 81.918 135.121 81.6387 135.121C81.3613 135.121 81.1592 135.226 81.0322 135.435C80.9053 135.644 80.8398 135.965 80.8359 136.398V137.266C80.8359 137.727 80.9023 138.067 81.0352 138.288C81.1699 138.507 81.373 138.616 81.6445 138.616C81.9121 138.616 82.1104 138.513 82.2393 138.306C82.3701 138.099 82.4385 137.772 82.4443 137.327V136.439ZM84.4688 136.604H84.876C85.1318 136.6 85.333 136.532 85.4795 136.401C85.626 136.271 85.6992 136.094 85.6992 135.871C85.6992 135.371 85.4502 135.121 84.9521 135.121C84.7178 135.121 84.5303 135.188 84.3896 135.323C84.251 135.456 84.1816 135.633 84.1816 135.854H83.6396C83.6396 135.516 83.7627 135.235 84.0088 135.013C84.2568 134.788 84.5713 134.676 84.9521 134.676C85.3545 134.676 85.6699 134.782 85.8984 134.995C86.127 135.208 86.2412 135.504 86.2412 135.883C86.2412 136.068 86.1807 136.248 86.0596 136.422C85.9404 136.596 85.7773 136.726 85.5703 136.812C85.8047 136.886 85.9854 137.009 86.1123 137.181C86.2412 137.353 86.3057 137.562 86.3057 137.811C86.3057 138.193 86.1807 138.497 85.9307 138.722C85.6807 138.946 85.3555 139.059 84.9551 139.059C84.5547 139.059 84.2285 138.95 83.9766 138.733C83.7266 138.517 83.6016 138.23 83.6016 137.875H84.1465C84.1465 138.1 84.2197 138.279 84.3662 138.414C84.5127 138.549 84.709 138.616 84.9551 138.616C85.2168 138.616 85.417 138.548 85.5557 138.411C85.6943 138.274 85.7637 138.078 85.7637 137.822C85.7637 137.574 85.6875 137.384 85.5352 137.251C85.3828 137.118 85.1631 137.05 84.876 137.046H84.4688V136.604Z" fill="black"/>
<path d="M151.394 102.54H153.415V103H150.828V98.7344H151.394V102.54ZM157.335 103H156.77V101.028H154.619V103H154.057V98.7344H154.619V100.568H156.77V98.7344H157.335V103ZM161.337 98.7344V101.635C161.335 102.037 161.208 102.366 160.956 102.622C160.706 102.878 160.366 103.021 159.937 103.053L159.787 103.059C159.32 103.059 158.948 102.933 158.671 102.681C158.394 102.429 158.253 102.082 158.249 101.641V98.7344H158.806V101.623C158.806 101.932 158.891 102.172 159.061 102.344C159.23 102.514 159.473 102.599 159.787 102.599C160.105 102.599 160.349 102.514 160.517 102.344C160.687 102.174 160.771 101.935 160.771 101.626V98.7344H161.337ZM162.225 103V98.7344H163.429C163.8 98.7344 164.128 98.8164 164.413 98.9805C164.698 99.1445 164.918 99.3779 165.072 99.6807C165.229 99.9834 165.308 100.331 165.31 100.724V100.996C165.31 101.398 165.231 101.751 165.075 102.054C164.921 102.356 164.699 102.589 164.41 102.751C164.123 102.913 163.788 102.996 163.405 103H162.225ZM162.787 99.1973V102.54H163.379C163.812 102.54 164.149 102.405 164.39 102.136C164.632 101.866 164.753 101.482 164.753 100.984V100.735C164.753 100.251 164.639 99.875 164.41 99.6074C164.184 99.3379 163.861 99.2012 163.443 99.1973H162.787ZM151.786 105.731V106.191H151.687C151.265 106.199 150.929 106.324 150.679 106.566C150.429 106.809 150.284 107.149 150.245 107.589C150.47 107.331 150.776 107.202 151.165 107.202C151.536 107.202 151.832 107.333 152.053 107.595C152.275 107.856 152.387 108.194 152.387 108.608C152.387 109.048 152.267 109.399 152.026 109.663C151.788 109.927 151.468 110.059 151.065 110.059C150.657 110.059 150.326 109.902 150.072 109.59C149.818 109.275 149.691 108.871 149.691 108.377V108.169C149.691 107.384 149.858 106.784 150.192 106.37C150.528 105.954 151.027 105.741 151.689 105.731H151.786ZM151.074 107.653C150.889 107.653 150.718 107.709 150.562 107.82C150.405 107.932 150.297 108.071 150.236 108.239V108.438C150.236 108.79 150.315 109.073 150.474 109.288C150.632 109.503 150.829 109.61 151.065 109.61C151.31 109.61 151.501 109.521 151.64 109.341C151.78 109.161 151.851 108.926 151.851 108.635C151.851 108.342 151.779 108.105 151.637 107.926C151.496 107.744 151.309 107.653 151.074 107.653ZM155.524 108.887H153.737L153.336 110H152.756L154.385 105.734H154.877L156.509 110H155.932L155.524 108.887ZM153.907 108.424H155.357L154.631 106.429L153.907 108.424ZM158.724 110H158.179V106.388L157.086 106.789V106.297L158.639 105.714H158.724V110ZM162.986 108.181C162.986 108.815 162.878 109.287 162.661 109.596C162.444 109.904 162.105 110.059 161.645 110.059C161.189 110.059 160.853 109.908 160.634 109.607C160.415 109.305 160.302 108.854 160.294 108.254V107.53C160.294 106.903 160.402 106.438 160.619 106.133C160.836 105.828 161.176 105.676 161.639 105.676C162.098 105.676 162.436 105.823 162.652 106.118C162.869 106.411 162.98 106.864 162.986 107.478V108.181ZM162.444 107.439C162.444 106.98 162.38 106.646 162.251 106.438C162.122 106.227 161.918 106.121 161.639 106.121C161.361 106.121 161.159 106.226 161.032 106.435C160.905 106.644 160.84 106.965 160.836 107.398V108.266C160.836 108.727 160.902 109.067 161.035 109.288C161.17 109.507 161.373 109.616 161.645 109.616C161.912 109.616 162.11 109.513 162.239 109.306C162.37 109.099 162.438 108.772 162.444 108.327V107.439ZM165.969 108.567H166.561V109.01H165.969V110H165.424V109.01H163.481V108.69L165.392 105.734H165.969V108.567ZM164.097 108.567H165.424V106.476L165.359 106.593L164.097 108.567Z" fill="black"/>
<path d="M151.798 162.655L151.88 163.218L152 162.711L152.844 159.734H153.318L154.142 162.711L154.259 163.227L154.35 162.652L155.012 159.734H155.577L154.543 164H154.03L153.151 160.892L153.084 160.566L153.017 160.892L152.105 164H151.593L150.562 159.734H151.124L151.798 162.655ZM159.342 162.646C159.289 163.098 159.122 163.446 158.841 163.692C158.562 163.937 158.189 164.059 157.725 164.059C157.221 164.059 156.816 163.878 156.512 163.517C156.209 163.155 156.058 162.672 156.058 162.066V161.656C156.058 161.26 156.128 160.911 156.269 160.61C156.411 160.31 156.612 160.079 156.872 159.919C157.132 159.757 157.433 159.676 157.774 159.676C158.228 159.676 158.591 159.803 158.864 160.057C159.138 160.309 159.297 160.658 159.342 161.105H158.776C158.728 160.766 158.621 160.52 158.457 160.367C158.295 160.215 158.067 160.139 157.774 160.139C157.415 160.139 157.133 160.271 156.928 160.537C156.725 160.803 156.623 161.181 156.623 161.671V162.084C156.623 162.547 156.72 162.915 156.913 163.188C157.106 163.462 157.377 163.599 157.725 163.599C158.037 163.599 158.276 163.528 158.442 163.388C158.61 163.245 158.722 162.998 158.776 162.646H159.342Z" fill="black"/>
<path d="M60.7979 223.655L60.8799 224.218L61 223.711L61.8438 220.734H62.3184L63.1416 223.711L63.2588 224.227L63.3496 223.652L64.0117 220.734H64.5771L63.543 225H63.0303L62.1514 221.892L62.084 221.566L62.0166 221.892L61.1055 225H60.5928L59.5615 220.734H60.124L60.7979 223.655ZM68.3418 223.646C68.2891 224.098 68.1221 224.446 67.8408 224.692C67.5615 224.937 67.1895 225.059 66.7246 225.059C66.2207 225.059 65.8164 224.878 65.5117 224.517C65.209 224.155 65.0576 223.672 65.0576 223.066V222.656C65.0576 222.26 65.1279 221.911 65.2686 221.61C65.4111 221.31 65.6123 221.079 65.8721 220.919C66.1318 220.757 66.4326 220.676 66.7744 220.676C67.2275 220.676 67.5908 220.803 67.8643 221.057C68.1377 221.309 68.2969 221.658 68.3418 222.105H67.7764C67.7275 221.766 67.6211 221.52 67.457 221.367C67.2949 221.215 67.0674 221.139 66.7744 221.139C66.415 221.139 66.1328 221.271 65.9277 221.537C65.7246 221.803 65.623 222.181 65.623 222.671V223.084C65.623 223.547 65.7197 223.915 65.9131 224.188C66.1064 224.462 66.377 224.599 66.7246 224.599C67.0371 224.599 67.2764 224.528 67.4424 224.388C67.6104 224.245 67.7217 223.998 67.7764 223.646H68.3418Z" fill="black"/>
</svg>
