<svg width="210" height="297" viewBox="0 0 210 297" fill="none" xmlns="http://www.w3.org/2000/svg">
<path d="M49.3896 105V100.734H50.5938C50.9648 100.734 51.293 100.816 51.5781 100.98C51.8633 101.145 52.083 101.378 52.2373 101.681C52.3936 101.983 52.4727 102.331 52.4746 102.724V102.996C52.4746 103.398 52.3965 103.751 52.2402 104.054C52.0859 104.356 51.8643 104.589 51.5752 104.751C51.2881 104.913 50.9531 104.996 50.5703 105H49.3896ZM49.9521 101.197V104.54H50.5439C50.9775 104.54 51.3145 104.405 51.5547 104.136C51.7969 103.866 51.918 103.482 51.918 102.984V102.735C51.918 102.251 51.8037 101.875 51.5752 101.607C51.3486 101.338 51.0264 101.201 50.6084 101.197H49.9521ZM55.7383 103.028H53.8896V104.54H56.0371V105H53.3271V100.734H56.0078V101.197H53.8896V102.568H55.7383V103.028ZM57.3027 104.54H59.3242V105H56.7373V100.734H57.3027V104.54ZM60.5693 105H60.0068V100.734H60.5693V105ZM50.5586 107.731V108.191H50.459C50.0371 108.199 49.7012 108.324 49.4512 108.566C49.2012 108.809 49.0566 109.149 49.0176 109.589C49.2422 109.331 49.5488 109.202 49.9375 109.202C50.3086 109.202 50.6045 109.333 50.8252 109.595C51.0479 109.856 51.1592 110.194 51.1592 110.608C51.1592 111.048 51.0391 111.399 50.7988 111.663C50.5605 111.927 50.2402 112.059 49.8379 112.059C49.4297 112.059 49.0986 111.902 48.8447 111.59C48.5908 111.275 48.4639 110.871 48.4639 110.377V110.169C48.4639 109.384 48.6309 108.784 48.9648 108.37C49.3008 107.954 49.7998 107.741 50.4619 107.731H50.5586ZM49.8467 109.653C49.6611 109.653 49.4902 109.709 49.334 109.82C49.1777 109.932 49.0693 110.071 49.0088 110.239V110.438C49.0088 110.79 49.0879 111.073 49.2461 111.288C49.4043 111.503 49.6016 111.61 49.8379 111.61C50.082 111.61 50.2734 111.521 50.4121 111.341C50.5527 111.161 50.623 110.926 50.623 110.635C50.623 110.342 50.5518 110.105 50.4092 109.926C50.2686 109.744 50.0811 109.653 49.8467 109.653ZM51.9414 112V107.734H53.3359C53.7988 107.734 54.1465 107.83 54.3789 108.021C54.6133 108.213 54.7305 108.496 54.7305 108.871C54.7305 109.07 54.6738 109.247 54.5605 109.401C54.4473 109.554 54.293 109.672 54.0977 109.756C54.3281 109.82 54.5098 109.943 54.6426 110.125C54.7773 110.305 54.8447 110.52 54.8447 110.77C54.8447 111.152 54.7207 111.453 54.4727 111.672C54.2246 111.891 53.874 112 53.4209 112H51.9414ZM52.5039 110.005V111.54H53.4326C53.6943 111.54 53.9004 111.473 54.0508 111.338C54.2031 111.201 54.2793 111.014 54.2793 110.775C54.2793 110.262 54 110.005 53.4414 110.005H52.5039ZM52.5039 109.554H53.3535C53.5996 109.554 53.7959 109.492 53.9424 109.369C54.0908 109.246 54.165 109.079 54.165 108.868C54.165 108.634 54.0967 108.464 53.96 108.358C53.8232 108.251 53.6152 108.197 53.3359 108.197H52.5039V109.554ZM58.2139 110.181C58.2139 110.815 58.1055 111.287 57.8887 111.596C57.6719 111.904 57.333 112.059 56.8721 112.059C56.417 112.059 56.0801 111.908 55.8613 111.607C55.6426 111.305 55.5293 110.854 55.5215 110.254V109.53C55.5215 108.903 55.6299 108.438 55.8467 108.133C56.0635 107.828 56.4033 107.676 56.8662 107.676C57.3252 107.676 57.6631 107.823 57.8799 108.118C58.0967 108.411 58.208 108.864 58.2139 109.478V110.181ZM57.6719 109.439C57.6719 108.98 57.6074 108.646 57.4785 108.438C57.3496 108.227 57.1455 108.121 56.8662 108.121C56.5889 108.121 56.3867 108.226 56.2598 108.435C56.1328 108.644 56.0674 108.965 56.0635 109.398V110.266C56.0635 110.727 56.1299 111.067 56.2627 111.288C56.3975 111.507 56.6006 111.616 56.8721 111.616C57.1396 111.616 57.3379 111.513 57.4668 111.306C57.5977 111.099 57.666 110.772 57.6719 110.327V109.439ZM60.6895 112H60.1445V108.388L59.0518 108.789V108.297L60.6045 107.714H60.6895V112Z" fill="black"/>
<path d="M38.0166 180.227L38.5586 180.748H40V181.311H35.7344V180.748H37.8438L35.7344 178.853V178.173L37.6182 179.852L40 178.041V178.715L38.0166 180.227ZM38.4092 175.018V176.447H37.9668V175.018H38.4092ZM35.7314 170.928H36.1914V171.027C36.1992 171.449 36.3242 171.785 36.5664 172.035C36.8086 172.285 37.1494 172.43 37.5889 172.469C37.3311 172.244 37.2021 171.938 37.2021 171.549C37.2021 171.178 37.333 170.882 37.5947 170.661C37.8564 170.438 38.1943 170.327 38.6084 170.327C39.0479 170.327 39.3994 170.447 39.6631 170.688C39.9268 170.926 40.0586 171.246 40.0586 171.648C40.0586 172.057 39.9023 172.388 39.5898 172.642C39.2754 172.896 38.8711 173.022 38.377 173.022H38.1689C37.3838 173.022 36.7842 172.855 36.3701 172.521C35.9541 172.186 35.7412 171.687 35.7314 171.024V170.928ZM37.6533 171.64C37.6533 171.825 37.709 171.996 37.8203 172.152C37.9316 172.309 38.0713 172.417 38.2393 172.478H38.4385C38.79 172.478 39.0732 172.398 39.2881 172.24C39.5029 172.082 39.6104 171.885 39.6104 171.648C39.6104 171.404 39.5205 171.213 39.3408 171.074C39.1611 170.934 38.9258 170.863 38.6348 170.863C38.3418 170.863 38.1055 170.935 37.9258 171.077C37.7441 171.218 37.6533 171.405 37.6533 171.64ZM40 169.545H35.7344V168.15C35.7344 167.688 35.8301 167.34 36.0215 167.107C36.2129 166.873 36.4961 166.756 36.8711 166.756C37.0703 166.756 37.2471 166.812 37.4014 166.926C37.5537 167.039 37.6719 167.193 37.7559 167.389C37.8203 167.158 37.9434 166.977 38.125 166.844C38.3047 166.709 38.5195 166.642 38.7695 166.642C39.1523 166.642 39.4531 166.766 39.6719 167.014C39.8906 167.262 40 167.612 40 168.065V169.545ZM38.0049 168.982H39.54V168.054C39.54 167.792 39.4727 167.586 39.3379 167.436C39.2012 167.283 39.0137 167.207 38.7754 167.207C38.2617 167.207 38.0049 167.486 38.0049 168.045V168.982ZM37.5537 168.982V168.133C37.5537 167.887 37.4922 167.69 37.3691 167.544C37.2461 167.396 37.0791 167.321 36.8682 167.321C36.6338 167.321 36.4639 167.39 36.3584 167.526C36.251 167.663 36.1973 167.871 36.1973 168.15V168.982H37.5537ZM38.1807 163.272C38.8154 163.272 39.2871 163.381 39.5957 163.598C39.9043 163.814 40.0586 164.153 40.0586 164.614C40.0586 165.069 39.9082 165.406 39.6074 165.625C39.3047 165.844 38.8535 165.957 38.2539 165.965H37.5303C36.9033 165.965 36.4375 165.856 36.1328 165.64C35.8281 165.423 35.6758 165.083 35.6758 164.62C35.6758 164.161 35.8232 163.823 36.1182 163.606C36.4111 163.39 36.8643 163.278 37.4775 163.272H38.1807ZM37.4395 163.814C36.9805 163.814 36.6465 163.879 36.4375 164.008C36.2266 164.137 36.1211 164.341 36.1211 164.62C36.1211 164.897 36.2256 165.1 36.4346 165.227C36.6436 165.354 36.9648 165.419 37.3984 165.423H38.2656C38.7266 165.423 39.0674 165.356 39.2881 165.224C39.5068 165.089 39.6162 164.886 39.6162 164.614C39.6162 164.347 39.5127 164.148 39.3057 164.02C39.0986 163.889 38.7725 163.82 38.3271 163.814H37.4395ZM40 160.797V161.342H36.3877L36.7891 162.435H36.2969L35.7139 160.882V160.797H40ZM40 157.428V157.973H36.3877L36.7891 159.065H36.2969L35.7139 157.513V157.428H40Z" fill="black"/>
<path d="M129.939 83.1973H128.568V87H128.009V83.1973H126.641V82.7344H129.939V83.1973ZM131.51 87.0586C131.08 87.0586 130.73 86.918 130.461 86.6367C130.191 86.3535 130.057 85.9756 130.057 85.5029V85.4033C130.057 85.0889 130.116 84.8086 130.235 84.5625C130.356 84.3145 130.524 84.1211 130.739 83.9824C130.956 83.8418 131.19 83.7715 131.442 83.7715C131.854 83.7715 132.175 83.9072 132.403 84.1787C132.632 84.4502 132.746 84.8389 132.746 85.3447V85.5703H130.599C130.606 85.8828 130.697 86.1357 130.871 86.3291C131.047 86.5205 131.27 86.6162 131.539 86.6162C131.73 86.6162 131.893 86.5771 132.025 86.499C132.158 86.4209 132.274 86.3174 132.374 86.1885L132.705 86.4463C132.439 86.8545 132.041 87.0586 131.51 87.0586ZM131.442 84.2168C131.224 84.2168 131.04 84.2969 130.892 84.457C130.743 84.6152 130.651 84.8379 130.616 85.125H132.204V85.084C132.188 84.8086 132.114 84.5957 131.981 84.4453C131.849 84.293 131.669 84.2168 131.442 84.2168ZM134.908 84.3164C134.826 84.3027 134.737 84.2959 134.642 84.2959C134.286 84.2959 134.045 84.4473 133.918 84.75V87H133.376V83.8301H133.903L133.912 84.1963C134.09 83.9131 134.342 83.7715 134.668 83.7715C134.773 83.7715 134.854 83.7852 134.908 83.8125V84.3164ZM137.249 87C137.218 86.9375 137.192 86.8262 137.173 86.666C136.921 86.9277 136.62 87.0586 136.271 87.0586C135.958 87.0586 135.701 86.9707 135.5 86.7949C135.301 86.6172 135.201 86.3926 135.201 86.1211C135.201 85.791 135.326 85.5352 135.576 85.3535C135.828 85.1699 136.182 85.0781 136.637 85.0781H137.164V84.8291C137.164 84.6396 137.107 84.4893 136.994 84.3779C136.881 84.2646 136.714 84.208 136.493 84.208C136.3 84.208 136.138 84.2568 136.007 84.3545C135.876 84.4521 135.811 84.5703 135.811 84.709H135.266C135.266 84.5508 135.321 84.3984 135.433 84.252C135.546 84.1035 135.698 83.9863 135.89 83.9004C136.083 83.8145 136.295 83.7715 136.525 83.7715C136.891 83.7715 137.177 83.8633 137.384 84.0469C137.591 84.2285 137.698 84.4795 137.706 84.7998V86.2588C137.706 86.5498 137.743 86.7812 137.817 86.9531V87H137.249ZM136.35 86.5869C136.52 86.5869 136.681 86.543 136.833 86.4551C136.985 86.3672 137.096 86.2529 137.164 86.1123V85.4619H136.739C136.075 85.4619 135.743 85.6562 135.743 86.0449C135.743 86.2148 135.8 86.3477 135.913 86.4434C136.026 86.5391 136.172 86.5869 136.35 86.5869ZM140.401 86.1592C140.401 86.0127 140.346 85.8994 140.234 85.8193C140.125 85.7373 139.933 85.667 139.657 85.6084C139.384 85.5498 139.166 85.4795 139.004 85.3975C138.844 85.3154 138.725 85.2178 138.646 85.1045C138.57 84.9912 138.532 84.8564 138.532 84.7002C138.532 84.4404 138.642 84.2207 138.86 84.041C139.081 83.8613 139.362 83.7715 139.704 83.7715C140.063 83.7715 140.354 83.8643 140.577 84.0498C140.802 84.2354 140.914 84.4727 140.914 84.7617H140.369C140.369 84.6133 140.306 84.4854 140.179 84.3779C140.054 84.2705 139.896 84.2168 139.704 84.2168C139.507 84.2168 139.353 84.2598 139.241 84.3457C139.13 84.4316 139.074 84.5439 139.074 84.6826C139.074 84.8135 139.126 84.9121 139.229 84.9785C139.333 85.0449 139.52 85.1084 139.789 85.1689C140.061 85.2295 140.28 85.3018 140.448 85.3857C140.616 85.4697 140.74 85.5713 140.82 85.6904C140.902 85.8076 140.943 85.9512 140.943 86.1211C140.943 86.4043 140.83 86.6318 140.604 86.8037C140.377 86.9736 140.083 87.0586 139.722 87.0586C139.468 87.0586 139.243 87.0137 139.048 86.9238C138.853 86.834 138.699 86.709 138.588 86.5488C138.479 86.3867 138.424 86.2119 138.424 86.0244H138.966C138.976 86.2061 139.048 86.3506 139.183 86.458C139.319 86.5635 139.499 86.6162 139.722 86.6162C139.927 86.6162 140.091 86.5752 140.214 86.4932C140.339 86.4092 140.401 86.2979 140.401 86.1592ZM143.606 87C143.575 86.9375 143.55 86.8262 143.53 86.666C143.278 86.9277 142.978 87.0586 142.628 87.0586C142.315 87.0586 142.059 86.9707 141.857 86.7949C141.658 86.6172 141.559 86.3926 141.559 86.1211C141.559 85.791 141.684 85.5352 141.934 85.3535C142.186 85.1699 142.539 85.0781 142.994 85.0781H143.521V84.8291C143.521 84.6396 143.465 84.4893 143.352 84.3779C143.238 84.2646 143.071 84.208 142.851 84.208C142.657 84.208 142.495 84.2568 142.364 84.3545C142.233 84.4521 142.168 84.5703 142.168 84.709H141.623C141.623 84.5508 141.679 84.3984 141.79 84.252C141.903 84.1035 142.056 83.9863 142.247 83.9004C142.44 83.8145 142.652 83.7715 142.883 83.7715C143.248 83.7715 143.534 83.8633 143.741 84.0469C143.948 84.2285 144.056 84.4795 144.063 84.7998V86.2588C144.063 86.5498 144.101 86.7812 144.175 86.9531V87H143.606ZM142.707 86.5869C142.877 86.5869 143.038 86.543 143.19 86.4551C143.343 86.3672 143.453 86.2529 143.521 86.1123V85.4619H143.097C142.433 85.4619 142.101 85.6562 142.101 86.0449C142.101 86.2148 142.157 86.3477 142.271 86.4434C142.384 86.5391 142.529 86.5869 142.707 86.5869Z" fill="black"/>
<path d="M116.07 199.099C115.588 198.96 115.236 198.79 115.016 198.589C114.797 198.386 114.688 198.136 114.688 197.839C114.688 197.503 114.821 197.226 115.089 197.007C115.358 196.786 115.708 196.676 116.138 196.676C116.431 196.676 116.691 196.732 116.92 196.846C117.15 196.959 117.328 197.115 117.453 197.314C117.58 197.514 117.644 197.731 117.644 197.968H117.078C117.078 197.71 116.996 197.508 116.832 197.361C116.668 197.213 116.437 197.139 116.138 197.139C115.86 197.139 115.644 197.2 115.487 197.323C115.333 197.444 115.256 197.613 115.256 197.83C115.256 198.004 115.329 198.151 115.476 198.272C115.624 198.392 115.875 198.501 116.229 198.601C116.584 198.7 116.861 198.811 117.061 198.932C117.262 199.051 117.41 199.19 117.506 199.351C117.604 199.511 117.652 199.699 117.652 199.916C117.652 200.262 117.518 200.539 117.248 200.748C116.979 200.955 116.618 201.059 116.167 201.059C115.874 201.059 115.601 201.003 115.347 200.892C115.093 200.778 114.896 200.624 114.758 200.429C114.621 200.233 114.553 200.012 114.553 199.764H115.118C115.118 200.021 115.213 200.226 115.402 200.376C115.594 200.524 115.849 200.599 116.167 200.599C116.464 200.599 116.691 200.538 116.85 200.417C117.008 200.296 117.087 200.131 117.087 199.922C117.087 199.713 117.014 199.552 116.867 199.438C116.721 199.323 116.455 199.21 116.07 199.099ZM116.138 196.084L116.577 195.586H117.046V195.615L116.302 196.418H115.971L115.235 195.615V195.586H115.695L116.138 196.084ZM120.248 201C120.217 200.938 120.191 200.826 120.172 200.666C119.92 200.928 119.619 201.059 119.27 201.059C118.957 201.059 118.7 200.971 118.499 200.795C118.3 200.617 118.2 200.393 118.2 200.121C118.2 199.791 118.325 199.535 118.575 199.354C118.827 199.17 119.181 199.078 119.636 199.078H120.163V198.829C120.163 198.64 120.106 198.489 119.993 198.378C119.88 198.265 119.713 198.208 119.492 198.208C119.299 198.208 119.137 198.257 119.006 198.354C118.875 198.452 118.81 198.57 118.81 198.709H118.265C118.265 198.551 118.32 198.398 118.432 198.252C118.545 198.104 118.697 197.986 118.889 197.9C119.082 197.814 119.294 197.771 119.524 197.771C119.89 197.771 120.176 197.863 120.383 198.047C120.59 198.229 120.697 198.479 120.705 198.8V200.259C120.705 200.55 120.742 200.781 120.816 200.953V201H120.248ZM119.349 200.587C119.519 200.587 119.68 200.543 119.832 200.455C119.984 200.367 120.095 200.253 120.163 200.112V199.462H119.738C119.074 199.462 118.742 199.656 118.742 200.045C118.742 200.215 118.799 200.348 118.912 200.443C119.025 200.539 119.171 200.587 119.349 200.587ZM122.29 197.062V197.83H122.882V198.249H122.29V200.215C122.29 200.342 122.316 200.438 122.369 200.502C122.422 200.564 122.512 200.596 122.639 200.596C122.701 200.596 122.787 200.584 122.896 200.561V201C122.754 201.039 122.615 201.059 122.48 201.059C122.238 201.059 122.056 200.985 121.933 200.839C121.81 200.692 121.748 200.484 121.748 200.215V198.249H121.171V197.83H121.748V197.062H122.29ZM124.03 197.83L124.048 198.229C124.29 197.924 124.606 197.771 124.997 197.771C125.667 197.771 126.005 198.149 126.011 198.905V201H125.469V198.902C125.467 198.674 125.414 198.505 125.311 198.396C125.209 198.286 125.05 198.231 124.833 198.231C124.657 198.231 124.503 198.278 124.37 198.372C124.237 198.466 124.134 198.589 124.06 198.741V201H123.518V197.83H124.03ZM124.78 196.998L125.22 196.5H125.688V196.529L124.944 197.332H124.613L123.878 196.529V196.5H124.338L124.78 196.998ZM128.785 201C128.754 200.938 128.729 200.826 128.709 200.666C128.457 200.928 128.156 201.059 127.807 201.059C127.494 201.059 127.237 200.971 127.036 200.795C126.837 200.617 126.737 200.393 126.737 200.121C126.737 199.791 126.862 199.535 127.112 199.354C127.364 199.17 127.718 199.078 128.173 199.078H128.7V198.829C128.7 198.64 128.644 198.489 128.53 198.378C128.417 198.265 128.25 198.208 128.029 198.208C127.836 198.208 127.674 198.257 127.543 198.354C127.412 198.452 127.347 198.57 127.347 198.709H126.802C126.802 198.551 126.857 198.398 126.969 198.252C127.082 198.104 127.234 197.986 127.426 197.9C127.619 197.814 127.831 197.771 128.062 197.771C128.427 197.771 128.713 197.863 128.92 198.047C129.127 198.229 129.234 198.479 129.242 198.8V200.259C129.242 200.55 129.279 200.781 129.354 200.953V201H128.785ZM127.886 200.587C128.056 200.587 128.217 200.543 128.369 200.455C128.521 200.367 128.632 200.253 128.7 200.112V199.462H128.275C127.611 199.462 127.279 199.656 127.279 200.045C127.279 200.215 127.336 200.348 127.449 200.443C127.562 200.539 127.708 200.587 127.886 200.587Z" fill="black"/>
<path d="M54.2979 162.655L54.3799 163.218L54.5 162.711L55.3438 159.734H55.8184L56.6416 162.711L56.7588 163.227L56.8496 162.652L57.5117 159.734H58.0771L57.043 164H56.5303L55.6514 160.892L55.584 160.566L55.5166 160.892L54.6055 164H54.0928L53.0615 159.734H53.624L54.2979 162.655ZM61.8418 162.646C61.7891 163.098 61.6221 163.446 61.3408 163.692C61.0615 163.937 60.6895 164.059 60.2246 164.059C59.7207 164.059 59.3164 163.878 59.0117 163.517C58.709 163.155 58.5576 162.672 58.5576 162.066V161.656C58.5576 161.26 58.6279 160.911 58.7686 160.61C58.9111 160.31 59.1123 160.079 59.3721 159.919C59.6318 159.757 59.9326 159.676 60.2744 159.676C60.7275 159.676 61.0908 159.803 61.3643 160.057C61.6377 160.309 61.7969 160.658 61.8418 161.105H61.2764C61.2275 160.766 61.1211 160.52 60.957 160.367C60.7949 160.215 60.5674 160.139 60.2744 160.139C59.915 160.139 59.6328 160.271 59.4277 160.537C59.2246 160.803 59.123 161.181 59.123 161.671V162.084C59.123 162.547 59.2197 162.915 59.4131 163.188C59.6064 163.462 59.877 163.599 60.2246 163.599C60.5371 163.599 60.7764 163.528 60.9424 163.388C61.1104 163.245 61.2217 162.998 61.2764 162.646H61.8418Z" fill="black"/>
<path d="M143.298 224.655L143.38 225.218L143.5 224.711L144.344 221.734H144.818L145.642 224.711L145.759 225.227L145.85 224.652L146.512 221.734H147.077L146.043 226H145.53L144.651 222.892L144.584 222.566L144.517 222.892L143.605 226H143.093L142.062 221.734H142.624L143.298 224.655ZM150.842 224.646C150.789 225.098 150.622 225.446 150.341 225.692C150.062 225.937 149.689 226.059 149.225 226.059C148.721 226.059 148.316 225.878 148.012 225.517C147.709 225.155 147.558 224.672 147.558 224.066V223.656C147.558 223.26 147.628 222.911 147.769 222.61C147.911 222.31 148.112 222.079 148.372 221.919C148.632 221.757 148.933 221.676 149.274 221.676C149.728 221.676 150.091 221.803 150.364 222.057C150.638 222.309 150.797 222.658 150.842 223.105H150.276C150.228 222.766 150.121 222.52 149.957 222.367C149.795 222.215 149.567 222.139 149.274 222.139C148.915 222.139 148.633 222.271 148.428 222.537C148.225 222.803 148.123 223.181 148.123 223.671V224.084C148.123 224.547 148.22 224.915 148.413 225.188C148.606 225.462 148.877 225.599 149.225 225.599C149.537 225.599 149.776 225.528 149.942 225.388C150.11 225.245 150.222 224.998 150.276 224.646H150.842Z" fill="black"/>
<path d="M128.741 133V128.734H129.945C130.316 128.734 130.645 128.816 130.93 128.98C131.215 129.145 131.435 129.378 131.589 129.681C131.745 129.983 131.824 130.331 131.826 130.724V130.996C131.826 131.398 131.748 131.751 131.592 132.054C131.438 132.356 131.216 132.589 130.927 132.751C130.64 132.913 130.305 132.996 129.922 133H128.741ZM129.304 129.197V132.54H129.896C130.329 132.54 130.666 132.405 130.906 132.136C131.148 131.866 131.27 131.482 131.27 130.984V130.735C131.27 130.251 131.155 129.875 130.927 129.607C130.7 129.338 130.378 129.201 129.96 129.197H129.304ZM134.243 131.274H133.241V133H132.676V128.734H134.088C134.568 128.734 134.938 128.844 135.195 129.062C135.455 129.281 135.585 129.6 135.585 130.018C135.585 130.283 135.513 130.515 135.368 130.712C135.226 130.909 135.026 131.057 134.771 131.154L135.772 132.965V133H135.169L134.243 131.274ZM133.241 130.814H134.105C134.385 130.814 134.606 130.742 134.771 130.598C134.937 130.453 135.02 130.26 135.02 130.018C135.02 129.754 134.94 129.552 134.782 129.411C134.626 129.271 134.399 129.199 134.103 129.197H133.241V130.814ZM136.979 133H136.417V128.734H136.979V133ZM138.737 128.734L140.132 132.215L141.526 128.734H142.256V133H141.693V131.339L141.746 129.546L140.346 133H139.915L138.518 129.555L138.573 131.339V133H138.011V128.734H138.737ZM131.059 135.731V136.191H130.959C130.537 136.199 130.201 136.324 129.951 136.566C129.701 136.809 129.557 137.149 129.518 137.589C129.742 137.331 130.049 137.202 130.438 137.202C130.809 137.202 131.104 137.333 131.325 137.595C131.548 137.856 131.659 138.194 131.659 138.608C131.659 139.048 131.539 139.399 131.299 139.663C131.061 139.927 130.74 140.059 130.338 140.059C129.93 140.059 129.599 139.902 129.345 139.59C129.091 139.275 128.964 138.871 128.964 138.377V138.169C128.964 137.384 129.131 136.784 129.465 136.37C129.801 135.954 130.3 135.741 130.962 135.731H131.059ZM130.347 137.653C130.161 137.653 129.99 137.709 129.834 137.82C129.678 137.932 129.569 138.071 129.509 138.239V138.438C129.509 138.79 129.588 139.073 129.746 139.288C129.904 139.503 130.102 139.61 130.338 139.61C130.582 139.61 130.773 139.521 130.912 139.341C131.053 139.161 131.123 138.926 131.123 138.635C131.123 138.342 131.052 138.105 130.909 137.926C130.769 137.744 130.581 137.653 130.347 137.653ZM132.441 140V135.734H133.836C134.299 135.734 134.646 135.83 134.879 136.021C135.113 136.213 135.23 136.496 135.23 136.871C135.23 137.07 135.174 137.247 135.061 137.401C134.947 137.554 134.793 137.672 134.598 137.756C134.828 137.82 135.01 137.943 135.143 138.125C135.277 138.305 135.345 138.52 135.345 138.77C135.345 139.152 135.221 139.453 134.973 139.672C134.725 139.891 134.374 140 133.921 140H132.441ZM133.004 138.005V139.54H133.933C134.194 139.54 134.4 139.473 134.551 139.338C134.703 139.201 134.779 139.014 134.779 138.775C134.779 138.262 134.5 138.005 133.941 138.005H133.004ZM133.004 137.554H133.854C134.1 137.554 134.296 137.492 134.442 137.369C134.591 137.246 134.665 137.079 134.665 136.868C134.665 136.634 134.597 136.464 134.46 136.358C134.323 136.251 134.115 136.197 133.836 136.197H133.004V137.554ZM138.714 138.181C138.714 138.815 138.605 139.287 138.389 139.596C138.172 139.904 137.833 140.059 137.372 140.059C136.917 140.059 136.58 139.908 136.361 139.607C136.143 139.305 136.029 138.854 136.021 138.254V137.53C136.021 136.903 136.13 136.438 136.347 136.133C136.563 135.828 136.903 135.676 137.366 135.676C137.825 135.676 138.163 135.823 138.38 136.118C138.597 136.411 138.708 136.864 138.714 137.478V138.181ZM138.172 137.439C138.172 136.98 138.107 136.646 137.979 136.438C137.85 136.227 137.646 136.121 137.366 136.121C137.089 136.121 136.887 136.226 136.76 136.435C136.633 136.644 136.567 136.965 136.563 137.398V138.266C136.563 138.727 136.63 139.067 136.763 139.288C136.897 139.507 137.101 139.616 137.372 139.616C137.64 139.616 137.838 139.513 137.967 139.306C138.098 139.099 138.166 138.772 138.172 138.327V137.439ZM139.657 137.861L139.874 135.734H142.06V136.235H140.334L140.205 137.398C140.414 137.275 140.651 137.214 140.917 137.214C141.306 137.214 141.614 137.343 141.843 137.601C142.071 137.856 142.186 138.203 142.186 138.641C142.186 139.08 142.066 139.427 141.828 139.681C141.592 139.933 141.261 140.059 140.835 140.059C140.458 140.059 140.15 139.954 139.912 139.745C139.674 139.536 139.538 139.247 139.505 138.878H140.018C140.051 139.122 140.138 139.307 140.278 139.432C140.419 139.555 140.604 139.616 140.835 139.616C141.087 139.616 141.284 139.53 141.427 139.358C141.571 139.187 141.644 138.949 141.644 138.646C141.644 138.361 141.565 138.133 141.409 137.961C141.255 137.787 141.049 137.7 140.791 137.7C140.555 137.7 140.369 137.752 140.234 137.855L140.091 137.973L139.657 137.861Z" fill="black"/>
</svg>
