<svg width="210" height="297" viewBox="0 0 210 297" fill="none" xmlns="http://www.w3.org/2000/svg">
<path d="M50.541 105H49.6504L49.6562 104.54H50.541C50.8457 104.54 51.0996 104.477 51.3027 104.35C51.5059 104.221 51.6582 104.041 51.7598 103.811C51.8633 103.578 51.915 103.307 51.915 102.996V102.735C51.915 102.491 51.8857 102.274 51.8271 102.085C51.7686 101.894 51.6826 101.732 51.5693 101.602C51.4561 101.469 51.3174 101.368 51.1533 101.3C50.9912 101.231 50.8047 101.197 50.5938 101.197H49.6328V100.734H50.5938C50.873 100.734 51.1279 100.781 51.3584 100.875C51.5889 100.967 51.7871 101.101 51.9531 101.276C52.1211 101.45 52.25 101.661 52.3398 101.909C52.4297 102.155 52.4746 102.433 52.4746 102.741V102.996C52.4746 103.305 52.4297 103.583 52.3398 103.831C52.25 104.077 52.1201 104.287 51.9502 104.461C51.7822 104.635 51.5791 104.769 51.3408 104.862C51.1045 104.954 50.8379 105 50.541 105ZM49.9521 100.734V105H49.3867V100.734H49.9521ZM56.0342 104.54V105H53.7754V104.54H56.0342ZM53.8896 100.734V105H53.3242V100.734H53.8896ZM55.7354 102.568V103.028H53.7754V102.568H55.7354ZM56.0049 100.734V101.197H53.7754V100.734H56.0049ZM59.3213 104.54V105H57.1885V104.54H59.3213ZM57.2998 100.734V105H56.7344V100.734H57.2998ZM60.5752 100.734V105H60.0098V100.734H60.5752ZM50.5029 107.729H50.5498V108.188H50.5029C50.2158 108.188 49.9756 108.235 49.7822 108.329C49.5889 108.421 49.4355 108.545 49.3223 108.701C49.209 108.855 49.127 109.029 49.0762 109.223C49.0273 109.416 49.0029 109.612 49.0029 109.812V110.438C49.0029 110.628 49.0254 110.796 49.0703 110.942C49.1152 111.087 49.1768 111.209 49.2549 111.309C49.333 111.408 49.4209 111.483 49.5186 111.534C49.6182 111.585 49.7217 111.61 49.8291 111.61C49.9541 111.61 50.0654 111.587 50.1631 111.54C50.2607 111.491 50.3428 111.424 50.4092 111.338C50.4775 111.25 50.5293 111.146 50.5645 111.027C50.5996 110.908 50.6172 110.777 50.6172 110.635C50.6172 110.508 50.6016 110.386 50.5703 110.269C50.5391 110.149 50.4912 110.044 50.4268 109.952C50.3623 109.858 50.2812 109.785 50.1836 109.732C50.0879 109.678 49.9736 109.65 49.8408 109.65C49.6904 109.65 49.5498 109.688 49.4189 109.762C49.29 109.834 49.1836 109.93 49.0996 110.049C49.0176 110.166 48.9707 110.294 48.959 110.433L48.6719 110.43C48.6992 110.211 48.75 110.024 48.8242 109.87C48.9004 109.714 48.9941 109.587 49.1055 109.489C49.2188 109.39 49.3447 109.317 49.4834 109.272C49.624 109.226 49.7725 109.202 49.9287 109.202C50.1416 109.202 50.3252 109.242 50.4795 109.322C50.6338 109.402 50.7607 109.51 50.8604 109.645C50.96 109.777 51.0332 109.928 51.0801 110.096C51.1289 110.262 51.1533 110.433 51.1533 110.608C51.1533 110.81 51.125 110.998 51.0684 111.174C51.0117 111.35 50.9268 111.504 50.8135 111.637C50.7021 111.77 50.5645 111.873 50.4004 111.947C50.2363 112.021 50.0459 112.059 49.8291 112.059C49.5986 112.059 49.3975 112.012 49.2256 111.918C49.0537 111.822 48.9111 111.695 48.7979 111.537C48.6846 111.379 48.5996 111.203 48.543 111.01C48.4863 110.816 48.458 110.62 48.458 110.421V110.166C48.458 109.865 48.4883 109.57 48.5488 109.281C48.6094 108.992 48.7139 108.73 48.8623 108.496C49.0127 108.262 49.2207 108.075 49.4863 107.937C49.752 107.798 50.0908 107.729 50.5029 107.729ZM53.459 110.005H52.3779L52.3721 109.551H53.3535C53.5156 109.551 53.6572 109.523 53.7783 109.469C53.8994 109.414 53.9932 109.336 54.0596 109.234C54.1279 109.131 54.1621 109.008 54.1621 108.865C54.1621 108.709 54.1318 108.582 54.0713 108.484C54.0127 108.385 53.9219 108.312 53.7988 108.268C53.6777 108.221 53.5234 108.197 53.3359 108.197H52.5039V112H51.9385V107.734H53.3359C53.5547 107.734 53.75 107.757 53.9219 107.802C54.0938 107.845 54.2393 107.913 54.3584 108.007C54.4795 108.099 54.5713 108.216 54.6338 108.358C54.6963 108.501 54.7275 108.672 54.7275 108.871C54.7275 109.047 54.6826 109.206 54.5928 109.349C54.5029 109.489 54.3779 109.604 54.2178 109.694C54.0596 109.784 53.874 109.842 53.6611 109.867L53.459 110.005ZM53.4326 112H52.1553L52.4746 111.54H53.4326C53.6123 111.54 53.7646 111.509 53.8896 111.446C54.0166 111.384 54.1133 111.296 54.1797 111.183C54.2461 111.067 54.2793 110.932 54.2793 110.775C54.2793 110.617 54.251 110.48 54.1943 110.365C54.1377 110.25 54.0488 110.161 53.9277 110.099C53.8066 110.036 53.6504 110.005 53.459 110.005H52.6533L52.6592 109.551H53.7607L53.8809 109.715C54.0859 109.732 54.2598 109.791 54.4023 109.891C54.5449 109.988 54.6533 110.113 54.7275 110.266C54.8037 110.418 54.8418 110.586 54.8418 110.77C54.8418 111.035 54.7832 111.26 54.666 111.443C54.5508 111.625 54.3877 111.764 54.1768 111.859C53.9658 111.953 53.7178 112 53.4326 112ZM58.2139 109.527V110.178C58.2139 110.527 58.1826 110.822 58.1201 111.062C58.0576 111.303 57.9678 111.496 57.8506 111.643C57.7334 111.789 57.5918 111.896 57.4258 111.962C57.2617 112.026 57.0762 112.059 56.8691 112.059C56.7051 112.059 56.5537 112.038 56.415 111.997C56.2764 111.956 56.1514 111.891 56.04 111.801C55.9307 111.709 55.8369 111.59 55.7588 111.443C55.6807 111.297 55.6211 111.119 55.5801 110.91C55.5391 110.701 55.5186 110.457 55.5186 110.178V109.527C55.5186 109.178 55.5498 108.885 55.6123 108.648C55.6768 108.412 55.7676 108.223 55.8848 108.08C56.002 107.936 56.1426 107.832 56.3066 107.77C56.4727 107.707 56.6582 107.676 56.8633 107.676C57.0293 107.676 57.1816 107.696 57.3203 107.737C57.4609 107.776 57.5859 107.84 57.6953 107.928C57.8047 108.014 57.8975 108.129 57.9736 108.273C58.0518 108.416 58.1113 108.591 58.1523 108.798C58.1934 109.005 58.2139 109.248 58.2139 109.527ZM57.6689 110.266V109.437C57.6689 109.245 57.6572 109.077 57.6338 108.933C57.6123 108.786 57.5801 108.661 57.5371 108.558C57.4941 108.454 57.4395 108.37 57.373 108.306C57.3086 108.241 57.2334 108.194 57.1475 108.165C57.0635 108.134 56.9688 108.118 56.8633 108.118C56.7344 108.118 56.6201 108.143 56.5205 108.191C56.4209 108.238 56.3369 108.313 56.2686 108.417C56.2021 108.521 56.1514 108.656 56.1162 108.824C56.0811 108.992 56.0635 109.196 56.0635 109.437V110.266C56.0635 110.457 56.0742 110.626 56.0957 110.772C56.1191 110.919 56.1533 111.046 56.1982 111.153C56.2432 111.259 56.2979 111.346 56.3623 111.414C56.4268 111.482 56.501 111.533 56.585 111.566C56.6709 111.598 56.7656 111.613 56.8691 111.613C57.002 111.613 57.1182 111.588 57.2178 111.537C57.3174 111.486 57.4004 111.407 57.4668 111.3C57.5352 111.19 57.5859 111.051 57.6191 110.881C57.6523 110.709 57.6689 110.504 57.6689 110.266ZM61.6006 110.846C61.6006 111.105 61.54 111.326 61.4189 111.508C61.2998 111.688 61.1377 111.824 60.9326 111.918C60.7295 112.012 60.5 112.059 60.2441 112.059C59.9883 112.059 59.7578 112.012 59.5527 111.918C59.3477 111.824 59.1855 111.688 59.0664 111.508C58.9473 111.326 58.8877 111.105 58.8877 110.846C58.8877 110.676 58.9199 110.521 58.9844 110.38C59.0508 110.237 59.1436 110.113 59.2627 110.008C59.3838 109.902 59.5264 109.821 59.6904 109.765C59.8564 109.706 60.0391 109.677 60.2383 109.677C60.5 109.677 60.7334 109.728 60.9385 109.829C61.1436 109.929 61.3047 110.066 61.4219 110.242C61.541 110.418 61.6006 110.619 61.6006 110.846ZM61.0557 110.834C61.0557 110.676 61.0215 110.536 60.9531 110.415C60.8848 110.292 60.7891 110.196 60.666 110.128C60.543 110.06 60.4004 110.025 60.2383 110.025C60.0723 110.025 59.9287 110.06 59.8076 110.128C59.6885 110.196 59.5957 110.292 59.5293 110.415C59.4629 110.536 59.4297 110.676 59.4297 110.834C59.4297 110.998 59.4619 111.139 59.5264 111.256C59.5928 111.371 59.6865 111.46 59.8076 111.522C59.9307 111.583 60.0762 111.613 60.2441 111.613C60.4121 111.613 60.5566 111.583 60.6777 111.522C60.7988 111.46 60.8916 111.371 60.9561 111.256C61.0225 111.139 61.0557 110.998 61.0557 110.834ZM61.501 108.845C61.501 109.052 61.4463 109.238 61.3369 109.404C61.2275 109.57 61.0781 109.701 60.8887 109.797C60.6992 109.893 60.4844 109.94 60.2441 109.94C60 109.94 59.7822 109.893 59.5908 109.797C59.4014 109.701 59.2529 109.57 59.1455 109.404C59.0381 109.238 58.9844 109.052 58.9844 108.845C58.9844 108.597 59.0381 108.386 59.1455 108.212C59.2549 108.038 59.4043 107.905 59.5938 107.813C59.7832 107.722 59.999 107.676 60.2412 107.676C60.4854 107.676 60.7021 107.722 60.8916 107.813C61.0811 107.905 61.2295 108.038 61.3369 108.212C61.4463 108.386 61.501 108.597 61.501 108.845ZM60.959 108.854C60.959 108.711 60.9287 108.585 60.8682 108.476C60.8076 108.366 60.7236 108.28 60.6162 108.218C60.5088 108.153 60.3838 108.121 60.2412 108.121C60.0986 108.121 59.9736 108.151 59.8662 108.212C59.7607 108.271 59.6777 108.354 59.6172 108.464C59.5586 108.573 59.5293 108.703 59.5293 108.854C59.5293 109 59.5586 109.128 59.6172 109.237C59.6777 109.347 59.7617 109.432 59.8691 109.492C59.9766 109.553 60.1016 109.583 60.2441 109.583C60.3867 109.583 60.5107 109.553 60.6162 109.492C60.7236 109.432 60.8076 109.347 60.8682 109.237C60.9287 109.128 60.959 109 60.959 108.854Z" fill="black"/>
<path d="M38.0166 180.227L38.5586 180.748H40V181.311H35.7344V180.748H37.8438L35.7344 178.853V178.173L37.6182 179.852L40 178.041V178.715L38.0166 180.227ZM38.4092 175.018V176.447H37.9668V175.018H38.4092ZM35.7314 170.928H36.1914V171.027C36.1992 171.449 36.3242 171.785 36.5664 172.035C36.8086 172.285 37.1494 172.43 37.5889 172.469C37.3311 172.244 37.2021 171.938 37.2021 171.549C37.2021 171.178 37.333 170.882 37.5947 170.661C37.8564 170.438 38.1943 170.327 38.6084 170.327C39.0479 170.327 39.3994 170.447 39.6631 170.688C39.9268 170.926 40.0586 171.246 40.0586 171.648C40.0586 172.057 39.9023 172.388 39.5898 172.642C39.2754 172.896 38.8711 173.022 38.377 173.022H38.1689C37.3838 173.022 36.7842 172.855 36.3701 172.521C35.9541 172.186 35.7412 171.687 35.7314 171.024V170.928ZM37.6533 171.64C37.6533 171.825 37.709 171.996 37.8203 172.152C37.9316 172.309 38.0713 172.417 38.2393 172.478H38.4385C38.79 172.478 39.0732 172.398 39.2881 172.24C39.5029 172.082 39.6104 171.885 39.6104 171.648C39.6104 171.404 39.5205 171.213 39.3408 171.074C39.1611 170.934 38.9258 170.863 38.6348 170.863C38.3418 170.863 38.1055 170.935 37.9258 171.077C37.7441 171.218 37.6533 171.405 37.6533 171.64ZM40 169.545H35.7344V168.15C35.7344 167.688 35.8301 167.34 36.0215 167.107C36.2129 166.873 36.4961 166.756 36.8711 166.756C37.0703 166.756 37.2471 166.812 37.4014 166.926C37.5537 167.039 37.6719 167.193 37.7559 167.389C37.8203 167.158 37.9434 166.977 38.125 166.844C38.3047 166.709 38.5195 166.642 38.7695 166.642C39.1523 166.642 39.4531 166.766 39.6719 167.014C39.8906 167.262 40 167.612 40 168.065V169.545ZM38.0049 168.982H39.54V168.054C39.54 167.792 39.4727 167.586 39.3379 167.436C39.2012 167.283 39.0137 167.207 38.7754 167.207C38.2617 167.207 38.0049 167.486 38.0049 168.045V168.982ZM37.5537 168.982V168.133C37.5537 167.887 37.4922 167.69 37.3691 167.544C37.2461 167.396 37.0791 167.321 36.8682 167.321C36.6338 167.321 36.4639 167.39 36.3584 167.526C36.251 167.663 36.1973 167.871 36.1973 168.15V168.982H37.5537ZM38.1807 163.272C38.8154 163.272 39.2871 163.381 39.5957 163.598C39.9043 163.814 40.0586 164.153 40.0586 164.614C40.0586 165.069 39.9082 165.406 39.6074 165.625C39.3047 165.844 38.8535 165.957 38.2539 165.965H37.5303C36.9033 165.965 36.4375 165.856 36.1328 165.64C35.8281 165.423 35.6758 165.083 35.6758 164.62C35.6758 164.161 35.8232 163.823 36.1182 163.606C36.4111 163.39 36.8643 163.278 37.4775 163.272H38.1807ZM37.4395 163.814C36.9805 163.814 36.6465 163.879 36.4375 164.008C36.2266 164.137 36.1211 164.341 36.1211 164.62C36.1211 164.897 36.2256 165.1 36.4346 165.227C36.6436 165.354 36.9648 165.419 37.3984 165.423H38.2656C38.7266 165.423 39.0674 165.356 39.2881 165.224C39.5068 165.089 39.6162 164.886 39.6162 164.614C39.6162 164.347 39.5127 164.148 39.3057 164.02C39.0986 163.889 38.7725 163.82 38.3271 163.814H37.4395ZM40 160.797V161.342H36.3877L36.7891 162.435H36.2969L35.7139 160.882V160.797H40ZM40 157.428V157.973H36.3877L36.7891 159.065H36.2969L35.7139 157.513V157.428H40Z" fill="black"/>
<path d="M129.939 83.1973H128.568V87H128.009V83.1973H126.641V82.7344H129.939V83.1973ZM131.51 87.0586C131.08 87.0586 130.73 86.918 130.461 86.6367C130.191 86.3535 130.057 85.9756 130.057 85.5029V85.4033C130.057 85.0889 130.116 84.8086 130.235 84.5625C130.356 84.3145 130.524 84.1211 130.739 83.9824C130.956 83.8418 131.19 83.7715 131.442 83.7715C131.854 83.7715 132.175 83.9072 132.403 84.1787C132.632 84.4502 132.746 84.8389 132.746 85.3447V85.5703H130.599C130.606 85.8828 130.697 86.1357 130.871 86.3291C131.047 86.5205 131.27 86.6162 131.539 86.6162C131.73 86.6162 131.893 86.5771 132.025 86.499C132.158 86.4209 132.274 86.3174 132.374 86.1885L132.705 86.4463C132.439 86.8545 132.041 87.0586 131.51 87.0586ZM131.442 84.2168C131.224 84.2168 131.04 84.2969 130.892 84.457C130.743 84.6152 130.651 84.8379 130.616 85.125H132.204V85.084C132.188 84.8086 132.114 84.5957 131.981 84.4453C131.849 84.293 131.669 84.2168 131.442 84.2168ZM134.908 84.3164C134.826 84.3027 134.737 84.2959 134.642 84.2959C134.286 84.2959 134.045 84.4473 133.918 84.75V87H133.376V83.8301H133.903L133.912 84.1963C134.09 83.9131 134.342 83.7715 134.668 83.7715C134.773 83.7715 134.854 83.7852 134.908 83.8125V84.3164ZM137.249 87C137.218 86.9375 137.192 86.8262 137.173 86.666C136.921 86.9277 136.62 87.0586 136.271 87.0586C135.958 87.0586 135.701 86.9707 135.5 86.7949C135.301 86.6172 135.201 86.3926 135.201 86.1211C135.201 85.791 135.326 85.5352 135.576 85.3535C135.828 85.1699 136.182 85.0781 136.637 85.0781H137.164V84.8291C137.164 84.6396 137.107 84.4893 136.994 84.3779C136.881 84.2646 136.714 84.208 136.493 84.208C136.3 84.208 136.138 84.2568 136.007 84.3545C135.876 84.4521 135.811 84.5703 135.811 84.709H135.266C135.266 84.5508 135.321 84.3984 135.433 84.252C135.546 84.1035 135.698 83.9863 135.89 83.9004C136.083 83.8145 136.295 83.7715 136.525 83.7715C136.891 83.7715 137.177 83.8633 137.384 84.0469C137.591 84.2285 137.698 84.4795 137.706 84.7998V86.2588C137.706 86.5498 137.743 86.7812 137.817 86.9531V87H137.249ZM136.35 86.5869C136.52 86.5869 136.681 86.543 136.833 86.4551C136.985 86.3672 137.096 86.2529 137.164 86.1123V85.4619H136.739C136.075 85.4619 135.743 85.6562 135.743 86.0449C135.743 86.2148 135.8 86.3477 135.913 86.4434C136.026 86.5391 136.172 86.5869 136.35 86.5869ZM140.401 86.1592C140.401 86.0127 140.346 85.8994 140.234 85.8193C140.125 85.7373 139.933 85.667 139.657 85.6084C139.384 85.5498 139.166 85.4795 139.004 85.3975C138.844 85.3154 138.725 85.2178 138.646 85.1045C138.57 84.9912 138.532 84.8564 138.532 84.7002C138.532 84.4404 138.642 84.2207 138.86 84.041C139.081 83.8613 139.362 83.7715 139.704 83.7715C140.063 83.7715 140.354 83.8643 140.577 84.0498C140.802 84.2354 140.914 84.4727 140.914 84.7617H140.369C140.369 84.6133 140.306 84.4854 140.179 84.3779C140.054 84.2705 139.896 84.2168 139.704 84.2168C139.507 84.2168 139.353 84.2598 139.241 84.3457C139.13 84.4316 139.074 84.5439 139.074 84.6826C139.074 84.8135 139.126 84.9121 139.229 84.9785C139.333 85.0449 139.52 85.1084 139.789 85.1689C140.061 85.2295 140.28 85.3018 140.448 85.3857C140.616 85.4697 140.74 85.5713 140.82 85.6904C140.902 85.8076 140.943 85.9512 140.943 86.1211C140.943 86.4043 140.83 86.6318 140.604 86.8037C140.377 86.9736 140.083 87.0586 139.722 87.0586C139.468 87.0586 139.243 87.0137 139.048 86.9238C138.853 86.834 138.699 86.709 138.588 86.5488C138.479 86.3867 138.424 86.2119 138.424 86.0244H138.966C138.976 86.2061 139.048 86.3506 139.183 86.458C139.319 86.5635 139.499 86.6162 139.722 86.6162C139.927 86.6162 140.091 86.5752 140.214 86.4932C140.339 86.4092 140.401 86.2979 140.401 86.1592ZM143.606 87C143.575 86.9375 143.55 86.8262 143.53 86.666C143.278 86.9277 142.978 87.0586 142.628 87.0586C142.315 87.0586 142.059 86.9707 141.857 86.7949C141.658 86.6172 141.559 86.3926 141.559 86.1211C141.559 85.791 141.684 85.5352 141.934 85.3535C142.186 85.1699 142.539 85.0781 142.994 85.0781H143.521V84.8291C143.521 84.6396 143.465 84.4893 143.352 84.3779C143.238 84.2646 143.071 84.208 142.851 84.208C142.657 84.208 142.495 84.2568 142.364 84.3545C142.233 84.4521 142.168 84.5703 142.168 84.709H141.623C141.623 84.5508 141.679 84.3984 141.79 84.252C141.903 84.1035 142.056 83.9863 142.247 83.9004C142.44 83.8145 142.652 83.7715 142.883 83.7715C143.248 83.7715 143.534 83.8633 143.741 84.0469C143.948 84.2285 144.056 84.4795 144.063 84.7998V86.2588C144.063 86.5498 144.101 86.7812 144.175 86.9531V87H143.606ZM142.707 86.5869C142.877 86.5869 143.038 86.543 143.19 86.4551C143.343 86.3672 143.453 86.2529 143.521 86.1123V85.4619H143.097C142.433 85.4619 142.101 85.6562 142.101 86.0449C142.101 86.2148 142.157 86.3477 142.271 86.4434C142.384 86.5391 142.529 86.5869 142.707 86.5869Z" fill="black"/>
<path d="M116.07 199.099C115.588 198.96 115.236 198.79 115.016 198.589C114.797 198.386 114.688 198.136 114.688 197.839C114.688 197.503 114.821 197.226 115.089 197.007C115.358 196.786 115.708 196.676 116.138 196.676C116.431 196.676 116.691 196.732 116.92 196.846C117.15 196.959 117.328 197.115 117.453 197.314C117.58 197.514 117.644 197.731 117.644 197.968H117.078C117.078 197.71 116.996 197.508 116.832 197.361C116.668 197.213 116.437 197.139 116.138 197.139C115.86 197.139 115.644 197.2 115.487 197.323C115.333 197.444 115.256 197.613 115.256 197.83C115.256 198.004 115.329 198.151 115.476 198.272C115.624 198.392 115.875 198.501 116.229 198.601C116.584 198.7 116.861 198.811 117.061 198.932C117.262 199.051 117.41 199.19 117.506 199.351C117.604 199.511 117.652 199.699 117.652 199.916C117.652 200.262 117.518 200.539 117.248 200.748C116.979 200.955 116.618 201.059 116.167 201.059C115.874 201.059 115.601 201.003 115.347 200.892C115.093 200.778 114.896 200.624 114.758 200.429C114.621 200.233 114.553 200.012 114.553 199.764H115.118C115.118 200.021 115.213 200.226 115.402 200.376C115.594 200.524 115.849 200.599 116.167 200.599C116.464 200.599 116.691 200.538 116.85 200.417C117.008 200.296 117.087 200.131 117.087 199.922C117.087 199.713 117.014 199.552 116.867 199.438C116.721 199.323 116.455 199.21 116.07 199.099ZM116.138 196.084L116.577 195.586H117.046V195.615L116.302 196.418H115.971L115.235 195.615V195.586H115.695L116.138 196.084ZM120.248 201C120.217 200.938 120.191 200.826 120.172 200.666C119.92 200.928 119.619 201.059 119.27 201.059C118.957 201.059 118.7 200.971 118.499 200.795C118.3 200.617 118.2 200.393 118.2 200.121C118.2 199.791 118.325 199.535 118.575 199.354C118.827 199.17 119.181 199.078 119.636 199.078H120.163V198.829C120.163 198.64 120.106 198.489 119.993 198.378C119.88 198.265 119.713 198.208 119.492 198.208C119.299 198.208 119.137 198.257 119.006 198.354C118.875 198.452 118.81 198.57 118.81 198.709H118.265C118.265 198.551 118.32 198.398 118.432 198.252C118.545 198.104 118.697 197.986 118.889 197.9C119.082 197.814 119.294 197.771 119.524 197.771C119.89 197.771 120.176 197.863 120.383 198.047C120.59 198.229 120.697 198.479 120.705 198.8V200.259C120.705 200.55 120.742 200.781 120.816 200.953V201H120.248ZM119.349 200.587C119.519 200.587 119.68 200.543 119.832 200.455C119.984 200.367 120.095 200.253 120.163 200.112V199.462H119.738C119.074 199.462 118.742 199.656 118.742 200.045C118.742 200.215 118.799 200.348 118.912 200.443C119.025 200.539 119.171 200.587 119.349 200.587ZM122.29 197.062V197.83H122.882V198.249H122.29V200.215C122.29 200.342 122.316 200.438 122.369 200.502C122.422 200.564 122.512 200.596 122.639 200.596C122.701 200.596 122.787 200.584 122.896 200.561V201C122.754 201.039 122.615 201.059 122.48 201.059C122.238 201.059 122.056 200.985 121.933 200.839C121.81 200.692 121.748 200.484 121.748 200.215V198.249H121.171V197.83H121.748V197.062H122.29ZM124.03 197.83L124.048 198.229C124.29 197.924 124.606 197.771 124.997 197.771C125.667 197.771 126.005 198.149 126.011 198.905V201H125.469V198.902C125.467 198.674 125.414 198.505 125.311 198.396C125.209 198.286 125.05 198.231 124.833 198.231C124.657 198.231 124.503 198.278 124.37 198.372C124.237 198.466 124.134 198.589 124.06 198.741V201H123.518V197.83H124.03ZM124.78 196.998L125.22 196.5H125.688V196.529L124.944 197.332H124.613L123.878 196.529V196.5H124.338L124.78 196.998ZM128.785 201C128.754 200.938 128.729 200.826 128.709 200.666C128.457 200.928 128.156 201.059 127.807 201.059C127.494 201.059 127.237 200.971 127.036 200.795C126.837 200.617 126.737 200.393 126.737 200.121C126.737 199.791 126.862 199.535 127.112 199.354C127.364 199.17 127.718 199.078 128.173 199.078H128.7V198.829C128.7 198.64 128.644 198.489 128.53 198.378C128.417 198.265 128.25 198.208 128.029 198.208C127.836 198.208 127.674 198.257 127.543 198.354C127.412 198.452 127.347 198.57 127.347 198.709H126.802C126.802 198.551 126.857 198.398 126.969 198.252C127.082 198.104 127.234 197.986 127.426 197.9C127.619 197.814 127.831 197.771 128.062 197.771C128.427 197.771 128.713 197.863 128.92 198.047C129.127 198.229 129.234 198.479 129.242 198.8V200.259C129.242 200.55 129.279 200.781 129.354 200.953V201H128.785ZM127.886 200.587C128.056 200.587 128.217 200.543 128.369 200.455C128.521 200.367 128.632 200.253 128.7 200.112V199.462H128.275C127.611 199.462 127.279 199.656 127.279 200.045C127.279 200.215 127.336 200.348 127.449 200.443C127.562 200.539 127.708 200.587 127.886 200.587Z" fill="black"/>
<path d="M54.2979 162.655L54.3799 163.218L54.5 162.711L55.3438 159.734H55.8184L56.6416 162.711L56.7588 163.227L56.8496 162.652L57.5117 159.734H58.0771L57.043 164H56.5303L55.6514 160.892L55.584 160.566L55.5166 160.892L54.6055 164H54.0928L53.0615 159.734H53.624L54.2979 162.655ZM61.8418 162.646C61.7891 163.098 61.6221 163.446 61.3408 163.692C61.0615 163.937 60.6895 164.059 60.2246 164.059C59.7207 164.059 59.3164 163.878 59.0117 163.517C58.709 163.155 58.5576 162.672 58.5576 162.066V161.656C58.5576 161.26 58.6279 160.911 58.7686 160.61C58.9111 160.31 59.1123 160.079 59.3721 159.919C59.6318 159.757 59.9326 159.676 60.2744 159.676C60.7275 159.676 61.0908 159.803 61.3643 160.057C61.6377 160.309 61.7969 160.658 61.8418 161.105H61.2764C61.2275 160.766 61.1211 160.52 60.957 160.367C60.7949 160.215 60.5674 160.139 60.2744 160.139C59.915 160.139 59.6328 160.271 59.4277 160.537C59.2246 160.803 59.123 161.181 59.123 161.671V162.084C59.123 162.547 59.2197 162.915 59.4131 163.188C59.6064 163.462 59.877 163.599 60.2246 163.599C60.5371 163.599 60.7764 163.528 60.9424 163.388C61.1104 163.245 61.2217 162.998 61.2764 162.646H61.8418Z" fill="black"/>
<path d="M143.298 224.655L143.38 225.218L143.5 224.711L144.344 221.734H144.818L145.642 224.711L145.759 225.227L145.85 224.652L146.512 221.734H147.077L146.043 226H145.53L144.651 222.892L144.584 222.566L144.517 222.892L143.605 226H143.093L142.062 221.734H142.624L143.298 224.655ZM150.842 224.646C150.789 225.098 150.622 225.446 150.341 225.692C150.062 225.937 149.689 226.059 149.225 226.059C148.721 226.059 148.316 225.878 148.012 225.517C147.709 225.155 147.558 224.672 147.558 224.066V223.656C147.558 223.26 147.628 222.911 147.769 222.61C147.911 222.31 148.112 222.079 148.372 221.919C148.632 221.757 148.933 221.676 149.274 221.676C149.728 221.676 150.091 221.803 150.364 222.057C150.638 222.309 150.797 222.658 150.842 223.105H150.276C150.228 222.766 150.121 222.52 149.957 222.367C149.795 222.215 149.567 222.139 149.274 222.139C148.915 222.139 148.633 222.271 148.428 222.537C148.225 222.803 148.123 223.181 148.123 223.671V224.084C148.123 224.547 148.22 224.915 148.413 225.188C148.606 225.462 148.877 225.599 149.225 225.599C149.537 225.599 149.776 225.528 149.942 225.388C150.11 225.245 150.222 224.998 150.276 224.646H150.842Z" fill="black"/>
<path d="M128.741 133V128.734H129.945C130.316 128.734 130.645 128.816 130.93 128.98C131.215 129.145 131.435 129.378 131.589 129.681C131.745 129.983 131.824 130.331 131.826 130.724V130.996C131.826 131.398 131.748 131.751 131.592 132.054C131.438 132.356 131.216 132.589 130.927 132.751C130.64 132.913 130.305 132.996 129.922 133H128.741ZM129.304 129.197V132.54H129.896C130.329 132.54 130.666 132.405 130.906 132.136C131.148 131.866 131.27 131.482 131.27 130.984V130.735C131.27 130.251 131.155 129.875 130.927 129.607C130.7 129.338 130.378 129.201 129.96 129.197H129.304ZM134.243 131.274H133.241V133H132.676V128.734H134.088C134.568 128.734 134.938 128.844 135.195 129.062C135.455 129.281 135.585 129.6 135.585 130.018C135.585 130.283 135.513 130.515 135.368 130.712C135.226 130.909 135.026 131.057 134.771 131.154L135.772 132.965V133H135.169L134.243 131.274ZM133.241 130.814H134.105C134.385 130.814 134.606 130.742 134.771 130.598C134.937 130.453 135.02 130.26 135.02 130.018C135.02 129.754 134.94 129.552 134.782 129.411C134.626 129.271 134.399 129.199 134.103 129.197H133.241V130.814ZM136.979 133H136.417V128.734H136.979V133ZM138.737 128.734L140.132 132.215L141.526 128.734H142.256V133H141.693V131.339L141.746 129.546L140.346 133H139.915L138.518 129.555L138.573 131.339V133H138.011V128.734H138.737ZM131.059 135.731V136.191H130.959C130.537 136.199 130.201 136.324 129.951 136.566C129.701 136.809 129.557 137.149 129.518 137.589C129.742 137.331 130.049 137.202 130.438 137.202C130.809 137.202 131.104 137.333 131.325 137.595C131.548 137.856 131.659 138.194 131.659 138.608C131.659 139.048 131.539 139.399 131.299 139.663C131.061 139.927 130.74 140.059 130.338 140.059C129.93 140.059 129.599 139.902 129.345 139.59C129.091 139.275 128.964 138.871 128.964 138.377V138.169C128.964 137.384 129.131 136.784 129.465 136.37C129.801 135.954 130.3 135.741 130.962 135.731H131.059ZM130.347 137.653C130.161 137.653 129.99 137.709 129.834 137.82C129.678 137.932 129.569 138.071 129.509 138.239V138.438C129.509 138.79 129.588 139.073 129.746 139.288C129.904 139.503 130.102 139.61 130.338 139.61C130.582 139.61 130.773 139.521 130.912 139.341C131.053 139.161 131.123 138.926 131.123 138.635C131.123 138.342 131.052 138.105 130.909 137.926C130.769 137.744 130.581 137.653 130.347 137.653ZM132.441 140V135.734H133.836C134.299 135.734 134.646 135.83 134.879 136.021C135.113 136.213 135.23 136.496 135.23 136.871C135.23 137.07 135.174 137.247 135.061 137.401C134.947 137.554 134.793 137.672 134.598 137.756C134.828 137.82 135.01 137.943 135.143 138.125C135.277 138.305 135.345 138.52 135.345 138.77C135.345 139.152 135.221 139.453 134.973 139.672C134.725 139.891 134.374 140 133.921 140H132.441ZM133.004 138.005V139.54H133.933C134.194 139.54 134.4 139.473 134.551 139.338C134.703 139.201 134.779 139.014 134.779 138.775C134.779 138.262 134.5 138.005 133.941 138.005H133.004ZM133.004 137.554H133.854C134.1 137.554 134.296 137.492 134.442 137.369C134.591 137.246 134.665 137.079 134.665 136.868C134.665 136.634 134.597 136.464 134.46 136.358C134.323 136.251 134.115 136.197 133.836 136.197H133.004V137.554ZM138.714 138.181C138.714 138.815 138.605 139.287 138.389 139.596C138.172 139.904 137.833 140.059 137.372 140.059C136.917 140.059 136.58 139.908 136.361 139.607C136.143 139.305 136.029 138.854 136.021 138.254V137.53C136.021 136.903 136.13 136.438 136.347 136.133C136.563 135.828 136.903 135.676 137.366 135.676C137.825 135.676 138.163 135.823 138.38 136.118C138.597 136.411 138.708 136.864 138.714 137.478V138.181ZM138.172 137.439C138.172 136.98 138.107 136.646 137.979 136.438C137.85 136.227 137.646 136.121 137.366 136.121C137.089 136.121 136.887 136.226 136.76 136.435C136.633 136.644 136.567 136.965 136.563 137.398V138.266C136.563 138.727 136.63 139.067 136.763 139.288C136.897 139.507 137.101 139.616 137.372 139.616C137.64 139.616 137.838 139.513 137.967 139.306C138.098 139.099 138.166 138.772 138.172 138.327V137.439ZM139.657 137.861L139.874 135.734H142.06V136.235H140.334L140.205 137.398C140.414 137.275 140.651 137.214 140.917 137.214C141.306 137.214 141.614 137.343 141.843 137.601C142.071 137.856 142.186 138.203 142.186 138.641C142.186 139.08 142.066 139.427 141.828 139.681C141.592 139.933 141.261 140.059 140.835 140.059C140.458 140.059 140.15 139.954 139.912 139.745C139.674 139.536 139.538 139.247 139.505 138.878H140.018C140.051 139.122 140.138 139.307 140.278 139.432C140.419 139.555 140.604 139.616 140.835 139.616C141.087 139.616 141.284 139.53 141.427 139.358C141.571 139.187 141.644 138.949 141.644 138.646C141.644 138.361 141.565 138.133 141.409 137.961C141.255 137.787 141.049 137.7 140.791 137.7C140.555 137.7 140.369 137.752 140.234 137.855L140.091 137.973L139.657 137.861Z" fill="black"/>
</svg>
