<svg width="210" height="297" viewBox="0 0 210 297" fill="none" xmlns="http://www.w3.org/2000/svg">
<path d="M47.2305 106V101.734H48.4346C48.8057 101.734 49.1338 101.816 49.4189 101.98C49.7041 102.145 49.9238 102.378 50.0781 102.681C50.2344 102.983 50.3135 103.331 50.3154 103.724V103.996C50.3154 104.398 50.2373 104.751 50.0811 105.054C49.9268 105.356 49.7051 105.589 49.416 105.751C49.1289 105.913 48.7939 105.996 48.4111 106H47.2305ZM47.793 102.197V105.54H48.3848C48.8184 105.54 49.1553 105.405 49.3955 105.136C49.6377 104.866 49.7588 104.482 49.7588 103.984V103.735C49.7588 103.251 49.6445 102.875 49.416 102.607C49.1895 102.338 48.8672 102.201 48.4492 102.197H47.793ZM51.8945 101.734L53.2891 105.215L54.6836 101.734H55.4131V106H54.8506V104.339L54.9033 102.546L53.5029 106H53.0723L51.6748 102.555L51.7305 104.339V106H51.168V101.734H51.8945ZM59.6875 104.005C59.6875 104.423 59.6172 104.788 59.4766 105.101C59.3359 105.411 59.1367 105.648 58.8789 105.812C58.6211 105.977 58.3203 106.059 57.9766 106.059C57.6406 106.059 57.3428 105.977 57.083 105.812C56.8232 105.646 56.6211 105.411 56.4766 105.106C56.334 104.8 56.2607 104.445 56.2568 104.043V103.735C56.2568 103.325 56.3281 102.963 56.4707 102.648C56.6133 102.334 56.8145 102.094 57.0742 101.928C57.3359 101.76 57.6348 101.676 57.9707 101.676C58.3125 101.676 58.6133 101.759 58.873 101.925C59.1348 102.089 59.3359 102.328 59.4766 102.643C59.6172 102.955 59.6875 103.319 59.6875 103.735V104.005ZM59.1279 103.729C59.1279 103.224 59.0264 102.836 58.8232 102.566C58.6201 102.295 58.3359 102.159 57.9707 102.159C57.6152 102.159 57.335 102.295 57.1299 102.566C56.9268 102.836 56.8223 103.211 56.8164 103.691V104.005C56.8164 104.495 56.9189 104.881 57.124 105.162C57.3311 105.441 57.6152 105.581 57.9766 105.581C58.3398 105.581 58.6211 105.449 58.8203 105.186C59.0195 104.92 59.1221 104.54 59.1279 104.046V103.729ZM61.0967 105.54H63.1182V106H60.5312V101.734H61.0967V105.54ZM48.874 108.731V109.191H48.7744C48.3525 109.199 48.0166 109.324 47.7666 109.566C47.5166 109.809 47.3721 110.149 47.333 110.589C47.5576 110.331 47.8643 110.202 48.2529 110.202C48.624 110.202 48.9199 110.333 49.1406 110.595C49.3633 110.856 49.4746 111.194 49.4746 111.608C49.4746 112.048 49.3545 112.399 49.1143 112.663C48.876 112.927 48.5557 113.059 48.1533 113.059C47.7451 113.059 47.4141 112.902 47.1602 112.59C46.9062 112.275 46.7793 111.871 46.7793 111.377V111.169C46.7793 110.384 46.9463 109.784 47.2803 109.37C47.6162 108.954 48.1152 108.741 48.7773 108.731H48.874ZM48.1621 110.653C47.9766 110.653 47.8057 110.709 47.6494 110.82C47.4932 110.932 47.3848 111.071 47.3242 111.239V111.438C47.3242 111.79 47.4033 112.073 47.5615 112.288C47.7197 112.503 47.917 112.61 48.1533 112.61C48.3975 112.61 48.5889 112.521 48.7275 112.341C48.8682 112.161 48.9385 111.926 48.9385 111.635C48.9385 111.342 48.8672 111.105 48.7246 110.926C48.584 110.744 48.3965 110.653 48.1621 110.653ZM50.2568 113V108.734H51.6514C52.1143 108.734 52.4619 108.83 52.6943 109.021C52.9287 109.213 53.0459 109.496 53.0459 109.871C53.0459 110.07 52.9893 110.247 52.876 110.401C52.7627 110.554 52.6084 110.672 52.4131 110.756C52.6436 110.82 52.8252 110.943 52.958 111.125C53.0928 111.305 53.1602 111.52 53.1602 111.77C53.1602 112.152 53.0361 112.453 52.7881 112.672C52.54 112.891 52.1895 113 51.7363 113H50.2568ZM50.8193 111.005V112.54H51.748C52.0098 112.54 52.2158 112.473 52.3662 112.338C52.5186 112.201 52.5947 112.014 52.5947 111.775C52.5947 111.262 52.3154 111.005 51.7568 111.005H50.8193ZM50.8193 110.554H51.6689C51.915 110.554 52.1113 110.492 52.2578 110.369C52.4062 110.246 52.4805 110.079 52.4805 109.868C52.4805 109.634 52.4121 109.464 52.2754 109.358C52.1387 109.251 51.9307 109.197 51.6514 109.197H50.8193V110.554ZM55.6357 113H55.0908V109.388L53.998 109.789V109.297L55.5508 108.714H55.6357V113ZM59.8984 111.181C59.8984 111.815 59.79 112.287 59.5732 112.596C59.3564 112.904 59.0176 113.059 58.5566 113.059C58.1016 113.059 57.7646 112.908 57.5459 112.607C57.3271 112.305 57.2139 111.854 57.2061 111.254V110.53C57.2061 109.903 57.3145 109.438 57.5312 109.133C57.748 108.828 58.0879 108.676 58.5508 108.676C59.0098 108.676 59.3477 108.823 59.5645 109.118C59.7812 109.411 59.8926 109.864 59.8984 110.478V111.181ZM59.3564 110.439C59.3564 109.98 59.292 109.646 59.1631 109.438C59.0342 109.227 58.8301 109.121 58.5508 109.121C58.2734 109.121 58.0713 109.226 57.9443 109.435C57.8174 109.644 57.752 109.965 57.748 110.398V111.266C57.748 111.727 57.8145 112.067 57.9473 112.288C58.082 112.507 58.2852 112.616 58.5566 112.616C58.8242 112.616 59.0225 112.513 59.1514 112.306C59.2822 112.099 59.3506 111.772 59.3564 111.327V110.439ZM62.7197 108.731V109.191H62.6201C62.1982 109.199 61.8623 109.324 61.6123 109.566C61.3623 109.809 61.2178 110.149 61.1787 110.589C61.4033 110.331 61.71 110.202 62.0986 110.202C62.4697 110.202 62.7656 110.333 62.9863 110.595C63.209 110.856 63.3203 111.194 63.3203 111.608C63.3203 112.048 63.2002 112.399 62.96 112.663C62.7217 112.927 62.4014 113.059 61.999 113.059C61.5908 113.059 61.2598 112.902 61.0059 112.59C60.752 112.275 60.625 111.871 60.625 111.377V111.169C60.625 110.384 60.792 109.784 61.126 109.37C61.4619 108.954 61.9609 108.741 62.623 108.731H62.7197ZM62.0078 110.653C61.8223 110.653 61.6514 110.709 61.4951 110.82C61.3389 110.932 61.2305 111.071 61.1699 111.239V111.438C61.1699 111.79 61.249 112.073 61.4072 112.288C61.5654 112.503 61.7627 112.61 61.999 112.61C62.2432 112.61 62.4346 112.521 62.5732 112.341C62.7139 112.161 62.7842 111.926 62.7842 111.635C62.7842 111.342 62.7129 111.105 62.5703 110.926C62.4297 110.744 62.2422 110.653 62.0078 110.653Z" fill="black"/>
<path d="M128.939 83.1973H127.568V87H127.009V83.1973H125.641V82.7344H128.939V83.1973ZM130.51 87.0586C130.08 87.0586 129.73 86.918 129.461 86.6367C129.191 86.3535 129.057 85.9756 129.057 85.5029V85.4033C129.057 85.0889 129.116 84.8086 129.235 84.5625C129.356 84.3145 129.524 84.1211 129.739 83.9824C129.956 83.8418 130.19 83.7715 130.442 83.7715C130.854 83.7715 131.175 83.9072 131.403 84.1787C131.632 84.4502 131.746 84.8389 131.746 85.3447V85.5703H129.599C129.606 85.8828 129.697 86.1357 129.871 86.3291C130.047 86.5205 130.27 86.6162 130.539 86.6162C130.73 86.6162 130.893 86.5771 131.025 86.499C131.158 86.4209 131.274 86.3174 131.374 86.1885L131.705 86.4463C131.439 86.8545 131.041 87.0586 130.51 87.0586ZM130.442 84.2168C130.224 84.2168 130.04 84.2969 129.892 84.457C129.743 84.6152 129.651 84.8379 129.616 85.125H131.204V85.084C131.188 84.8086 131.114 84.5957 130.981 84.4453C130.849 84.293 130.669 84.2168 130.442 84.2168ZM133.908 84.3164C133.826 84.3027 133.737 84.2959 133.642 84.2959C133.286 84.2959 133.045 84.4473 132.918 84.75V87H132.376V83.8301H132.903L132.912 84.1963C133.09 83.9131 133.342 83.7715 133.668 83.7715C133.773 83.7715 133.854 83.7852 133.908 83.8125V84.3164ZM136.249 87C136.218 86.9375 136.192 86.8262 136.173 86.666C135.921 86.9277 135.62 87.0586 135.271 87.0586C134.958 87.0586 134.701 86.9707 134.5 86.7949C134.301 86.6172 134.201 86.3926 134.201 86.1211C134.201 85.791 134.326 85.5352 134.576 85.3535C134.828 85.1699 135.182 85.0781 135.637 85.0781H136.164V84.8291C136.164 84.6396 136.107 84.4893 135.994 84.3779C135.881 84.2646 135.714 84.208 135.493 84.208C135.3 84.208 135.138 84.2568 135.007 84.3545C134.876 84.4521 134.811 84.5703 134.811 84.709H134.266C134.266 84.5508 134.321 84.3984 134.433 84.252C134.546 84.1035 134.698 83.9863 134.89 83.9004C135.083 83.8145 135.295 83.7715 135.525 83.7715C135.891 83.7715 136.177 83.8633 136.384 84.0469C136.591 84.2285 136.698 84.4795 136.706 84.7998V86.2588C136.706 86.5498 136.743 86.7812 136.817 86.9531V87H136.249ZM135.35 86.5869C135.52 86.5869 135.681 86.543 135.833 86.4551C135.985 86.3672 136.096 86.2529 136.164 86.1123V85.4619H135.739C135.075 85.4619 134.743 85.6562 134.743 86.0449C134.743 86.2148 134.8 86.3477 134.913 86.4434C135.026 86.5391 135.172 86.5869 135.35 86.5869ZM139.401 86.1592C139.401 86.0127 139.346 85.8994 139.234 85.8193C139.125 85.7373 138.933 85.667 138.657 85.6084C138.384 85.5498 138.166 85.4795 138.004 85.3975C137.844 85.3154 137.725 85.2178 137.646 85.1045C137.57 84.9912 137.532 84.8564 137.532 84.7002C137.532 84.4404 137.642 84.2207 137.86 84.041C138.081 83.8613 138.362 83.7715 138.704 83.7715C139.063 83.7715 139.354 83.8643 139.577 84.0498C139.802 84.2354 139.914 84.4727 139.914 84.7617H139.369C139.369 84.6133 139.306 84.4854 139.179 84.3779C139.054 84.2705 138.896 84.2168 138.704 84.2168C138.507 84.2168 138.353 84.2598 138.241 84.3457C138.13 84.4316 138.074 84.5439 138.074 84.6826C138.074 84.8135 138.126 84.9121 138.229 84.9785C138.333 85.0449 138.52 85.1084 138.789 85.1689C139.061 85.2295 139.28 85.3018 139.448 85.3857C139.616 85.4697 139.74 85.5713 139.82 85.6904C139.902 85.8076 139.943 85.9512 139.943 86.1211C139.943 86.4043 139.83 86.6318 139.604 86.8037C139.377 86.9736 139.083 87.0586 138.722 87.0586C138.468 87.0586 138.243 87.0137 138.048 86.9238C137.853 86.834 137.699 86.709 137.588 86.5488C137.479 86.3867 137.424 86.2119 137.424 86.0244H137.966C137.976 86.2061 138.048 86.3506 138.183 86.458C138.319 86.5635 138.499 86.6162 138.722 86.6162C138.927 86.6162 139.091 86.5752 139.214 86.4932C139.339 86.4092 139.401 86.2979 139.401 86.1592ZM142.606 87C142.575 86.9375 142.55 86.8262 142.53 86.666C142.278 86.9277 141.978 87.0586 141.628 87.0586C141.315 87.0586 141.059 86.9707 140.857 86.7949C140.658 86.6172 140.559 86.3926 140.559 86.1211C140.559 85.791 140.684 85.5352 140.934 85.3535C141.186 85.1699 141.539 85.0781 141.994 85.0781H142.521V84.8291C142.521 84.6396 142.465 84.4893 142.352 84.3779C142.238 84.2646 142.071 84.208 141.851 84.208C141.657 84.208 141.495 84.2568 141.364 84.3545C141.233 84.4521 141.168 84.5703 141.168 84.709H140.623C140.623 84.5508 140.679 84.3984 140.79 84.252C140.903 84.1035 141.056 83.9863 141.247 83.9004C141.44 83.8145 141.652 83.7715 141.883 83.7715C142.248 83.7715 142.534 83.8633 142.741 84.0469C142.948 84.2285 143.056 84.4795 143.063 84.7998V86.2588C143.063 86.5498 143.101 86.7812 143.175 86.9531V87H142.606ZM141.707 86.5869C141.877 86.5869 142.038 86.543 142.19 86.4551C142.343 86.3672 142.453 86.2529 142.521 86.1123V85.4619H142.097C141.433 85.4619 141.101 85.6562 141.101 86.0449C141.101 86.2148 141.157 86.3477 141.271 86.4434C141.384 86.5391 141.529 86.5869 141.707 86.5869Z" fill="black"/>
<path d="M112.628 197.734V200.635C112.626 201.037 112.499 201.366 112.247 201.622C111.997 201.878 111.657 202.021 111.228 202.053L111.078 202.059C110.611 202.059 110.239 201.933 109.962 201.681C109.685 201.429 109.544 201.082 109.54 200.641V197.734H110.097V200.623C110.097 200.932 110.182 201.172 110.352 201.344C110.521 201.514 110.764 201.599 111.078 201.599C111.396 201.599 111.64 201.514 111.808 201.344C111.978 201.174 112.062 200.935 112.062 200.626V197.734H112.628ZM116.047 200.409H114.617V199.967H116.047V200.409ZM120.137 197.731V198.191H120.037C119.615 198.199 119.279 198.324 119.029 198.566C118.779 198.809 118.635 199.149 118.596 199.589C118.82 199.331 119.127 199.202 119.516 199.202C119.887 199.202 120.183 199.333 120.403 199.595C120.626 199.856 120.737 200.194 120.737 200.608C120.737 201.048 120.617 201.399 120.377 201.663C120.139 201.927 119.818 202.059 119.416 202.059C119.008 202.059 118.677 201.902 118.423 201.59C118.169 201.275 118.042 200.871 118.042 200.377V200.169C118.042 199.384 118.209 198.784 118.543 198.37C118.879 197.954 119.378 197.741 120.04 197.731H120.137ZM119.425 199.653C119.239 199.653 119.068 199.709 118.912 199.82C118.756 199.932 118.647 200.071 118.587 200.239V200.438C118.587 200.79 118.666 201.073 118.824 201.288C118.982 201.503 119.18 201.61 119.416 201.61C119.66 201.61 119.852 201.521 119.99 201.341C120.131 201.161 120.201 200.926 120.201 200.635C120.201 200.342 120.13 200.105 119.987 199.926C119.847 199.744 119.659 199.653 119.425 199.653ZM121.52 202V197.734H122.914C123.377 197.734 123.725 197.83 123.957 198.021C124.191 198.213 124.309 198.496 124.309 198.871C124.309 199.07 124.252 199.247 124.139 199.401C124.025 199.554 123.871 199.672 123.676 199.756C123.906 199.82 124.088 199.943 124.221 200.125C124.355 200.305 124.423 200.52 124.423 200.77C124.423 201.152 124.299 201.453 124.051 201.672C123.803 201.891 123.452 202 122.999 202H121.52ZM122.082 200.005V201.54H123.011C123.272 201.54 123.479 201.473 123.629 201.338C123.781 201.201 123.857 201.014 123.857 200.775C123.857 200.262 123.578 200.005 123.02 200.005H122.082ZM122.082 199.554H122.932C123.178 199.554 123.374 199.492 123.521 199.369C123.669 199.246 123.743 199.079 123.743 198.868C123.743 198.634 123.675 198.464 123.538 198.358C123.401 198.251 123.193 198.197 122.914 198.197H122.082V199.554ZM126.898 202H126.354V198.388L125.261 198.789V198.297L126.813 197.714H126.898V202ZM131.161 200.181C131.161 200.815 131.053 201.287 130.836 201.596C130.619 201.904 130.28 202.059 129.819 202.059C129.364 202.059 129.027 201.908 128.809 201.607C128.59 201.305 128.477 200.854 128.469 200.254V199.53C128.469 198.903 128.577 198.438 128.794 198.133C129.011 197.828 129.351 197.676 129.813 197.676C130.272 197.676 130.61 197.823 130.827 198.118C131.044 198.411 131.155 198.864 131.161 199.478V200.181ZM130.619 199.439C130.619 198.98 130.555 198.646 130.426 198.438C130.297 198.227 130.093 198.121 129.813 198.121C129.536 198.121 129.334 198.226 129.207 198.435C129.08 198.644 129.015 198.965 129.011 199.398V200.266C129.011 200.727 129.077 201.067 129.21 201.288C129.345 201.507 129.548 201.616 129.819 201.616C130.087 201.616 130.285 201.513 130.414 201.306C130.545 201.099 130.613 200.772 130.619 200.327V199.439ZM133.637 202H133.092V198.388L131.999 198.789V198.297L133.552 197.714H133.637V202Z" fill="black"/>
<path d="M143.298 224.655L143.38 225.218L143.5 224.711L144.344 221.734H144.818L145.642 224.711L145.759 225.227L145.85 224.652L146.512 221.734H147.077L146.043 226H145.53L144.651 222.892L144.584 222.566L144.517 222.892L143.605 226H143.093L142.062 221.734H142.624L143.298 224.655ZM150.842 224.646C150.789 225.098 150.622 225.446 150.341 225.692C150.062 225.937 149.689 226.059 149.225 226.059C148.721 226.059 148.316 225.878 148.012 225.517C147.709 225.155 147.558 224.672 147.558 224.066V223.656C147.558 223.26 147.628 222.911 147.769 222.61C147.911 222.31 148.112 222.079 148.372 221.919C148.632 221.757 148.933 221.676 149.274 221.676C149.728 221.676 150.091 221.803 150.364 222.057C150.638 222.309 150.797 222.658 150.842 223.105H150.276C150.228 222.766 150.121 222.52 149.957 222.367C149.795 222.215 149.567 222.139 149.274 222.139C148.915 222.139 148.633 222.271 148.428 222.537C148.225 222.803 148.123 223.181 148.123 223.671V224.084C148.123 224.547 148.22 224.915 148.413 225.188C148.606 225.462 148.877 225.599 149.225 225.599C149.537 225.599 149.776 225.528 149.942 225.388C150.11 225.245 150.222 224.998 150.276 224.646H150.842Z" fill="black"/>
<path d="M128.162 133V128.734H129.366C129.737 128.734 130.065 128.816 130.351 128.98C130.636 129.145 130.855 129.378 131.01 129.681C131.166 129.983 131.245 130.331 131.247 130.724V130.996C131.247 131.398 131.169 131.751 131.013 132.054C130.858 132.356 130.637 132.589 130.348 132.751C130.061 132.913 129.726 132.996 129.343 133H128.162ZM128.725 129.197V132.54H129.316C129.75 132.54 130.087 132.405 130.327 132.136C130.569 131.866 130.69 131.482 130.69 130.984V130.735C130.69 130.251 130.576 129.875 130.348 129.607C130.121 129.338 129.799 129.201 129.381 129.197H128.725ZM135.249 132.44C135.104 132.647 134.902 132.803 134.643 132.906C134.385 133.008 134.084 133.059 133.74 133.059C133.393 133.059 133.084 132.978 132.814 132.815C132.545 132.651 132.336 132.419 132.188 132.118C132.041 131.817 131.966 131.469 131.962 131.072V130.7C131.962 130.058 132.111 129.56 132.41 129.206C132.711 128.853 133.133 128.676 133.676 128.676C134.121 128.676 134.479 128.79 134.751 129.019C135.022 129.245 135.188 129.567 135.249 129.985H134.687C134.581 129.421 134.245 129.139 133.679 129.139C133.302 129.139 133.016 129.271 132.82 129.537C132.627 129.801 132.529 130.184 132.527 130.686V131.034C132.527 131.513 132.637 131.894 132.855 132.177C133.074 132.458 133.37 132.599 133.743 132.599C133.954 132.599 134.139 132.575 134.297 132.528C134.455 132.481 134.586 132.402 134.689 132.291V131.333H133.702V130.876H135.249V132.44ZM138.601 131.028H136.752V132.54H138.899V133H136.189V128.734H138.87V129.197H136.752V130.568H138.601V131.028ZM140.165 132.54H142.187V133H139.6V128.734H140.165V132.54ZM128.874 135.731V136.191H128.774C128.353 136.199 128.017 136.324 127.767 136.566C127.517 136.809 127.372 137.149 127.333 137.589C127.558 137.331 127.864 137.202 128.253 137.202C128.624 137.202 128.92 137.333 129.141 137.595C129.363 137.856 129.475 138.194 129.475 138.608C129.475 139.048 129.354 139.399 129.114 139.663C128.876 139.927 128.556 140.059 128.153 140.059C127.745 140.059 127.414 139.902 127.16 139.59C126.906 139.275 126.779 138.871 126.779 138.377V138.169C126.779 137.384 126.946 136.784 127.28 136.37C127.616 135.954 128.115 135.741 128.777 135.731H128.874ZM128.162 137.653C127.977 137.653 127.806 137.709 127.649 137.82C127.493 137.932 127.385 138.071 127.324 138.239V138.438C127.324 138.79 127.403 139.073 127.562 139.288C127.72 139.503 127.917 139.61 128.153 139.61C128.397 139.61 128.589 139.521 128.728 139.341C128.868 139.161 128.938 138.926 128.938 138.635C128.938 138.342 128.867 138.105 128.725 137.926C128.584 137.744 128.396 137.653 128.162 137.653ZM130.257 140V135.734H131.651C132.114 135.734 132.462 135.83 132.694 136.021C132.929 136.213 133.046 136.496 133.046 136.871C133.046 137.07 132.989 137.247 132.876 137.401C132.763 137.554 132.608 137.672 132.413 137.756C132.644 137.82 132.825 137.943 132.958 138.125C133.093 138.305 133.16 138.52 133.16 138.77C133.16 139.152 133.036 139.453 132.788 139.672C132.54 139.891 132.189 140 131.736 140H130.257ZM130.819 138.005V139.54H131.748C132.01 139.54 132.216 139.473 132.366 139.338C132.519 139.201 132.595 139.014 132.595 138.775C132.595 138.262 132.315 138.005 131.757 138.005H130.819ZM130.819 137.554H131.669C131.915 137.554 132.111 137.492 132.258 137.369C132.406 137.246 132.48 137.079 132.48 136.868C132.48 136.634 132.412 136.464 132.275 136.358C132.139 136.251 131.931 136.197 131.651 136.197H130.819V137.554ZM135.636 140H135.091V136.388L133.998 136.789V136.297L135.551 135.714H135.636V140ZM139.898 138.181C139.898 138.815 139.79 139.287 139.573 139.596C139.356 139.904 139.018 140.059 138.557 140.059C138.102 140.059 137.765 139.908 137.546 139.607C137.327 139.305 137.214 138.854 137.206 138.254V137.53C137.206 136.903 137.314 136.438 137.531 136.133C137.748 135.828 138.088 135.676 138.551 135.676C139.01 135.676 139.348 135.823 139.564 136.118C139.781 136.411 139.893 136.864 139.898 137.478V138.181ZM139.356 137.439C139.356 136.98 139.292 136.646 139.163 136.438C139.034 136.227 138.83 136.121 138.551 136.121C138.273 136.121 138.071 136.226 137.944 136.435C137.817 136.644 137.752 136.965 137.748 137.398V138.266C137.748 138.727 137.814 139.067 137.947 139.288C138.082 139.507 138.285 139.616 138.557 139.616C138.824 139.616 139.022 139.513 139.151 139.306C139.282 139.099 139.351 138.772 139.356 138.327V137.439ZM143.347 136.039L141.58 140H141.012L142.772 136.18H140.464V135.734H143.347V136.039Z" fill="black"/>
</svg>
