<svg width="210" height="297" viewBox="0 0 210 297" fill="none" xmlns="http://www.w3.org/2000/svg">
<path d="M129.939 67.1973H128.568V71H128.009V67.1973H126.641V66.7344H129.939V67.1973ZM131.51 71.0586C131.08 71.0586 130.73 70.918 130.461 70.6367C130.191 70.3535 130.057 69.9756 130.057 69.5029V69.4033C130.057 69.0889 130.116 68.8086 130.235 68.5625C130.356 68.3145 130.524 68.1211 130.739 67.9824C130.956 67.8418 131.19 67.7715 131.442 67.7715C131.854 67.7715 132.175 67.9072 132.403 68.1787C132.632 68.4502 132.746 68.8389 132.746 69.3447V69.5703H130.599C130.606 69.8828 130.697 70.1357 130.871 70.3291C131.047 70.5205 131.27 70.6162 131.539 70.6162C131.73 70.6162 131.893 70.5771 132.025 70.499C132.158 70.4209 132.274 70.3174 132.374 70.1885L132.705 70.4463C132.439 70.8545 132.041 71.0586 131.51 71.0586ZM131.442 68.2168C131.224 68.2168 131.04 68.2969 130.892 68.457C130.743 68.6152 130.651 68.8379 130.616 69.125H132.204V69.084C132.188 68.8086 132.114 68.5957 131.981 68.4453C131.849 68.293 131.669 68.2168 131.442 68.2168ZM134.908 68.3164C134.826 68.3027 134.737 68.2959 134.642 68.2959C134.286 68.2959 134.045 68.4473 133.918 68.75V71H133.376V67.8301H133.903L133.912 68.1963C134.09 67.9131 134.342 67.7715 134.668 67.7715C134.773 67.7715 134.854 67.7852 134.908 67.8125V68.3164ZM137.249 71C137.218 70.9375 137.192 70.8262 137.173 70.666C136.921 70.9277 136.62 71.0586 136.271 71.0586C135.958 71.0586 135.701 70.9707 135.5 70.7949C135.301 70.6172 135.201 70.3926 135.201 70.1211C135.201 69.791 135.326 69.5352 135.576 69.3535C135.828 69.1699 136.182 69.0781 136.637 69.0781H137.164V68.8291C137.164 68.6396 137.107 68.4893 136.994 68.3779C136.881 68.2646 136.714 68.208 136.493 68.208C136.3 68.208 136.138 68.2568 136.007 68.3545C135.876 68.4521 135.811 68.5703 135.811 68.709H135.266C135.266 68.5508 135.321 68.3984 135.433 68.252C135.546 68.1035 135.698 67.9863 135.89 67.9004C136.083 67.8145 136.295 67.7715 136.525 67.7715C136.891 67.7715 137.177 67.8633 137.384 68.0469C137.591 68.2285 137.698 68.4795 137.706 68.7998V70.2588C137.706 70.5498 137.743 70.7812 137.817 70.9531V71H137.249ZM136.35 70.5869C136.52 70.5869 136.681 70.543 136.833 70.4551C136.985 70.3672 137.096 70.2529 137.164 70.1123V69.4619H136.739C136.075 69.4619 135.743 69.6562 135.743 70.0449C135.743 70.2148 135.8 70.3477 135.913 70.4434C136.026 70.5391 136.172 70.5869 136.35 70.5869ZM140.401 70.1592C140.401 70.0127 140.346 69.8994 140.234 69.8193C140.125 69.7373 139.933 69.667 139.657 69.6084C139.384 69.5498 139.166 69.4795 139.004 69.3975C138.844 69.3154 138.725 69.2178 138.646 69.1045C138.57 68.9912 138.532 68.8564 138.532 68.7002C138.532 68.4404 138.642 68.2207 138.86 68.041C139.081 67.8613 139.362 67.7715 139.704 67.7715C140.063 67.7715 140.354 67.8643 140.577 68.0498C140.802 68.2354 140.914 68.4727 140.914 68.7617H140.369C140.369 68.6133 140.306 68.4854 140.179 68.3779C140.054 68.2705 139.896 68.2168 139.704 68.2168C139.507 68.2168 139.353 68.2598 139.241 68.3457C139.13 68.4316 139.074 68.5439 139.074 68.6826C139.074 68.8135 139.126 68.9121 139.229 68.9785C139.333 69.0449 139.52 69.1084 139.789 69.1689C140.061 69.2295 140.28 69.3018 140.448 69.3857C140.616 69.4697 140.74 69.5713 140.82 69.6904C140.902 69.8076 140.943 69.9512 140.943 70.1211C140.943 70.4043 140.83 70.6318 140.604 70.8037C140.377 70.9736 140.083 71.0586 139.722 71.0586C139.468 71.0586 139.243 71.0137 139.048 70.9238C138.853 70.834 138.699 70.709 138.588 70.5488C138.479 70.3867 138.424 70.2119 138.424 70.0244H138.966C138.976 70.2061 139.048 70.3506 139.183 70.458C139.319 70.5635 139.499 70.6162 139.722 70.6162C139.927 70.6162 140.091 70.5752 140.214 70.4932C140.339 70.4092 140.401 70.2979 140.401 70.1592ZM143.606 71C143.575 70.9375 143.55 70.8262 143.53 70.666C143.278 70.9277 142.978 71.0586 142.628 71.0586C142.315 71.0586 142.059 70.9707 141.857 70.7949C141.658 70.6172 141.559 70.3926 141.559 70.1211C141.559 69.791 141.684 69.5352 141.934 69.3535C142.186 69.1699 142.539 69.0781 142.994 69.0781H143.521V68.8291C143.521 68.6396 143.465 68.4893 143.352 68.3779C143.238 68.2646 143.071 68.208 142.851 68.208C142.657 68.208 142.495 68.2568 142.364 68.3545C142.233 68.4521 142.168 68.5703 142.168 68.709H141.623C141.623 68.5508 141.679 68.3984 141.79 68.252C141.903 68.1035 142.056 67.9863 142.247 67.9004C142.44 67.8145 142.652 67.7715 142.883 67.7715C143.248 67.7715 143.534 67.8633 143.741 68.0469C143.948 68.2285 144.056 68.4795 144.063 68.7998V70.2588C144.063 70.5498 144.101 70.7812 144.175 70.9531V71H143.606ZM142.707 70.5869C142.877 70.5869 143.038 70.543 143.19 70.4551C143.343 70.3672 143.453 70.2529 143.521 70.1123V69.4619H143.097C142.433 69.4619 142.101 69.6562 142.101 70.0449C142.101 70.2148 142.157 70.3477 142.271 70.4434C142.384 70.5391 142.529 70.5869 142.707 70.5869Z" fill="black"/>
<path d="M129.377 116.54H131.398V117H128.812V112.734H129.377V116.54ZM134.393 115.116H132.603V117H132.04V112.734H134.683V113.197H132.603V114.656H134.393V115.116ZM138.638 115.005C138.638 115.423 138.567 115.788 138.427 116.101C138.286 116.411 138.087 116.648 137.829 116.812C137.571 116.977 137.271 117.059 136.927 117.059C136.591 117.059 136.293 116.977 136.033 116.812C135.773 116.646 135.571 116.411 135.427 116.106C135.284 115.8 135.211 115.445 135.207 115.043V114.735C135.207 114.325 135.278 113.963 135.421 113.648C135.563 113.334 135.765 113.094 136.024 112.928C136.286 112.76 136.585 112.676 136.921 112.676C137.263 112.676 137.563 112.759 137.823 112.925C138.085 113.089 138.286 113.328 138.427 113.643C138.567 113.955 138.638 114.319 138.638 114.735V115.005ZM138.078 114.729C138.078 114.224 137.977 113.836 137.773 113.566C137.57 113.295 137.286 113.159 136.921 113.159C136.565 113.159 136.285 113.295 136.08 113.566C135.877 113.836 135.772 114.211 135.767 114.691V115.005C135.767 115.495 135.869 115.881 136.074 116.162C136.281 116.441 136.565 116.581 136.927 116.581C137.29 116.581 137.571 116.449 137.771 116.186C137.97 115.92 138.072 115.54 138.078 115.046V114.729ZM141.046 115.274H140.044V117H139.479V112.734H140.891C141.371 112.734 141.74 112.844 141.998 113.062C142.258 113.281 142.388 113.6 142.388 114.018C142.388 114.283 142.315 114.515 142.171 114.712C142.028 114.909 141.829 115.057 141.573 115.154L142.575 116.965V117H141.972L141.046 115.274ZM140.044 114.814H140.908C141.188 114.814 141.409 114.742 141.573 114.598C141.739 114.453 141.822 114.26 141.822 114.018C141.822 113.754 141.743 113.552 141.585 113.411C141.429 113.271 141.202 113.199 140.905 113.197H140.044V114.814ZM130.974 119.731V120.191H130.874C130.452 120.199 130.116 120.324 129.866 120.566C129.616 120.809 129.472 121.149 129.433 121.589C129.657 121.331 129.964 121.202 130.353 121.202C130.724 121.202 131.02 121.333 131.24 121.595C131.463 121.856 131.574 122.194 131.574 122.608C131.574 123.048 131.454 123.399 131.214 123.663C130.976 123.927 130.655 124.059 130.253 124.059C129.845 124.059 129.514 123.902 129.26 123.59C129.006 123.275 128.879 122.871 128.879 122.377V122.169C128.879 121.384 129.046 120.784 129.38 120.37C129.716 119.954 130.215 119.741 130.877 119.731H130.974ZM130.262 121.653C130.076 121.653 129.905 121.709 129.749 121.82C129.593 121.932 129.484 122.071 129.424 122.239V122.438C129.424 122.79 129.503 123.073 129.661 123.288C129.819 123.503 130.017 123.61 130.253 123.61C130.497 123.61 130.688 123.521 130.827 123.341C130.968 123.161 131.038 122.926 131.038 122.635C131.038 122.342 130.967 122.105 130.824 121.926C130.684 121.744 130.496 121.653 130.262 121.653ZM135.494 122.646C135.441 123.098 135.274 123.446 134.993 123.692C134.714 123.937 134.342 124.059 133.877 124.059C133.373 124.059 132.969 123.878 132.664 123.517C132.361 123.155 132.21 122.672 132.21 122.066V121.656C132.21 121.26 132.28 120.911 132.421 120.61C132.563 120.31 132.765 120.079 133.024 119.919C133.284 119.757 133.585 119.676 133.927 119.676C134.38 119.676 134.743 119.803 135.017 120.057C135.29 120.309 135.449 120.658 135.494 121.105H134.929C134.88 120.766 134.773 120.52 134.609 120.367C134.447 120.215 134.22 120.139 133.927 120.139C133.567 120.139 133.285 120.271 133.08 120.537C132.877 120.803 132.775 121.181 132.775 121.671V122.084C132.775 122.547 132.872 122.915 133.065 123.188C133.259 123.462 133.529 123.599 133.877 123.599C134.189 123.599 134.429 123.528 134.595 123.388C134.763 123.245 134.874 122.998 134.929 122.646H135.494ZM138.799 122.181C138.799 122.815 138.69 123.287 138.474 123.596C138.257 123.904 137.918 124.059 137.457 124.059C137.002 124.059 136.665 123.908 136.446 123.607C136.228 123.305 136.114 122.854 136.106 122.254V121.53C136.106 120.903 136.215 120.438 136.432 120.133C136.648 119.828 136.988 119.676 137.451 119.676C137.91 119.676 138.248 119.823 138.465 120.118C138.682 120.411 138.793 120.864 138.799 121.478V122.181ZM138.257 121.439C138.257 120.98 138.192 120.646 138.063 120.438C137.935 120.227 137.73 120.121 137.451 120.121C137.174 120.121 136.972 120.226 136.845 120.435C136.718 120.644 136.652 120.965 136.648 121.398V122.266C136.648 122.727 136.715 123.067 136.848 123.288C136.982 123.507 137.186 123.616 137.457 123.616C137.725 123.616 137.923 123.513 138.052 123.306C138.183 123.099 138.251 122.772 138.257 122.327V121.439ZM142.288 124H139.493V123.61L140.97 121.97C141.188 121.722 141.339 121.521 141.421 121.366C141.505 121.21 141.547 121.049 141.547 120.883C141.547 120.66 141.479 120.478 141.345 120.335C141.21 120.192 141.03 120.121 140.806 120.121C140.536 120.121 140.326 120.198 140.176 120.353C140.027 120.505 139.953 120.718 139.953 120.991H139.411C139.411 120.599 139.537 120.281 139.789 120.039C140.043 119.797 140.382 119.676 140.806 119.676C141.202 119.676 141.516 119.78 141.746 119.989C141.977 120.196 142.092 120.473 142.092 120.818C142.092 121.238 141.824 121.738 141.289 122.318L140.146 123.558H142.288V124Z" fill="black"/>
<path d="M143.798 208.655L143.88 209.218L144 208.711L144.844 205.734H145.318L146.142 208.711L146.259 209.227L146.35 208.652L147.012 205.734H147.577L146.543 210H146.03L145.151 206.892L145.084 206.566L145.017 206.892L144.105 210H143.593L142.562 205.734H143.124L143.798 208.655ZM151.342 208.646C151.289 209.098 151.122 209.446 150.841 209.692C150.562 209.937 150.189 210.059 149.725 210.059C149.221 210.059 148.816 209.878 148.512 209.517C148.209 209.155 148.058 208.672 148.058 208.066V207.656C148.058 207.26 148.128 206.911 148.269 206.61C148.411 206.31 148.612 206.079 148.872 205.919C149.132 205.757 149.433 205.676 149.774 205.676C150.228 205.676 150.591 205.803 150.864 206.057C151.138 206.309 151.297 206.658 151.342 207.105H150.776C150.728 206.766 150.621 206.52 150.457 206.367C150.295 206.215 150.067 206.139 149.774 206.139C149.415 206.139 149.133 206.271 148.928 206.537C148.725 206.803 148.623 207.181 148.623 207.671V208.084C148.623 208.547 148.72 208.915 148.913 209.188C149.106 209.462 149.377 209.599 149.725 209.599C150.037 209.599 150.276 209.528 150.442 209.388C150.61 209.245 150.722 208.998 150.776 208.646H151.342Z" fill="black"/>
<path d="M48.5156 90V85.7344H49.7197C50.0908 85.7344 50.4189 85.8164 50.7041 85.9805C50.9893 86.1445 51.209 86.3779 51.3633 86.6807C51.5195 86.9834 51.5986 87.3311 51.6006 87.7236V87.9961C51.6006 88.3984 51.5225 88.751 51.3662 89.0537C51.2119 89.3564 50.9902 89.5889 50.7012 89.751C50.4141 89.9131 50.0791 89.9961 49.6963 90H48.5156ZM49.0781 86.1973V89.54H49.6699C50.1035 89.54 50.4404 89.4053 50.6807 89.1357C50.9229 88.8662 51.0439 88.4824 51.0439 87.9844V87.7354C51.0439 87.251 50.9297 86.875 50.7012 86.6074C50.4746 86.3379 50.1523 86.2012 49.7344 86.1973H49.0781ZM53.71 88.0986C53.2275 87.96 52.876 87.79 52.6553 87.5889C52.4365 87.3857 52.3271 87.1357 52.3271 86.8389C52.3271 86.5029 52.4609 86.2256 52.7285 86.0068C52.998 85.7861 53.3477 85.6758 53.7773 85.6758C54.0703 85.6758 54.3311 85.7324 54.5596 85.8457C54.79 85.959 54.9678 86.1152 55.0928 86.3145C55.2197 86.5137 55.2832 86.7314 55.2832 86.9678H54.7178C54.7178 86.71 54.6357 86.5078 54.4717 86.3613C54.3076 86.2129 54.0762 86.1387 53.7773 86.1387C53.5 86.1387 53.2832 86.2002 53.127 86.3232C52.9727 86.4443 52.8955 86.6133 52.8955 86.8301C52.8955 87.0039 52.9688 87.1514 53.1152 87.2725C53.2637 87.3916 53.5146 87.501 53.8682 87.6006C54.2236 87.7002 54.501 87.8105 54.7002 87.9316C54.9014 88.0508 55.0498 88.1904 55.1455 88.3506C55.2432 88.5107 55.292 88.6992 55.292 88.916C55.292 89.2617 55.1572 89.5391 54.8877 89.748C54.6182 89.9551 54.2578 90.0586 53.8066 90.0586C53.5137 90.0586 53.2402 90.0029 52.9863 89.8916C52.7324 89.7783 52.5361 89.624 52.3975 89.4287C52.2607 89.2334 52.1924 89.0117 52.1924 88.7637H52.7578C52.7578 89.0215 52.8525 89.2256 53.042 89.376C53.2334 89.5244 53.4883 89.5986 53.8066 89.5986C54.1035 89.5986 54.3311 89.5381 54.4893 89.417C54.6475 89.2959 54.7266 89.1309 54.7266 88.9219C54.7266 88.7129 54.6533 88.5518 54.5068 88.4385C54.3604 88.3232 54.0947 88.21 53.71 88.0986ZM57.0996 88.0166L56.5781 88.5586V90H56.0156V85.7344H56.5781V87.8438L58.4736 85.7344H59.1533L57.4746 87.6182L59.2852 90H58.6113L57.0996 88.0166ZM61.3418 88.2744H60.3398V90H59.7744V85.7344H61.1865C61.667 85.7344 62.0361 85.8438 62.2939 86.0625C62.5537 86.2812 62.6836 86.5996 62.6836 87.0176C62.6836 87.2832 62.6113 87.5146 62.4668 87.7119C62.3242 87.9092 62.125 88.0566 61.8691 88.1543L62.8711 89.9648V90H62.2676L61.3418 88.2744ZM60.3398 87.8145H61.2041C61.4834 87.8145 61.7051 87.7422 61.8691 87.5977C62.0352 87.4531 62.1182 87.2598 62.1182 87.0176C62.1182 86.7539 62.0391 86.5518 61.8809 86.4111C61.7246 86.2705 61.498 86.1992 61.2012 86.1973H60.3398V87.8145ZM50.9736 92.7314V93.1914H50.874C50.4521 93.1992 50.1162 93.3242 49.8662 93.5664C49.6162 93.8086 49.4717 94.1494 49.4326 94.5889C49.6572 94.3311 49.9639 94.2021 50.3525 94.2021C50.7236 94.2021 51.0195 94.333 51.2402 94.5947C51.4629 94.8564 51.5742 95.1943 51.5742 95.6084C51.5742 96.0479 51.4541 96.3994 51.2139 96.6631C50.9756 96.9268 50.6553 97.0586 50.2529 97.0586C49.8447 97.0586 49.5137 96.9023 49.2598 96.5898C49.0059 96.2754 48.8789 95.8711 48.8789 95.377V95.1689C48.8789 94.3838 49.0459 93.7842 49.3799 93.3701C49.7158 92.9541 50.2148 92.7412 50.877 92.7314H50.9736ZM50.2617 94.6533C50.0762 94.6533 49.9053 94.709 49.749 94.8203C49.5928 94.9316 49.4844 95.0713 49.4238 95.2393V95.4385C49.4238 95.79 49.5029 96.0732 49.6611 96.2881C49.8193 96.5029 50.0166 96.6104 50.2529 96.6104C50.4971 96.6104 50.6885 96.5205 50.8271 96.3408C50.9678 96.1611 51.0381 95.9258 51.0381 95.6348C51.0381 95.3418 50.9668 95.1055 50.8242 94.9258C50.6836 94.7441 50.4961 94.6533 50.2617 94.6533ZM55.4941 95.6465C55.4414 96.0977 55.2744 96.4463 54.9932 96.6924C54.7139 96.9365 54.3418 97.0586 53.877 97.0586C53.373 97.0586 52.9688 96.8779 52.6641 96.5166C52.3613 96.1553 52.21 95.6719 52.21 95.0664V94.6562C52.21 94.2598 52.2803 93.9111 52.4209 93.6104C52.5635 93.3096 52.7646 93.0791 53.0244 92.9189C53.2842 92.7568 53.585 92.6758 53.9268 92.6758C54.3799 92.6758 54.7432 92.8027 55.0166 93.0566C55.29 93.3086 55.4492 93.6582 55.4941 94.1055H54.9287C54.8799 93.7656 54.7734 93.5195 54.6094 93.3672C54.4473 93.2148 54.2197 93.1387 53.9268 93.1387C53.5674 93.1387 53.2852 93.2715 53.0801 93.5371C52.877 93.8027 52.7754 94.1807 52.7754 94.6709V95.084C52.7754 95.5469 52.8721 95.915 53.0654 96.1885C53.2588 96.4619 53.5293 96.5986 53.877 96.5986C54.1895 96.5986 54.4287 96.5283 54.5947 96.3877C54.7627 96.2451 54.874 95.998 54.9287 95.6465H55.4941ZM58.7988 95.1807C58.7988 95.8154 58.6904 96.2871 58.4736 96.5957C58.2568 96.9043 57.918 97.0586 57.457 97.0586C57.002 97.0586 56.665 96.9082 56.4463 96.6074C56.2275 96.3047 56.1143 95.8535 56.1064 95.2539V94.5303C56.1064 93.9033 56.2148 93.4375 56.4316 93.1328C56.6484 92.8281 56.9883 92.6758 57.4512 92.6758C57.9102 92.6758 58.248 92.8232 58.4648 93.1182C58.6816 93.4111 58.793 93.8643 58.7988 94.4775V95.1807ZM58.2568 94.4395C58.2568 93.9805 58.1924 93.6465 58.0635 93.4375C57.9346 93.2266 57.7305 93.1211 57.4512 93.1211C57.1738 93.1211 56.9717 93.2256 56.8447 93.4346C56.7178 93.6436 56.6523 93.9648 56.6484 94.3984V95.2656C56.6484 95.7266 56.7148 96.0674 56.8477 96.2881C56.9824 96.5068 57.1855 96.6162 57.457 96.6162C57.7246 96.6162 57.9229 96.5127 58.0518 96.3057C58.1826 96.0986 58.251 95.7725 58.2568 95.3271V94.4395ZM61.2744 97H60.7295V93.3877L59.6367 93.7891V93.2969L61.1895 92.7139H61.2744V97Z" fill="black"/>
</svg>
