<svg width="210" height="297" viewBox="0 0 210 297" fill="none" xmlns="http://www.w3.org/2000/svg">
<path d="M129.939 83.1973H128.568V87H128.009V83.1973H126.641V82.7344H129.939V83.1973ZM131.51 87.0586C131.08 87.0586 130.73 86.918 130.461 86.6367C130.191 86.3535 130.057 85.9756 130.057 85.5029V85.4033C130.057 85.0889 130.116 84.8086 130.235 84.5625C130.356 84.3145 130.524 84.1211 130.739 83.9824C130.956 83.8418 131.19 83.7715 131.442 83.7715C131.854 83.7715 132.175 83.9072 132.403 84.1787C132.632 84.4502 132.746 84.8389 132.746 85.3447V85.5703H130.599C130.606 85.8828 130.697 86.1357 130.871 86.3291C131.047 86.5205 131.27 86.6162 131.539 86.6162C131.73 86.6162 131.893 86.5771 132.025 86.499C132.158 86.4209 132.274 86.3174 132.374 86.1885L132.705 86.4463C132.439 86.8545 132.041 87.0586 131.51 87.0586ZM131.442 84.2168C131.224 84.2168 131.04 84.2969 130.892 84.457C130.743 84.6152 130.651 84.8379 130.616 85.125H132.204V85.084C132.188 84.8086 132.114 84.5957 131.981 84.4453C131.849 84.293 131.669 84.2168 131.442 84.2168ZM134.908 84.3164C134.826 84.3027 134.737 84.2959 134.642 84.2959C134.286 84.2959 134.045 84.4473 133.918 84.75V87H133.376V83.8301H133.903L133.912 84.1963C134.09 83.9131 134.342 83.7715 134.668 83.7715C134.773 83.7715 134.854 83.7852 134.908 83.8125V84.3164ZM137.249 87C137.218 86.9375 137.192 86.8262 137.173 86.666C136.921 86.9277 136.62 87.0586 136.271 87.0586C135.958 87.0586 135.701 86.9707 135.5 86.7949C135.301 86.6172 135.201 86.3926 135.201 86.1211C135.201 85.791 135.326 85.5352 135.576 85.3535C135.828 85.1699 136.182 85.0781 136.637 85.0781H137.164V84.8291C137.164 84.6396 137.107 84.4893 136.994 84.3779C136.881 84.2646 136.714 84.208 136.493 84.208C136.3 84.208 136.138 84.2568 136.007 84.3545C135.876 84.4521 135.811 84.5703 135.811 84.709H135.266C135.266 84.5508 135.321 84.3984 135.433 84.252C135.546 84.1035 135.698 83.9863 135.89 83.9004C136.083 83.8145 136.295 83.7715 136.525 83.7715C136.891 83.7715 137.177 83.8633 137.384 84.0469C137.591 84.2285 137.698 84.4795 137.706 84.7998V86.2588C137.706 86.5498 137.743 86.7812 137.817 86.9531V87H137.249ZM136.35 86.5869C136.52 86.5869 136.681 86.543 136.833 86.4551C136.985 86.3672 137.096 86.2529 137.164 86.1123V85.4619H136.739C136.075 85.4619 135.743 85.6562 135.743 86.0449C135.743 86.2148 135.8 86.3477 135.913 86.4434C136.026 86.5391 136.172 86.5869 136.35 86.5869ZM140.401 86.1592C140.401 86.0127 140.346 85.8994 140.234 85.8193C140.125 85.7373 139.933 85.667 139.657 85.6084C139.384 85.5498 139.166 85.4795 139.004 85.3975C138.844 85.3154 138.725 85.2178 138.646 85.1045C138.57 84.9912 138.532 84.8564 138.532 84.7002C138.532 84.4404 138.642 84.2207 138.86 84.041C139.081 83.8613 139.362 83.7715 139.704 83.7715C140.063 83.7715 140.354 83.8643 140.577 84.0498C140.802 84.2354 140.914 84.4727 140.914 84.7617H140.369C140.369 84.6133 140.306 84.4854 140.179 84.3779C140.054 84.2705 139.896 84.2168 139.704 84.2168C139.507 84.2168 139.353 84.2598 139.241 84.3457C139.13 84.4316 139.074 84.5439 139.074 84.6826C139.074 84.8135 139.126 84.9121 139.229 84.9785C139.333 85.0449 139.52 85.1084 139.789 85.1689C140.061 85.2295 140.28 85.3018 140.448 85.3857C140.616 85.4697 140.74 85.5713 140.82 85.6904C140.902 85.8076 140.943 85.9512 140.943 86.1211C140.943 86.4043 140.83 86.6318 140.604 86.8037C140.377 86.9736 140.083 87.0586 139.722 87.0586C139.468 87.0586 139.243 87.0137 139.048 86.9238C138.853 86.834 138.699 86.709 138.588 86.5488C138.479 86.3867 138.424 86.2119 138.424 86.0244H138.966C138.976 86.2061 139.048 86.3506 139.183 86.458C139.319 86.5635 139.499 86.6162 139.722 86.6162C139.927 86.6162 140.091 86.5752 140.214 86.4932C140.339 86.4092 140.401 86.2979 140.401 86.1592ZM143.606 87C143.575 86.9375 143.55 86.8262 143.53 86.666C143.278 86.9277 142.978 87.0586 142.628 87.0586C142.315 87.0586 142.059 86.9707 141.857 86.7949C141.658 86.6172 141.559 86.3926 141.559 86.1211C141.559 85.791 141.684 85.5352 141.934 85.3535C142.186 85.1699 142.539 85.0781 142.994 85.0781H143.521V84.8291C143.521 84.6396 143.465 84.4893 143.352 84.3779C143.238 84.2646 143.071 84.208 142.851 84.208C142.657 84.208 142.495 84.2568 142.364 84.3545C142.233 84.4521 142.168 84.5703 142.168 84.709H141.623C141.623 84.5508 141.679 84.3984 141.79 84.252C141.903 84.1035 142.056 83.9863 142.247 83.9004C142.44 83.8145 142.652 83.7715 142.883 83.7715C143.248 83.7715 143.534 83.8633 143.741 84.0469C143.948 84.2285 144.056 84.4795 144.063 84.7998V86.2588C144.063 86.5498 144.101 86.7812 144.175 86.9531V87H143.606ZM142.707 86.5869C142.877 86.5869 143.038 86.543 143.19 86.4551C143.343 86.3672 143.453 86.2529 143.521 86.1123V85.4619H143.097C142.433 85.4619 142.101 85.6562 142.101 86.0449C142.101 86.2148 142.157 86.3477 142.271 86.4434C142.384 86.5391 142.529 86.5869 142.707 86.5869Z" fill="black"/>
<path d="M129.278 132.54H131.3V133H128.713V128.734H129.278V132.54ZM134.08 129.197H132.709V133H132.149V129.197H130.781V128.734H134.08V129.197ZM137.912 131.005C137.912 131.423 137.842 131.788 137.701 132.101C137.561 132.411 137.361 132.648 137.104 132.812C136.846 132.977 136.545 133.059 136.201 133.059C135.865 133.059 135.567 132.977 135.308 132.812C135.048 132.646 134.846 132.411 134.701 132.106C134.559 131.8 134.485 131.445 134.481 131.043V130.735C134.481 130.325 134.553 129.963 134.695 129.648C134.838 129.334 135.039 129.094 135.299 128.928C135.561 128.76 135.859 128.676 136.195 128.676C136.537 128.676 136.838 128.759 137.098 128.925C137.359 129.089 137.561 129.328 137.701 129.643C137.842 129.955 137.912 130.319 137.912 130.735V131.005ZM137.353 130.729C137.353 130.224 137.251 129.836 137.048 129.566C136.845 129.295 136.561 129.159 136.195 129.159C135.84 129.159 135.56 129.295 135.354 129.566C135.151 129.836 135.047 130.211 135.041 130.691V131.005C135.041 131.495 135.144 131.881 135.349 132.162C135.556 132.441 135.84 132.581 136.201 132.581C136.564 132.581 136.846 132.449 137.045 132.186C137.244 131.92 137.347 131.54 137.353 131.046V130.729ZM139.107 132.54H141.548V133H138.442V132.578L140.78 129.197H138.48V128.734H141.454V129.147L139.107 132.54ZM128.789 135.731V136.191H128.689C128.268 136.199 127.932 136.324 127.682 136.566C127.432 136.809 127.287 137.149 127.248 137.589C127.473 137.331 127.779 137.202 128.168 137.202C128.539 137.202 128.835 137.333 129.056 137.595C129.278 137.856 129.39 138.194 129.39 138.608C129.39 139.048 129.27 139.399 129.029 139.663C128.791 139.927 128.471 140.059 128.068 140.059C127.66 140.059 127.329 139.902 127.075 139.59C126.821 139.275 126.694 138.871 126.694 138.377V138.169C126.694 137.384 126.861 136.784 127.195 136.37C127.531 135.954 128.03 135.741 128.692 135.731H128.789ZM128.077 137.653C127.892 137.653 127.721 137.709 127.564 137.82C127.408 137.932 127.3 138.071 127.239 138.239V138.438C127.239 138.79 127.318 139.073 127.477 139.288C127.635 139.503 127.832 139.61 128.068 139.61C128.312 139.61 128.504 139.521 128.643 139.341C128.783 139.161 128.854 138.926 128.854 138.635C128.854 138.342 128.782 138.105 128.64 137.926C128.499 137.744 128.312 137.653 128.077 137.653ZM133.31 138.646C133.257 139.098 133.09 139.446 132.809 139.692C132.529 139.937 132.157 140.059 131.692 140.059C131.188 140.059 130.784 139.878 130.479 139.517C130.177 139.155 130.025 138.672 130.025 138.066V137.656C130.025 137.26 130.096 136.911 130.236 136.61C130.379 136.31 130.58 136.079 130.84 135.919C131.1 135.757 131.4 135.676 131.742 135.676C132.195 135.676 132.559 135.803 132.832 136.057C133.105 136.309 133.265 136.658 133.31 137.105H132.744C132.695 136.766 132.589 136.52 132.425 136.367C132.263 136.215 132.035 136.139 131.742 136.139C131.383 136.139 131.101 136.271 130.896 136.537C130.692 136.803 130.591 137.181 130.591 137.671V138.084C130.591 138.547 130.688 138.915 130.881 139.188C131.074 139.462 131.345 139.599 131.692 139.599C132.005 139.599 132.244 139.528 132.41 139.388C132.578 139.245 132.689 138.998 132.744 138.646H133.31ZM135.721 140H135.176V136.388L134.083 136.789V136.297L135.636 135.714H135.721V140ZM139.983 138.181C139.983 138.815 139.875 139.287 139.658 139.596C139.441 139.904 139.103 140.059 138.642 140.059C138.187 140.059 137.85 139.908 137.631 139.607C137.412 139.305 137.299 138.854 137.291 138.254V137.53C137.291 136.903 137.399 136.438 137.616 136.133C137.833 135.828 138.173 135.676 138.636 135.676C139.095 135.676 139.433 135.823 139.649 136.118C139.866 136.411 139.978 136.864 139.983 137.478V138.181ZM139.441 137.439C139.441 136.98 139.377 136.646 139.248 136.438C139.119 136.227 138.915 136.121 138.636 136.121C138.358 136.121 138.156 136.226 138.029 136.435C137.902 136.644 137.837 136.965 137.833 137.398V138.266C137.833 138.727 137.899 139.067 138.032 139.288C138.167 139.507 138.37 139.616 138.642 139.616C138.909 139.616 139.107 139.513 139.236 139.306C139.367 139.099 139.436 138.772 139.441 138.327V137.439ZM142.966 138.567H143.558V139.01H142.966V140H142.421V139.01H140.479V138.69L142.389 135.734H142.966V138.567ZM141.094 138.567H142.421V136.476L142.356 136.593L141.094 138.567Z" fill="black"/>
<path d="M143.798 223.655L143.88 224.218L144 223.711L144.844 220.734H145.318L146.142 223.711L146.259 224.227L146.35 223.652L147.012 220.734H147.577L146.543 225H146.03L145.151 221.892L145.084 221.566L145.017 221.892L144.105 225H143.593L142.562 220.734H143.124L143.798 223.655ZM151.342 223.646C151.289 224.098 151.122 224.446 150.841 224.692C150.562 224.937 150.189 225.059 149.725 225.059C149.221 225.059 148.816 224.878 148.512 224.517C148.209 224.155 148.058 223.672 148.058 223.066V222.656C148.058 222.26 148.128 221.911 148.269 221.61C148.411 221.31 148.612 221.079 148.872 220.919C149.132 220.757 149.433 220.676 149.774 220.676C150.228 220.676 150.591 220.803 150.864 221.057C151.138 221.309 151.297 221.658 151.342 222.105H150.776C150.728 221.766 150.621 221.52 150.457 221.367C150.295 221.215 150.067 221.139 149.774 221.139C149.415 221.139 149.133 221.271 148.928 221.537C148.725 221.803 148.623 222.181 148.623 222.671V223.084C148.623 223.547 148.72 223.915 148.913 224.188C149.106 224.462 149.377 224.599 149.725 224.599C150.037 224.599 150.276 224.528 150.442 224.388C150.61 224.245 150.722 223.998 150.776 223.646H151.342Z" fill="black"/>
<path d="M48.71 105.54H50.7314V106H48.1445V101.734H48.71V105.54ZM54.6514 106H54.0859V104.028H51.9355V106H51.373V101.734H51.9355V103.568H54.0859V101.734H54.6514V106ZM58.0586 104.887H56.2715L55.8701 106H55.29L56.9189 101.734H57.4111L59.043 106H58.4658L58.0586 104.887ZM56.4414 104.424H57.8916L57.165 102.429L56.4414 104.424ZM60.1826 105.54H62.2041V106H59.6172V101.734H60.1826V105.54ZM48.7891 108.731V109.191H48.6895C48.2676 109.199 47.9316 109.324 47.6816 109.566C47.4316 109.809 47.2871 110.149 47.248 110.589C47.4727 110.331 47.7793 110.202 48.168 110.202C48.5391 110.202 48.835 110.333 49.0557 110.595C49.2783 110.856 49.3896 111.194 49.3896 111.608C49.3896 112.048 49.2695 112.399 49.0293 112.663C48.791 112.927 48.4707 113.059 48.0684 113.059C47.6602 113.059 47.3291 112.902 47.0752 112.59C46.8213 112.275 46.6943 111.871 46.6943 111.377V111.169C46.6943 110.384 46.8613 109.784 47.1953 109.37C47.5312 108.954 48.0303 108.741 48.6924 108.731H48.7891ZM48.0771 110.653C47.8916 110.653 47.7207 110.709 47.5645 110.82C47.4082 110.932 47.2998 111.071 47.2393 111.239V111.438C47.2393 111.79 47.3184 112.073 47.4766 112.288C47.6348 112.503 47.832 112.61 48.0684 112.61C48.3125 112.61 48.5039 112.521 48.6426 112.341C48.7832 112.161 48.8535 111.926 48.8535 111.635C48.8535 111.342 48.7822 111.105 48.6396 110.926C48.499 110.744 48.3115 110.653 48.0771 110.653ZM53.3096 111.646C53.2568 112.098 53.0898 112.446 52.8086 112.692C52.5293 112.937 52.1572 113.059 51.6924 113.059C51.1885 113.059 50.7842 112.878 50.4795 112.517C50.1768 112.155 50.0254 111.672 50.0254 111.066V110.656C50.0254 110.26 50.0957 109.911 50.2363 109.61C50.3789 109.31 50.5801 109.079 50.8398 108.919C51.0996 108.757 51.4004 108.676 51.7422 108.676C52.1953 108.676 52.5586 108.803 52.832 109.057C53.1055 109.309 53.2646 109.658 53.3096 110.105H52.7441C52.6953 109.766 52.5889 109.52 52.4248 109.367C52.2627 109.215 52.0352 109.139 51.7422 109.139C51.3828 109.139 51.1006 109.271 50.8955 109.537C50.6924 109.803 50.5908 110.181 50.5908 110.671V111.084C50.5908 111.547 50.6875 111.915 50.8809 112.188C51.0742 112.462 51.3447 112.599 51.6924 112.599C52.0049 112.599 52.2441 112.528 52.4102 112.388C52.5781 112.245 52.6895 111.998 52.7441 111.646H53.3096ZM55.7207 113H55.1758V109.388L54.083 109.789V109.297L55.6357 108.714H55.7207V113ZM59.9834 111.181C59.9834 111.815 59.875 112.287 59.6582 112.596C59.4414 112.904 59.1025 113.059 58.6416 113.059C58.1865 113.059 57.8496 112.908 57.6309 112.607C57.4121 112.305 57.2988 111.854 57.291 111.254V110.53C57.291 109.903 57.3994 109.438 57.6162 109.133C57.833 108.828 58.1729 108.676 58.6357 108.676C59.0947 108.676 59.4326 108.823 59.6494 109.118C59.8662 109.411 59.9775 109.864 59.9834 110.478V111.181ZM59.4414 110.439C59.4414 109.98 59.377 109.646 59.248 109.438C59.1191 109.227 58.915 109.121 58.6357 109.121C58.3584 109.121 58.1562 109.226 58.0293 109.435C57.9023 109.644 57.8369 109.965 57.833 110.398V111.266C57.833 111.727 57.8994 112.067 58.0322 112.288C58.167 112.507 58.3701 112.616 58.6416 112.616C58.9092 112.616 59.1074 112.513 59.2363 112.306C59.3672 112.099 59.4355 111.772 59.4414 111.327V110.439ZM63.2646 109.848C63.2646 110.061 63.208 110.25 63.0947 110.416C62.9834 110.582 62.832 110.712 62.6406 110.806C62.8633 110.901 63.0391 111.041 63.168 111.225C63.2988 111.408 63.3643 111.616 63.3643 111.849C63.3643 112.218 63.2393 112.512 62.9893 112.73C62.7412 112.949 62.4141 113.059 62.0078 113.059C61.5977 113.059 61.2686 112.949 61.0205 112.73C60.7744 112.51 60.6514 112.216 60.6514 111.849C60.6514 111.618 60.7139 111.41 60.8389 111.225C60.9658 111.039 61.1406 110.898 61.3633 110.803C61.1738 110.709 61.0244 110.579 60.915 110.413C60.8057 110.247 60.751 110.059 60.751 109.848C60.751 109.488 60.8662 109.203 61.0967 108.992C61.3271 108.781 61.6309 108.676 62.0078 108.676C62.3828 108.676 62.6855 108.781 62.916 108.992C63.1484 109.203 63.2646 109.488 63.2646 109.848ZM62.8223 111.837C62.8223 111.599 62.7461 111.404 62.5938 111.254C62.4434 111.104 62.2461 111.028 62.002 111.028C61.7578 111.028 61.5615 111.103 61.4131 111.251C61.2666 111.399 61.1934 111.595 61.1934 111.837C61.1934 112.079 61.2646 112.27 61.4072 112.408C61.5518 112.547 61.752 112.616 62.0078 112.616C62.2617 112.616 62.4609 112.547 62.6055 112.408C62.75 112.268 62.8223 112.077 62.8223 111.837ZM62.0078 109.121C61.7949 109.121 61.6221 109.188 61.4893 109.32C61.3584 109.451 61.293 109.63 61.293 109.856C61.293 110.073 61.3574 110.249 61.4863 110.384C61.6172 110.517 61.791 110.583 62.0078 110.583C62.2246 110.583 62.3975 110.517 62.5264 110.384C62.6572 110.249 62.7227 110.073 62.7227 109.856C62.7227 109.64 62.6553 109.463 62.5205 109.326C62.3857 109.189 62.2148 109.121 62.0078 109.121Z" fill="black"/>
</svg>
