<svg width="210" height="297" viewBox="0 0 210 297" fill="none" xmlns="http://www.w3.org/2000/svg">
<path d="M44.1348 108.156H44.5098V110.08C44.5098 110.294 44.4622 110.471 44.3672 110.613C44.2721 110.755 44.1458 110.862 43.9883 110.934C43.832 111.004 43.6621 111.039 43.4785 111.039C43.2858 111.039 43.1113 111.004 42.9551 110.934C42.8001 110.862 42.6771 110.755 42.5859 110.613C42.4961 110.471 42.4512 110.294 42.4512 110.08V108.156H42.8242V110.08C42.8242 110.229 42.8516 110.351 42.9062 110.447C42.9609 110.544 43.0371 110.615 43.1348 110.662C43.2337 110.709 43.3483 110.732 43.4785 110.732C43.61 110.732 43.7246 110.709 43.8223 110.662C43.9212 110.615 43.998 110.544 44.0527 110.447C44.1074 110.351 44.1348 110.229 44.1348 110.08V108.156ZM46.791 109.643V109.939H45.8379V109.643H46.791ZM48.5684 108.156V111H48.1914V108.156H48.5684ZM49.7598 109.436V109.744H48.4863V109.436H49.7598ZM49.9531 108.156V108.465H48.4863V108.156H49.9531ZM52.1719 110.703V111H50.3105V110.74L51.2422 109.703C51.3568 109.576 51.4453 109.467 51.5078 109.379C51.5716 109.289 51.6159 109.209 51.6406 109.139C51.6667 109.067 51.6797 108.994 51.6797 108.92C51.6797 108.826 51.6602 108.742 51.6211 108.666C51.5833 108.589 51.5273 108.528 51.4531 108.482C51.3789 108.437 51.2891 108.414 51.1836 108.414C51.0573 108.414 50.9518 108.439 50.8672 108.488C50.7839 108.536 50.7214 108.604 50.6797 108.691C50.638 108.779 50.6172 108.879 50.6172 108.992H50.2559C50.2559 108.832 50.291 108.686 50.3613 108.553C50.4316 108.42 50.5358 108.314 50.6738 108.236C50.8118 108.157 50.9818 108.117 51.1836 108.117C51.3633 108.117 51.5169 108.149 51.6445 108.213C51.7721 108.275 51.8698 108.364 51.9375 108.479C52.0065 108.592 52.041 108.725 52.041 108.877C52.041 108.96 52.0267 109.045 51.998 109.131C51.9707 109.215 51.9323 109.3 51.8828 109.385C51.8346 109.469 51.778 109.553 51.7129 109.635C51.6491 109.717 51.5807 109.798 51.5078 109.877L50.7461 110.703H52.1719ZM54.3438 109.352V109.785C54.3438 110.018 54.3229 110.215 54.2812 110.375C54.2396 110.535 54.1797 110.664 54.1016 110.762C54.0234 110.859 53.929 110.93 53.8184 110.975C53.709 111.018 53.5853 111.039 53.4473 111.039C53.3379 111.039 53.237 111.025 53.1445 110.998C53.0521 110.971 52.9688 110.927 52.8945 110.867C52.8216 110.806 52.7591 110.727 52.707 110.629C52.6549 110.531 52.6152 110.413 52.5879 110.273C52.5605 110.134 52.5469 109.971 52.5469 109.785V109.352C52.5469 109.118 52.5677 108.923 52.6094 108.766C52.6523 108.608 52.7129 108.482 52.791 108.387C52.8691 108.29 52.9629 108.221 53.0723 108.18C53.1829 108.138 53.3066 108.117 53.4434 108.117C53.554 108.117 53.6556 108.131 53.748 108.158C53.8418 108.184 53.9251 108.227 53.998 108.285C54.071 108.342 54.1328 108.419 54.1836 108.516C54.2357 108.611 54.2754 108.727 54.3027 108.865C54.3301 109.003 54.3438 109.165 54.3438 109.352ZM53.9805 109.844V109.291C53.9805 109.163 53.9727 109.051 53.957 108.955C53.9427 108.857 53.9212 108.774 53.8926 108.705C53.8639 108.636 53.8275 108.58 53.7832 108.537C53.7402 108.494 53.6901 108.463 53.6328 108.443C53.5768 108.423 53.5137 108.412 53.4434 108.412C53.3574 108.412 53.2812 108.428 53.2148 108.461C53.1484 108.492 53.0924 108.542 53.0469 108.611C53.0026 108.68 52.9688 108.771 52.9453 108.883C52.9219 108.995 52.9102 109.131 52.9102 109.291V109.844C52.9102 109.971 52.9173 110.084 52.9316 110.182C52.9473 110.279 52.9701 110.364 53 110.436C53.0299 110.506 53.0664 110.564 53.1094 110.609C53.1523 110.655 53.2018 110.689 53.2578 110.711C53.3151 110.732 53.3783 110.742 53.4473 110.742C53.5358 110.742 53.6133 110.725 53.6797 110.691C53.7461 110.658 53.8014 110.605 53.8457 110.533C53.8913 110.46 53.9251 110.367 53.9473 110.254C53.9694 110.139 53.9805 110.003 53.9805 109.844ZM55.2656 109.646L54.9766 109.572L55.1191 108.156H56.5781V108.49H55.4258L55.3398 109.264C55.3919 109.234 55.4577 109.206 55.5371 109.18C55.6178 109.154 55.7103 109.141 55.8145 109.141C55.946 109.141 56.0638 109.163 56.168 109.209C56.2721 109.253 56.3607 109.317 56.4336 109.4C56.5078 109.484 56.5645 109.584 56.6035 109.701C56.6426 109.818 56.6621 109.949 56.6621 110.094C56.6621 110.23 56.6432 110.356 56.6055 110.471C56.569 110.585 56.5137 110.686 56.4395 110.771C56.3652 110.856 56.2715 110.922 56.1582 110.969C56.0462 111.016 55.9141 111.039 55.7617 111.039C55.6471 111.039 55.5384 111.023 55.4355 110.992C55.334 110.96 55.2428 110.911 55.1621 110.846C55.0827 110.779 55.0176 110.697 54.9668 110.6C54.9173 110.501 54.8861 110.385 54.873 110.252H55.2168C55.2324 110.359 55.2637 110.449 55.3105 110.521C55.3574 110.594 55.4186 110.65 55.4941 110.688C55.571 110.724 55.6602 110.742 55.7617 110.742C55.8477 110.742 55.9238 110.727 55.9902 110.697C56.0566 110.667 56.1126 110.624 56.1582 110.568C56.2038 110.512 56.2383 110.445 56.2617 110.365C56.2865 110.286 56.2988 110.197 56.2988 110.098C56.2988 110.008 56.2865 109.924 56.2617 109.848C56.237 109.771 56.1999 109.704 56.1504 109.646C56.1022 109.589 56.043 109.545 55.9727 109.514C55.9023 109.481 55.8216 109.465 55.7305 109.465C55.6094 109.465 55.5176 109.481 55.4551 109.514C55.3939 109.546 55.3307 109.59 55.2656 109.646ZM46.4512 113.156H46.8262V115.08C46.8262 115.294 46.7786 115.471 46.6836 115.613C46.5885 115.755 46.4622 115.862 46.3047 115.934C46.1484 116.004 45.9785 116.039 45.7949 116.039C45.6022 116.039 45.4277 116.004 45.2715 115.934C45.1165 115.862 44.9935 115.755 44.9023 115.613C44.8125 115.471 44.7676 115.294 44.7676 115.08V113.156H45.1406V115.08C45.1406 115.229 45.168 115.351 45.2227 115.447C45.2773 115.544 45.3535 115.615 45.4512 115.662C45.5501 115.709 45.6647 115.732 45.7949 115.732C45.9264 115.732 46.041 115.709 46.1387 115.662C46.2376 115.615 46.3145 115.544 46.3691 115.447C46.4238 115.351 46.4512 115.229 46.4512 115.08V113.156ZM48.4688 113.156V116H48.0977V113.156H48.4688ZM49.3828 113.156V113.465H47.1855V113.156H49.3828ZM51.9395 114.488V114.668C51.9395 114.882 51.9128 115.073 51.8594 115.242C51.806 115.411 51.7292 115.555 51.6289 115.674C51.5286 115.792 51.4082 115.883 51.2676 115.945C51.1283 116.008 50.972 116.039 50.7988 116.039C50.6309 116.039 50.4766 116.008 50.3359 115.945C50.1966 115.883 50.0755 115.792 49.9727 115.674C49.8711 115.555 49.7923 115.411 49.7363 115.242C49.6803 115.073 49.6523 114.882 49.6523 114.668V114.488C49.6523 114.275 49.6797 114.084 49.7344 113.916C49.7904 113.747 49.8691 113.603 49.9707 113.484C50.0723 113.365 50.1927 113.273 50.332 113.211C50.4727 113.148 50.627 113.117 50.7949 113.117C50.9681 113.117 51.1243 113.148 51.2637 113.211C51.4043 113.273 51.5247 113.365 51.625 113.484C51.7266 113.603 51.804 113.747 51.8574 113.916C51.9121 114.084 51.9395 114.275 51.9395 114.488ZM51.5664 114.668V114.484C51.5664 114.315 51.5488 114.165 51.5137 114.035C51.4798 113.905 51.4297 113.796 51.3633 113.707C51.2969 113.618 51.2155 113.551 51.1191 113.506C51.0241 113.46 50.916 113.438 50.7949 113.438C50.6777 113.438 50.5716 113.46 50.4766 113.506C50.3828 113.551 50.3021 113.618 50.2344 113.707C50.168 113.796 50.1165 113.905 50.0801 114.035C50.0436 114.165 50.0254 114.315 50.0254 114.484V114.668C50.0254 114.839 50.0436 114.99 50.0801 115.121C50.1165 115.251 50.1686 115.361 50.2363 115.451C50.3053 115.54 50.3867 115.607 50.4805 115.652C50.5755 115.698 50.6816 115.721 50.7988 115.721C50.9212 115.721 51.0299 115.698 51.125 115.652C51.2201 115.607 51.3001 115.54 51.3652 115.451C51.4316 115.361 51.4818 115.251 51.5156 115.121C51.5495 114.99 51.5664 114.839 51.5664 114.668ZM53.5 113.156V116H53.1289V113.156H53.5ZM54.4141 113.156V113.465H52.2168V113.156H54.4141Z" fill="black"/>
<path d="M127.135 108.156H127.51V110.08C127.51 110.294 127.462 110.471 127.367 110.613C127.272 110.755 127.146 110.862 126.988 110.934C126.832 111.004 126.662 111.039 126.479 111.039C126.286 111.039 126.111 111.004 125.955 110.934C125.8 110.862 125.677 110.755 125.586 110.613C125.496 110.471 125.451 110.294 125.451 110.08V108.156H125.824V110.08C125.824 110.229 125.852 110.351 125.906 110.447C125.961 110.544 126.037 110.615 126.135 110.662C126.234 110.709 126.348 110.732 126.479 110.732C126.61 110.732 126.725 110.709 126.822 110.662C126.921 110.615 126.998 110.544 127.053 110.447C127.107 110.351 127.135 110.229 127.135 110.08V108.156ZM129.791 109.643V109.939H128.838V109.643H129.791ZM131.568 108.156V111H131.191V108.156H131.568ZM132.76 109.436V109.744H131.486V109.436H132.76ZM132.953 108.156V108.465H131.486V108.156H132.953ZM135.172 110.703V111H133.311V110.74L134.242 109.703C134.357 109.576 134.445 109.467 134.508 109.379C134.572 109.289 134.616 109.209 134.641 109.139C134.667 109.067 134.68 108.994 134.68 108.92C134.68 108.826 134.66 108.742 134.621 108.666C134.583 108.589 134.527 108.528 134.453 108.482C134.379 108.437 134.289 108.414 134.184 108.414C134.057 108.414 133.952 108.439 133.867 108.488C133.784 108.536 133.721 108.604 133.68 108.691C133.638 108.779 133.617 108.879 133.617 108.992H133.256C133.256 108.832 133.291 108.686 133.361 108.553C133.432 108.42 133.536 108.314 133.674 108.236C133.812 108.157 133.982 108.117 134.184 108.117C134.363 108.117 134.517 108.149 134.645 108.213C134.772 108.275 134.87 108.364 134.938 108.479C135.007 108.592 135.041 108.725 135.041 108.877C135.041 108.96 135.027 109.045 134.998 109.131C134.971 109.215 134.932 109.3 134.883 109.385C134.835 109.469 134.778 109.553 134.713 109.635C134.649 109.717 134.581 109.798 134.508 109.877L133.746 110.703H135.172ZM137.344 109.352V109.785C137.344 110.018 137.323 110.215 137.281 110.375C137.24 110.535 137.18 110.664 137.102 110.762C137.023 110.859 136.929 110.93 136.818 110.975C136.709 111.018 136.585 111.039 136.447 111.039C136.338 111.039 136.237 111.025 136.145 110.998C136.052 110.971 135.969 110.927 135.895 110.867C135.822 110.806 135.759 110.727 135.707 110.629C135.655 110.531 135.615 110.413 135.588 110.273C135.561 110.134 135.547 109.971 135.547 109.785V109.352C135.547 109.118 135.568 108.923 135.609 108.766C135.652 108.608 135.713 108.482 135.791 108.387C135.869 108.29 135.963 108.221 136.072 108.18C136.183 108.138 136.307 108.117 136.443 108.117C136.554 108.117 136.656 108.131 136.748 108.158C136.842 108.184 136.925 108.227 136.998 108.285C137.071 108.342 137.133 108.419 137.184 108.516C137.236 108.611 137.275 108.727 137.303 108.865C137.33 109.003 137.344 109.165 137.344 109.352ZM136.98 109.844V109.291C136.98 109.163 136.973 109.051 136.957 108.955C136.943 108.857 136.921 108.774 136.893 108.705C136.864 108.636 136.827 108.58 136.783 108.537C136.74 108.494 136.69 108.463 136.633 108.443C136.577 108.423 136.514 108.412 136.443 108.412C136.357 108.412 136.281 108.428 136.215 108.461C136.148 108.492 136.092 108.542 136.047 108.611C136.003 108.68 135.969 108.771 135.945 108.883C135.922 108.995 135.91 109.131 135.91 109.291V109.844C135.91 109.971 135.917 110.084 135.932 110.182C135.947 110.279 135.97 110.364 136 110.436C136.03 110.506 136.066 110.564 136.109 110.609C136.152 110.655 136.202 110.689 136.258 110.711C136.315 110.732 136.378 110.742 136.447 110.742C136.536 110.742 136.613 110.725 136.68 110.691C136.746 110.658 136.801 110.605 136.846 110.533C136.891 110.46 136.925 110.367 136.947 110.254C136.969 110.139 136.98 110.003 136.98 109.844ZM138.996 108.141V111H138.635V108.592L137.906 108.857V108.531L138.939 108.141H138.996ZM129.453 115.693V116H128.031V115.693H129.453ZM128.105 113.156V116H127.729V113.156H128.105ZM130.654 116H130.061L130.064 115.693H130.654C130.857 115.693 131.027 115.651 131.162 115.566C131.298 115.48 131.399 115.361 131.467 115.207C131.536 115.052 131.57 114.871 131.57 114.664V114.49C131.57 114.327 131.551 114.183 131.512 114.057C131.473 113.929 131.415 113.822 131.34 113.734C131.264 113.646 131.172 113.579 131.062 113.533C130.954 113.488 130.83 113.465 130.689 113.465H130.049V113.156H130.689C130.876 113.156 131.046 113.188 131.199 113.25C131.353 113.311 131.485 113.4 131.596 113.518C131.708 113.633 131.794 113.774 131.854 113.939C131.913 114.104 131.943 114.288 131.943 114.494V114.664C131.943 114.87 131.913 115.055 131.854 115.221C131.794 115.385 131.707 115.525 131.594 115.641C131.482 115.757 131.346 115.846 131.188 115.908C131.03 115.969 130.852 116 130.654 116ZM130.262 113.156V116H129.885V113.156H130.262ZM133.52 113.408L132.578 116H132.193L133.277 113.156H133.525L133.52 113.408ZM134.309 116L133.365 113.408L133.359 113.156H133.607L134.695 116H134.309ZM134.26 114.947V115.256H132.662V114.947H134.26ZM137.264 113.156V116H136.885L135.453 113.807V116H135.076V113.156H135.453L136.891 115.355V113.156H137.264Z" fill="black"/>
<path d="M171.135 143.156H171.51V145.08C171.51 145.294 171.462 145.471 171.367 145.613C171.272 145.755 171.146 145.862 170.988 145.934C170.832 146.004 170.662 146.039 170.479 146.039C170.286 146.039 170.111 146.004 169.955 145.934C169.8 145.862 169.677 145.755 169.586 145.613C169.496 145.471 169.451 145.294 169.451 145.08V143.156H169.824V145.08C169.824 145.229 169.852 145.351 169.906 145.447C169.961 145.544 170.037 145.615 170.135 145.662C170.234 145.709 170.348 145.732 170.479 145.732C170.61 145.732 170.725 145.709 170.822 145.662C170.921 145.615 170.998 145.544 171.053 145.447C171.107 145.351 171.135 145.229 171.135 145.08V143.156ZM173.791 144.643V144.939H172.838V144.643H173.791ZM175.568 143.156V146H175.191V143.156H175.568ZM176.76 144.436V144.744H175.486V144.436H176.76ZM176.953 143.156V143.465H175.486V143.156H176.953ZM179.172 145.703V146H177.311V145.74L178.242 144.703C178.357 144.576 178.445 144.467 178.508 144.379C178.572 144.289 178.616 144.209 178.641 144.139C178.667 144.067 178.68 143.994 178.68 143.92C178.68 143.826 178.66 143.742 178.621 143.666C178.583 143.589 178.527 143.528 178.453 143.482C178.379 143.437 178.289 143.414 178.184 143.414C178.057 143.414 177.952 143.439 177.867 143.488C177.784 143.536 177.721 143.604 177.68 143.691C177.638 143.779 177.617 143.879 177.617 143.992H177.256C177.256 143.832 177.291 143.686 177.361 143.553C177.432 143.42 177.536 143.314 177.674 143.236C177.812 143.157 177.982 143.117 178.184 143.117C178.363 143.117 178.517 143.149 178.645 143.213C178.772 143.275 178.87 143.364 178.938 143.479C179.007 143.592 179.041 143.725 179.041 143.877C179.041 143.96 179.027 144.045 178.998 144.131C178.971 144.215 178.932 144.3 178.883 144.385C178.835 144.469 178.778 144.553 178.713 144.635C178.649 144.717 178.581 144.798 178.508 144.877L177.746 145.703H179.172ZM181.344 144.352V144.785C181.344 145.018 181.323 145.215 181.281 145.375C181.24 145.535 181.18 145.664 181.102 145.762C181.023 145.859 180.929 145.93 180.818 145.975C180.709 146.018 180.585 146.039 180.447 146.039C180.338 146.039 180.237 146.025 180.145 145.998C180.052 145.971 179.969 145.927 179.895 145.867C179.822 145.806 179.759 145.727 179.707 145.629C179.655 145.531 179.615 145.413 179.588 145.273C179.561 145.134 179.547 144.971 179.547 144.785V144.352C179.547 144.118 179.568 143.923 179.609 143.766C179.652 143.608 179.713 143.482 179.791 143.387C179.869 143.29 179.963 143.221 180.072 143.18C180.183 143.138 180.307 143.117 180.443 143.117C180.554 143.117 180.656 143.131 180.748 143.158C180.842 143.184 180.925 143.227 180.998 143.285C181.071 143.342 181.133 143.419 181.184 143.516C181.236 143.611 181.275 143.727 181.303 143.865C181.33 144.003 181.344 144.165 181.344 144.352ZM180.98 144.844V144.291C180.98 144.163 180.973 144.051 180.957 143.955C180.943 143.857 180.921 143.774 180.893 143.705C180.864 143.636 180.827 143.58 180.783 143.537C180.74 143.494 180.69 143.463 180.633 143.443C180.577 143.423 180.514 143.412 180.443 143.412C180.357 143.412 180.281 143.428 180.215 143.461C180.148 143.492 180.092 143.542 180.047 143.611C180.003 143.68 179.969 143.771 179.945 143.883C179.922 143.995 179.91 144.131 179.91 144.291V144.844C179.91 144.971 179.917 145.084 179.932 145.182C179.947 145.279 179.97 145.364 180 145.436C180.03 145.506 180.066 145.564 180.109 145.609C180.152 145.655 180.202 145.689 180.258 145.711C180.315 145.732 180.378 145.742 180.447 145.742C180.536 145.742 180.613 145.725 180.68 145.691C180.746 145.658 180.801 145.605 180.846 145.533C180.891 145.46 180.925 145.367 180.947 145.254C180.969 145.139 180.98 145.003 180.98 144.844ZM183.195 143.152H183.227V143.459H183.195C183.004 143.459 182.844 143.49 182.715 143.553C182.586 143.614 182.484 143.697 182.408 143.801C182.333 143.904 182.278 144.02 182.244 144.148C182.212 144.277 182.195 144.408 182.195 144.541V144.959C182.195 145.085 182.21 145.197 182.24 145.295C182.27 145.391 182.311 145.473 182.363 145.539C182.415 145.605 182.474 145.656 182.539 145.689C182.605 145.723 182.674 145.74 182.746 145.74C182.829 145.74 182.904 145.725 182.969 145.693C183.034 145.661 183.089 145.616 183.133 145.559C183.178 145.5 183.213 145.431 183.236 145.352C183.26 145.272 183.271 145.185 183.271 145.09C183.271 145.005 183.261 144.924 183.24 144.846C183.219 144.766 183.188 144.696 183.145 144.635C183.102 144.572 183.048 144.523 182.982 144.488C182.919 144.452 182.842 144.434 182.754 144.434C182.654 144.434 182.56 144.458 182.473 144.508C182.387 144.556 182.316 144.62 182.26 144.699C182.205 144.777 182.174 144.863 182.166 144.955L181.975 144.953C181.993 144.807 182.027 144.683 182.076 144.58C182.127 144.476 182.189 144.391 182.264 144.326C182.339 144.26 182.423 144.212 182.516 144.182C182.609 144.15 182.708 144.135 182.812 144.135C182.954 144.135 183.077 144.161 183.18 144.215C183.283 144.268 183.367 144.34 183.434 144.43C183.5 144.518 183.549 144.618 183.58 144.73C183.613 144.841 183.629 144.955 183.629 145.072C183.629 145.206 183.61 145.332 183.572 145.449C183.535 145.566 183.478 145.669 183.402 145.758C183.328 145.846 183.236 145.915 183.127 145.965C183.018 146.014 182.891 146.039 182.746 146.039C182.592 146.039 182.458 146.008 182.344 145.945C182.229 145.882 182.134 145.797 182.059 145.691C181.983 145.586 181.926 145.469 181.889 145.34C181.851 145.211 181.832 145.08 181.832 144.947V144.777C181.832 144.577 181.852 144.38 181.893 144.188C181.933 143.995 182.003 143.82 182.102 143.664C182.202 143.508 182.34 143.383 182.518 143.291C182.695 143.199 182.921 143.152 183.195 143.152ZM173.781 149.488V149.668C173.781 149.882 173.755 150.073 173.701 150.242C173.648 150.411 173.571 150.555 173.471 150.674C173.37 150.792 173.25 150.883 173.109 150.945C172.97 151.008 172.814 151.039 172.641 151.039C172.473 151.039 172.318 151.008 172.178 150.945C172.038 150.883 171.917 150.792 171.814 150.674C171.713 150.555 171.634 150.411 171.578 150.242C171.522 150.073 171.494 149.882 171.494 149.668V149.488C171.494 149.275 171.521 149.084 171.576 148.916C171.632 148.747 171.711 148.603 171.812 148.484C171.914 148.365 172.035 148.273 172.174 148.211C172.314 148.148 172.469 148.117 172.637 148.117C172.81 148.117 172.966 148.148 173.105 148.211C173.246 148.273 173.367 148.365 173.467 148.484C173.568 148.603 173.646 148.747 173.699 148.916C173.754 149.084 173.781 149.275 173.781 149.488ZM173.408 149.668V149.484C173.408 149.315 173.391 149.165 173.355 149.035C173.322 148.905 173.271 148.796 173.205 148.707C173.139 148.618 173.057 148.551 172.961 148.506C172.866 148.46 172.758 148.438 172.637 148.438C172.52 148.438 172.413 148.46 172.318 148.506C172.225 148.551 172.144 148.618 172.076 148.707C172.01 148.796 171.958 148.905 171.922 149.035C171.885 149.165 171.867 149.315 171.867 149.484V149.668C171.867 149.839 171.885 149.99 171.922 150.121C171.958 150.251 172.01 150.361 172.078 150.451C172.147 150.54 172.229 150.607 172.322 150.652C172.417 150.698 172.523 150.721 172.641 150.721C172.763 150.721 172.872 150.698 172.967 150.652C173.062 150.607 173.142 150.54 173.207 150.451C173.273 150.361 173.324 150.251 173.357 150.121C173.391 149.99 173.408 149.839 173.408 149.668ZM175.973 148.156H176.348V150.08C176.348 150.294 176.3 150.471 176.205 150.613C176.11 150.755 175.984 150.862 175.826 150.934C175.67 151.004 175.5 151.039 175.316 151.039C175.124 151.039 174.949 151.004 174.793 150.934C174.638 150.862 174.515 150.755 174.424 150.613C174.334 150.471 174.289 150.294 174.289 150.08V148.156H174.662V150.08C174.662 150.229 174.689 150.351 174.744 150.447C174.799 150.544 174.875 150.615 174.973 150.662C175.072 150.709 175.186 150.732 175.316 150.732C175.448 150.732 175.562 150.709 175.66 150.662C175.759 150.615 175.836 150.544 175.891 150.447C175.945 150.351 175.973 150.229 175.973 150.08V148.156ZM178.746 150.693V151H177.24V150.693H178.746ZM177.316 148.156V151H176.939V148.156H177.316ZM178.547 149.379V149.686H177.24V149.379H178.547ZM178.727 148.156V148.465H177.24V148.156H178.727ZM181.4 148.156V151H181.021L179.59 148.807V151H179.213V148.156H179.59L181.027 150.355V148.156H181.4Z" fill="black"/>
<path d="M155.135 179.156H155.51V181.08C155.51 181.294 155.462 181.471 155.367 181.613C155.272 181.755 155.146 181.862 154.988 181.934C154.832 182.004 154.662 182.039 154.479 182.039C154.286 182.039 154.111 182.004 153.955 181.934C153.8 181.862 153.677 181.755 153.586 181.613C153.496 181.471 153.451 181.294 153.451 181.08V179.156H153.824V181.08C153.824 181.229 153.852 181.351 153.906 181.447C153.961 181.544 154.037 181.615 154.135 181.662C154.234 181.709 154.348 181.732 154.479 181.732C154.61 181.732 154.725 181.709 154.822 181.662C154.921 181.615 154.998 181.544 155.053 181.447C155.107 181.351 155.135 181.229 155.135 181.08V179.156ZM157.791 180.643V180.939H156.838V180.643H157.791ZM159.568 179.156V182H159.191V179.156H159.568ZM160.76 180.436V180.744H159.486V180.436H160.76ZM160.953 179.156V179.465H159.486V179.156H160.953ZM163.172 181.703V182H161.311V181.74L162.242 180.703C162.357 180.576 162.445 180.467 162.508 180.379C162.572 180.289 162.616 180.209 162.641 180.139C162.667 180.067 162.68 179.994 162.68 179.92C162.68 179.826 162.66 179.742 162.621 179.666C162.583 179.589 162.527 179.528 162.453 179.482C162.379 179.437 162.289 179.414 162.184 179.414C162.057 179.414 161.952 179.439 161.867 179.488C161.784 179.536 161.721 179.604 161.68 179.691C161.638 179.779 161.617 179.879 161.617 179.992H161.256C161.256 179.832 161.291 179.686 161.361 179.553C161.432 179.42 161.536 179.314 161.674 179.236C161.812 179.157 161.982 179.117 162.184 179.117C162.363 179.117 162.517 179.149 162.645 179.213C162.772 179.275 162.87 179.364 162.938 179.479C163.007 179.592 163.041 179.725 163.041 179.877C163.041 179.96 163.027 180.045 162.998 180.131C162.971 180.215 162.932 180.3 162.883 180.385C162.835 180.469 162.778 180.553 162.713 180.635C162.649 180.717 162.581 180.798 162.508 180.877L161.746 181.703H163.172ZM165.344 180.352V180.785C165.344 181.018 165.323 181.215 165.281 181.375C165.24 181.535 165.18 181.664 165.102 181.762C165.023 181.859 164.929 181.93 164.818 181.975C164.709 182.018 164.585 182.039 164.447 182.039C164.338 182.039 164.237 182.025 164.145 181.998C164.052 181.971 163.969 181.927 163.895 181.867C163.822 181.806 163.759 181.727 163.707 181.629C163.655 181.531 163.615 181.413 163.588 181.273C163.561 181.134 163.547 180.971 163.547 180.785V180.352C163.547 180.118 163.568 179.923 163.609 179.766C163.652 179.608 163.713 179.482 163.791 179.387C163.869 179.29 163.963 179.221 164.072 179.18C164.183 179.138 164.307 179.117 164.443 179.117C164.554 179.117 164.656 179.131 164.748 179.158C164.842 179.184 164.925 179.227 164.998 179.285C165.071 179.342 165.133 179.419 165.184 179.516C165.236 179.611 165.275 179.727 165.303 179.865C165.33 180.003 165.344 180.165 165.344 180.352ZM164.98 180.844V180.291C164.98 180.163 164.973 180.051 164.957 179.955C164.943 179.857 164.921 179.774 164.893 179.705C164.864 179.636 164.827 179.58 164.783 179.537C164.74 179.494 164.69 179.463 164.633 179.443C164.577 179.423 164.514 179.412 164.443 179.412C164.357 179.412 164.281 179.428 164.215 179.461C164.148 179.492 164.092 179.542 164.047 179.611C164.003 179.68 163.969 179.771 163.945 179.883C163.922 179.995 163.91 180.131 163.91 180.291V180.844C163.91 180.971 163.917 181.084 163.932 181.182C163.947 181.279 163.97 181.364 164 181.436C164.03 181.506 164.066 181.564 164.109 181.609C164.152 181.655 164.202 181.689 164.258 181.711C164.315 181.732 164.378 181.742 164.447 181.742C164.536 181.742 164.613 181.725 164.68 181.691C164.746 181.658 164.801 181.605 164.846 181.533C164.891 181.46 164.925 181.367 164.947 181.254C164.969 181.139 164.98 181.003 164.98 180.844ZM166.336 180.4H166.594C166.72 180.4 166.824 180.38 166.906 180.338C166.99 180.295 167.051 180.237 167.092 180.164C167.133 180.09 167.154 180.007 167.154 179.914C167.154 179.805 167.136 179.713 167.1 179.639C167.063 179.564 167.008 179.508 166.936 179.471C166.863 179.433 166.77 179.414 166.658 179.414C166.557 179.414 166.467 179.434 166.389 179.475C166.312 179.514 166.251 179.57 166.207 179.643C166.164 179.715 166.143 179.801 166.143 179.9H165.781C165.781 179.756 165.818 179.624 165.891 179.506C165.964 179.387 166.066 179.293 166.197 179.223C166.33 179.152 166.484 179.117 166.658 179.117C166.83 179.117 166.98 179.148 167.109 179.209C167.238 179.269 167.339 179.359 167.41 179.479C167.482 179.597 167.518 179.745 167.518 179.922C167.518 179.993 167.501 180.07 167.467 180.152C167.434 180.233 167.383 180.309 167.312 180.379C167.243 180.449 167.154 180.507 167.043 180.553C166.932 180.597 166.799 180.619 166.645 180.619H166.336V180.4ZM166.336 180.697V180.48H166.645C166.826 180.48 166.975 180.502 167.094 180.545C167.212 180.588 167.305 180.645 167.373 180.717C167.442 180.788 167.49 180.867 167.518 180.953C167.546 181.038 167.561 181.122 167.561 181.207C167.561 181.34 167.538 181.458 167.492 181.561C167.448 181.663 167.385 181.751 167.303 181.822C167.222 181.894 167.127 181.948 167.018 181.984C166.908 182.021 166.789 182.039 166.66 182.039C166.536 182.039 166.42 182.021 166.311 181.986C166.202 181.951 166.107 181.9 166.023 181.834C165.94 181.766 165.875 181.684 165.828 181.586C165.781 181.487 165.758 181.374 165.758 181.248H166.119C166.119 181.347 166.141 181.434 166.184 181.508C166.228 181.582 166.29 181.64 166.371 181.682C166.453 181.722 166.549 181.742 166.66 181.742C166.771 181.742 166.866 181.723 166.945 181.686C167.026 181.646 167.088 181.588 167.131 181.51C167.175 181.432 167.197 181.333 167.197 181.215C167.197 181.096 167.173 180.999 167.123 180.924C167.074 180.847 167.003 180.79 166.912 180.754C166.822 180.716 166.716 180.697 166.594 180.697H166.336ZM157.469 184.156H157.844V186.08C157.844 186.294 157.796 186.471 157.701 186.613C157.606 186.755 157.48 186.862 157.322 186.934C157.166 187.004 156.996 187.039 156.812 187.039C156.62 187.039 156.445 187.004 156.289 186.934C156.134 186.862 156.011 186.755 155.92 186.613C155.83 186.471 155.785 186.294 155.785 186.08V184.156H156.158V186.08C156.158 186.229 156.186 186.351 156.24 186.447C156.295 186.544 156.371 186.615 156.469 186.662C156.568 186.709 156.682 186.732 156.812 186.732C156.944 186.732 157.059 186.709 157.156 186.662C157.255 186.615 157.332 186.544 157.387 186.447C157.441 186.351 157.469 186.229 157.469 186.08V184.156ZM159.951 186.281C159.951 186.215 159.941 186.156 159.92 186.105C159.9 186.053 159.865 186.007 159.814 185.965C159.765 185.923 159.696 185.883 159.607 185.846C159.52 185.808 159.41 185.77 159.275 185.73C159.135 185.689 159.008 185.643 158.895 185.592C158.781 185.54 158.684 185.48 158.604 185.414C158.523 185.348 158.461 185.271 158.418 185.186C158.375 185.1 158.354 185.001 158.354 184.891C158.354 184.78 158.376 184.678 158.422 184.584C158.467 184.49 158.533 184.409 158.617 184.34C158.703 184.27 158.805 184.215 158.924 184.176C159.042 184.137 159.174 184.117 159.32 184.117C159.534 184.117 159.715 184.158 159.863 184.24C160.013 184.321 160.127 184.427 160.205 184.559C160.283 184.689 160.322 184.828 160.322 184.977H159.947C159.947 184.87 159.924 184.775 159.879 184.693C159.833 184.61 159.764 184.545 159.672 184.498C159.579 184.45 159.462 184.426 159.32 184.426C159.186 184.426 159.076 184.446 158.988 184.486C158.901 184.527 158.836 184.581 158.793 184.65C158.751 184.719 158.73 184.798 158.73 184.887C158.73 184.947 158.743 185.001 158.768 185.051C158.794 185.099 158.833 185.144 158.887 185.186C158.941 185.227 159.01 185.266 159.094 185.301C159.178 185.336 159.279 185.37 159.396 185.402C159.558 185.448 159.697 185.499 159.814 185.555C159.932 185.611 160.028 185.674 160.104 185.744C160.18 185.813 160.237 185.892 160.273 185.98C160.311 186.068 160.33 186.167 160.33 186.277C160.33 186.393 160.307 186.498 160.26 186.592C160.213 186.686 160.146 186.766 160.059 186.832C159.971 186.898 159.867 186.95 159.744 186.986C159.623 187.021 159.488 187.039 159.338 187.039C159.206 187.039 159.077 187.021 158.949 186.984C158.823 186.948 158.708 186.893 158.604 186.82C158.501 186.747 158.418 186.658 158.355 186.551C158.294 186.443 158.264 186.318 158.264 186.176H158.639C158.639 186.273 158.658 186.357 158.695 186.428C158.733 186.497 158.785 186.554 158.85 186.6C158.916 186.645 158.991 186.679 159.074 186.701C159.159 186.722 159.247 186.732 159.338 186.732C159.469 186.732 159.581 186.714 159.672 186.678C159.763 186.641 159.832 186.589 159.879 186.521C159.927 186.454 159.951 186.374 159.951 186.281ZM161.729 186.568L162.566 184.156H162.975L161.922 187H161.631L161.729 186.568ZM160.945 184.156L161.775 186.568L161.879 187H161.588L160.537 184.156H160.945ZM164.262 184.408L163.32 187H162.936L164.02 184.156H164.268L164.262 184.408ZM165.051 187L164.107 184.408L164.102 184.156H164.35L165.438 187H165.051ZM165.002 185.947V186.256H163.404V185.947H165.002Z" fill="black"/>
<path d="M80.1348 179.156H80.5098V181.08C80.5098 181.294 80.4622 181.471 80.3672 181.613C80.2721 181.755 80.1458 181.862 79.9883 181.934C79.832 182.004 79.6621 182.039 79.4785 182.039C79.2858 182.039 79.1113 182.004 78.9551 181.934C78.8001 181.862 78.6771 181.755 78.5859 181.613C78.4961 181.471 78.4512 181.294 78.4512 181.08V179.156H78.8242V181.08C78.8242 181.229 78.8516 181.351 78.9062 181.447C78.9609 181.544 79.0371 181.615 79.1348 181.662C79.2337 181.709 79.3483 181.732 79.4785 181.732C79.61 181.732 79.7246 181.709 79.8223 181.662C79.9212 181.615 79.998 181.544 80.0527 181.447C80.1074 181.351 80.1348 181.229 80.1348 181.08V179.156ZM82.791 180.643V180.939H81.8379V180.643H82.791ZM84.5684 179.156V182H84.1914V179.156H84.5684ZM85.7598 180.436V180.744H84.4863V180.436H85.7598ZM85.9531 179.156V179.465H84.4863V179.156H85.9531ZM88.1719 181.703V182H86.3105V181.74L87.2422 180.703C87.3568 180.576 87.4453 180.467 87.5078 180.379C87.5716 180.289 87.6159 180.209 87.6406 180.139C87.6667 180.067 87.6797 179.994 87.6797 179.92C87.6797 179.826 87.6602 179.742 87.6211 179.666C87.5833 179.589 87.5273 179.528 87.4531 179.482C87.3789 179.437 87.2891 179.414 87.1836 179.414C87.0573 179.414 86.9518 179.439 86.8672 179.488C86.7839 179.536 86.7214 179.604 86.6797 179.691C86.638 179.779 86.6172 179.879 86.6172 179.992H86.2559C86.2559 179.832 86.291 179.686 86.3613 179.553C86.4316 179.42 86.5358 179.314 86.6738 179.236C86.8118 179.157 86.9818 179.117 87.1836 179.117C87.3633 179.117 87.5169 179.149 87.6445 179.213C87.7721 179.275 87.8698 179.364 87.9375 179.479C88.0065 179.592 88.041 179.725 88.041 179.877C88.041 179.96 88.0267 180.045 87.998 180.131C87.9707 180.215 87.9323 180.3 87.8828 180.385C87.8346 180.469 87.778 180.553 87.7129 180.635C87.6491 180.717 87.5807 180.798 87.5078 180.877L86.7461 181.703H88.1719ZM90.3438 180.352V180.785C90.3438 181.018 90.3229 181.215 90.2812 181.375C90.2396 181.535 90.1797 181.664 90.1016 181.762C90.0234 181.859 89.929 181.93 89.8184 181.975C89.709 182.018 89.5853 182.039 89.4473 182.039C89.3379 182.039 89.237 182.025 89.1445 181.998C89.0521 181.971 88.9688 181.927 88.8945 181.867C88.8216 181.806 88.7591 181.727 88.707 181.629C88.6549 181.531 88.6152 181.413 88.5879 181.273C88.5605 181.134 88.5469 180.971 88.5469 180.785V180.352C88.5469 180.118 88.5677 179.923 88.6094 179.766C88.6523 179.608 88.7129 179.482 88.791 179.387C88.8691 179.29 88.9629 179.221 89.0723 179.18C89.1829 179.138 89.3066 179.117 89.4434 179.117C89.554 179.117 89.6556 179.131 89.748 179.158C89.8418 179.184 89.9251 179.227 89.998 179.285C90.071 179.342 90.1328 179.419 90.1836 179.516C90.2357 179.611 90.2754 179.727 90.3027 179.865C90.3301 180.003 90.3438 180.165 90.3438 180.352ZM89.9805 180.844V180.291C89.9805 180.163 89.9727 180.051 89.957 179.955C89.9427 179.857 89.9212 179.774 89.8926 179.705C89.8639 179.636 89.8275 179.58 89.7832 179.537C89.7402 179.494 89.6901 179.463 89.6328 179.443C89.5768 179.423 89.5137 179.412 89.4434 179.412C89.3574 179.412 89.2812 179.428 89.2148 179.461C89.1484 179.492 89.0924 179.542 89.0469 179.611C89.0026 179.68 88.9688 179.771 88.9453 179.883C88.9219 179.995 88.9102 180.131 88.9102 180.291V180.844C88.9102 180.971 88.9173 181.084 88.9316 181.182C88.9473 181.279 88.9701 181.364 89 181.436C89.0299 181.506 89.0664 181.564 89.1094 181.609C89.1523 181.655 89.2018 181.689 89.2578 181.711C89.3151 181.732 89.3783 181.742 89.4473 181.742C89.5358 181.742 89.6133 181.725 89.6797 181.691C89.7461 181.658 89.8014 181.605 89.8457 181.533C89.8913 181.46 89.9251 181.367 89.9473 181.254C89.9694 181.139 89.9805 181.003 89.9805 180.844ZM92.7305 181.043V181.34H90.6758V181.127L91.9492 179.156H92.2441L91.9277 179.727L91.0859 181.043H92.7305ZM92.334 179.156V182H91.9727V179.156H92.334ZM82.8379 186.693V187H81.416V186.693H82.8379ZM81.4902 184.156V187H81.1133V184.156H81.4902ZM84.8574 186.096H85.2324C85.2129 186.275 85.1615 186.436 85.0781 186.578C84.9948 186.72 84.877 186.833 84.7246 186.916C84.5723 186.998 84.3822 187.039 84.1543 187.039C83.9876 187.039 83.8359 187.008 83.6992 186.945C83.5638 186.883 83.4473 186.794 83.3496 186.68C83.252 186.564 83.1764 186.425 83.123 186.264C83.071 186.101 83.0449 185.92 83.0449 185.721V185.438C83.0449 185.238 83.071 185.058 83.123 184.896C83.1764 184.734 83.2526 184.594 83.3516 184.479C83.4518 184.363 83.5723 184.273 83.7129 184.211C83.8535 184.148 84.0117 184.117 84.1875 184.117C84.4023 184.117 84.584 184.158 84.7324 184.238C84.8809 184.319 84.9961 184.431 85.0781 184.574C85.1615 184.716 85.2129 184.881 85.2324 185.068H84.8574C84.8392 184.936 84.8053 184.822 84.7559 184.727C84.7064 184.63 84.6361 184.556 84.5449 184.504C84.4538 184.452 84.3346 184.426 84.1875 184.426C84.0612 184.426 83.9499 184.45 83.8535 184.498C83.7585 184.546 83.6784 184.615 83.6133 184.703C83.5495 184.792 83.5013 184.898 83.4688 185.021C83.4362 185.145 83.4199 185.283 83.4199 185.434V185.721C83.4199 185.86 83.4342 185.991 83.4629 186.113C83.4928 186.236 83.5378 186.343 83.5977 186.436C83.6576 186.528 83.7337 186.601 83.8262 186.654C83.9186 186.706 84.028 186.732 84.1543 186.732C84.3145 186.732 84.4421 186.707 84.5371 186.656C84.6322 186.605 84.7038 186.533 84.752 186.438C84.8014 186.342 84.8366 186.229 84.8574 186.096ZM87.373 184.156H87.748V186.08C87.748 186.294 87.7005 186.471 87.6055 186.613C87.5104 186.755 87.3841 186.862 87.2266 186.934C87.0703 187.004 86.9004 187.039 86.7168 187.039C86.5241 187.039 86.3496 187.004 86.1934 186.934C86.0384 186.862 85.9154 186.755 85.8242 186.613C85.7344 186.471 85.6895 186.294 85.6895 186.08V184.156H86.0625V186.08C86.0625 186.229 86.0898 186.351 86.1445 186.447C86.1992 186.544 86.2754 186.615 86.373 186.662C86.472 186.709 86.5866 186.732 86.7168 186.732C86.8483 186.732 86.9629 186.709 87.0605 186.662C87.1595 186.615 87.2363 186.544 87.291 186.447C87.3457 186.351 87.373 186.229 87.373 186.08V184.156ZM89.5332 186.17V184.156H89.9082V186.17C89.9082 186.357 89.8698 186.516 89.793 186.645C89.7161 186.773 89.61 186.872 89.4746 186.939C89.3405 187.006 89.1862 187.039 89.0117 187.039C88.8372 187.039 88.6823 187.009 88.5469 186.949C88.4115 186.889 88.3053 186.798 88.2285 186.676C88.1517 186.553 88.1133 186.399 88.1133 186.213H88.4902C88.4902 186.333 88.5124 186.431 88.5566 186.508C88.6009 186.585 88.6621 186.641 88.7402 186.678C88.8197 186.714 88.9102 186.732 89.0117 186.732C89.1107 186.732 89.1992 186.712 89.2773 186.67C89.3568 186.627 89.4193 186.564 89.4648 186.48C89.5104 186.396 89.5332 186.292 89.5332 186.17Z" fill="black"/>
<path d="M88.9512 111.156V114H88.5742V111.156H88.9512ZM90.668 111.156L89.4863 112.482L88.8223 113.172L88.7598 112.77L89.2598 112.219L90.2148 111.156H90.668ZM90.3047 114L89.252 112.613L89.4766 112.314L90.7539 114H90.3047Z" fill="black"/>
<path d="M120.951 182.156V185H120.574V182.156H120.951ZM122.668 182.156L121.486 183.482L120.822 184.172L120.76 183.77L121.26 183.219L122.215 182.156H122.668ZM122.305 185L121.252 183.613L121.477 183.314L122.754 185H122.305Z" fill="black"/>
<path d="M34.9414 184.281C34.9414 184.215 34.931 184.156 34.9102 184.105C34.8906 184.053 34.8555 184.007 34.8047 183.965C34.7552 183.923 34.6862 183.883 34.5977 183.846C34.5104 183.808 34.3997 183.77 34.2656 183.73C34.125 183.689 33.998 183.643 33.8848 183.592C33.7715 183.54 33.6745 183.48 33.5938 183.414C33.513 183.348 33.4512 183.271 33.4082 183.186C33.3652 183.1 33.3438 183.001 33.3438 182.891C33.3438 182.78 33.3665 182.678 33.4121 182.584C33.4577 182.49 33.5228 182.409 33.6074 182.34C33.6934 182.27 33.7956 182.215 33.9141 182.176C34.0326 182.137 34.1647 182.117 34.3105 182.117C34.5241 182.117 34.7051 182.158 34.8535 182.24C35.0033 182.321 35.1172 182.427 35.1953 182.559C35.2734 182.689 35.3125 182.828 35.3125 182.977H34.9375C34.9375 182.87 34.9147 182.775 34.8691 182.693C34.8236 182.61 34.7546 182.545 34.6621 182.498C34.5697 182.45 34.4525 182.426 34.3105 182.426C34.1764 182.426 34.0658 182.446 33.9785 182.486C33.8913 182.527 33.8262 182.581 33.7832 182.65C33.7415 182.719 33.7207 182.798 33.7207 182.887C33.7207 182.947 33.7331 183.001 33.7578 183.051C33.7839 183.099 33.8236 183.144 33.877 183.186C33.9316 183.227 34.0007 183.266 34.084 183.301C34.1686 183.336 34.2695 183.37 34.3867 183.402C34.5482 183.448 34.6875 183.499 34.8047 183.555C34.9219 183.611 35.0182 183.674 35.0938 183.744C35.1706 183.813 35.2272 183.892 35.2637 183.98C35.3014 184.068 35.3203 184.167 35.3203 184.277C35.3203 184.393 35.2969 184.498 35.25 184.592C35.2031 184.686 35.1361 184.766 35.0488 184.832C34.9616 184.898 34.8568 184.95 34.7344 184.986C34.6133 185.021 34.4779 185.039 34.3281 185.039C34.1966 185.039 34.0671 185.021 33.9395 184.984C33.8132 184.948 33.6979 184.893 33.5938 184.82C33.4909 184.747 33.4082 184.658 33.3457 184.551C33.2845 184.443 33.2539 184.318 33.2539 184.176H33.6289C33.6289 184.273 33.6478 184.357 33.6855 184.428C33.7233 184.497 33.7747 184.554 33.8398 184.6C33.9062 184.645 33.9811 184.679 34.0645 184.701C34.1491 184.722 34.237 184.732 34.3281 184.732C34.4596 184.732 34.571 184.714 34.6621 184.678C34.7533 184.641 34.8223 184.589 34.8691 184.521C34.9173 184.454 34.9414 184.374 34.9414 184.281ZM36.1094 182V185H35.7461V182H36.1094ZM37.4004 182.887L36.4785 183.873L35.9629 184.408L35.9336 184.023L36.3027 183.582L36.959 182.887H37.4004ZM37.0703 185L36.3164 183.992L36.5039 183.67L37.4961 185H37.0703ZM38.166 182V185H37.8027V182H38.166ZM39.9922 184.639V183.551C39.9922 183.467 39.9753 183.395 39.9414 183.334C39.9089 183.271 39.8594 183.223 39.793 183.189C39.7266 183.156 39.6445 183.139 39.5469 183.139C39.4557 183.139 39.3757 183.154 39.3066 183.186C39.2389 183.217 39.1855 183.258 39.1465 183.309C39.1087 183.359 39.0898 183.414 39.0898 183.473H38.7285C38.7285 183.397 38.748 183.322 38.7871 183.248C38.8262 183.174 38.8822 183.107 38.9551 183.047C39.0293 182.986 39.1178 182.938 39.2207 182.902C39.3249 182.866 39.4408 182.848 39.5684 182.848C39.722 182.848 39.8574 182.874 39.9746 182.926C40.0931 182.978 40.1855 183.057 40.252 183.162C40.3197 183.266 40.3535 183.397 40.3535 183.555V184.539C40.3535 184.609 40.3594 184.684 40.3711 184.764C40.3841 184.843 40.403 184.911 40.4277 184.969V185H40.0508C40.0326 184.958 40.0182 184.903 40.0078 184.834C39.9974 184.764 39.9922 184.699 39.9922 184.639ZM40.0547 183.719L40.0586 183.973H39.6934C39.5905 183.973 39.4987 183.981 39.418 183.998C39.3372 184.014 39.2695 184.038 39.2148 184.07C39.1602 184.103 39.1185 184.144 39.0898 184.193C39.0612 184.242 39.0469 184.298 39.0469 184.363C39.0469 184.43 39.0618 184.49 39.0918 184.545C39.1217 184.6 39.1667 184.643 39.2266 184.676C39.2878 184.707 39.3626 184.723 39.4512 184.723C39.5618 184.723 39.6595 184.699 39.7441 184.652C39.8288 184.605 39.8958 184.548 39.9453 184.48C39.9961 184.413 40.0234 184.347 40.0273 184.283L40.1816 184.457C40.1725 184.512 40.1478 184.572 40.1074 184.639C40.0671 184.705 40.013 184.769 39.9453 184.83C39.8789 184.89 39.7995 184.94 39.707 184.98C39.6159 185.02 39.513 185.039 39.3984 185.039C39.2552 185.039 39.1296 185.011 39.0215 184.955C38.9147 184.899 38.8314 184.824 38.7715 184.73C38.7129 184.635 38.6836 184.529 38.6836 184.412C38.6836 184.299 38.7057 184.199 38.75 184.113C38.7943 184.026 38.8581 183.954 38.9414 183.896C39.0247 183.838 39.125 183.794 39.2422 183.764C39.3594 183.734 39.4902 183.719 39.6348 183.719H40.0547ZM42.2539 184.59V182H42.6172V185H42.2852L42.2539 184.59ZM40.832 183.967V183.926C40.832 183.764 40.8516 183.618 40.8906 183.486C40.931 183.354 40.9876 183.24 41.0605 183.145C41.1348 183.049 41.2227 182.977 41.3242 182.926C41.4271 182.874 41.5417 182.848 41.668 182.848C41.8008 182.848 41.9167 182.871 42.0156 182.918C42.1159 182.964 42.2005 183.031 42.2695 183.119C42.3398 183.206 42.3952 183.312 42.4355 183.436C42.4759 183.559 42.5039 183.699 42.5195 183.855V184.035C42.5052 184.19 42.4772 184.329 42.4355 184.453C42.3952 184.577 42.3398 184.682 42.2695 184.77C42.2005 184.857 42.1159 184.924 42.0156 184.971C41.9154 185.016 41.7982 185.039 41.6641 185.039C41.5404 185.039 41.4271 185.012 41.3242 184.959C41.2227 184.906 41.1348 184.831 41.0605 184.734C40.9876 184.638 40.931 184.525 40.8906 184.395C40.8516 184.263 40.832 184.12 40.832 183.967ZM41.1953 183.926V183.967C41.1953 184.072 41.2057 184.171 41.2266 184.264C41.2487 184.356 41.2826 184.438 41.3281 184.508C41.3737 184.578 41.4316 184.633 41.502 184.674C41.5723 184.713 41.6562 184.732 41.7539 184.732C41.8737 184.732 41.972 184.707 42.0488 184.656C42.127 184.605 42.1895 184.538 42.2363 184.455C42.2832 184.372 42.3197 184.281 42.3457 184.184V183.713C42.3301 183.641 42.3073 183.572 42.2773 183.506C42.2487 183.438 42.2109 183.378 42.1641 183.326C42.1185 183.273 42.0618 183.23 41.9941 183.199C41.9277 183.168 41.849 183.152 41.7578 183.152C41.6589 183.152 41.5736 183.173 41.502 183.215C41.4316 183.255 41.3737 183.311 41.3281 183.383C41.2826 183.453 41.2487 183.535 41.2266 183.629C41.2057 183.721 41.1953 183.82 41.1953 183.926Z" fill="black"/>
<path d="M179.951 104.156V107H179.574V104.156H179.951ZM181.668 104.156L180.486 105.482L179.822 106.172L179.76 105.77L180.26 105.219L181.215 104.156H181.668ZM181.305 107L180.252 105.613L180.477 105.314L181.754 107H181.305Z" fill="black"/>
<path d="M179.951 120.156V123H179.574V120.156H179.951ZM181.668 120.156L180.486 121.482L179.822 122.172L179.76 121.77L180.26 121.219L181.215 120.156H181.668ZM181.305 123L180.252 121.613L180.477 121.314L181.754 123H181.305Z" fill="black"/>
</svg>
