<svg width="210" height="297" viewBox="0 0 210 297" fill="none" xmlns="http://www.w3.org/2000/svg">
<rect width="210" height="297" fill="white"/>
<path d="M25 29H125" stroke="black" stroke-width="0.25"/>
<path d="M125 29L185 29" stroke="black" stroke-width="0.25"/>
<path d="M25 69H99" stroke="black" stroke-width="0.25"/>
<path d="M25 129H55" stroke="black" stroke-width="0.25"/>
<path d="M25 160H36" stroke="black" stroke-width="0.25"/>
<path d="M47 160H57" stroke="black" stroke-width="0.25"/>
<path d="M57 160H70" stroke="black" stroke-width="0.25"/>
<path d="M60 148H70" stroke="black" stroke-width="0.25"/>
<path d="M62 129H92" stroke="black" stroke-width="0.25"/>
<path d="M100 129H110" stroke="black" stroke-width="0.25"/>
<path d="M118 129H125.125" stroke="black" stroke-width="0.25"/>
<path d="M125 154H130" stroke="black" stroke-width="0.25"/>
<path d="M138 154H140" stroke="black" stroke-width="0.25"/>
<path d="M125 114H163" stroke="black" stroke-width="0.25"/>
<path d="M163 114H169.125" stroke="black" stroke-width="0.25"/>
<path d="M160 166H185" stroke="black" stroke-width="0.25"/>
<path d="M105 166H125" stroke="black" stroke-width="0.25"/>
<path d="M99 199H105.125" stroke="black" stroke-width="0.25"/>
<path d="M70 199H76" stroke="black" stroke-width="0.25"/>
<path d="M105 229H107" stroke="black" stroke-width="0.25"/>
<path d="M105 229H107" stroke="black" stroke-width="0.25"/>
<path d="M114 229H120" stroke="black" stroke-width="0.25"/>
<path d="M120 229H155" stroke="black" stroke-width="0.25"/>
<path d="M155 269L155 229" stroke="black" stroke-width="0.25"/>
<path d="M76 199H91" stroke="black" stroke-width="0.25"/>
<path d="M76 229H94" stroke="black" stroke-width="0.25"/>
<path d="M45 229H76" stroke="black" stroke-width="0.25"/>
<path d="M101 229H105" stroke="black" stroke-width="0.25"/>
<path d="M105 154H125" stroke="black" stroke-width="0.25"/>
<path d="M140 154H160" stroke="black" stroke-width="0.25"/>
<path d="M140 139H160" stroke="black" stroke-width="0.25"/>
<path d="M179 114H185" stroke="black" stroke-width="0.25"/>
<path d="M111 69H125" stroke="black" stroke-width="0.25"/>
<path d="M45 269H105" stroke="black" stroke-width="0.25"/>
<path d="M105 269H155" stroke="black" stroke-width="0.25"/>
<path d="M120 199H185.125" stroke="black" stroke-width="0.25"/>
<path d="M25 199H70" stroke="black" stroke-width="0.25"/>
<path d="M25 129L25 69" stroke="black" stroke-width="0.25"/>
<path d="M25 199V177" stroke="black" stroke-width="0.25"/>
<path d="M25 177L25 129" stroke="black" stroke-width="0.25"/>
<path d="M25 69L25 29" stroke="black" stroke-width="0.25"/>
<path d="M185 199V29" stroke="black" stroke-width="0.25"/>
<path d="M125 114V29" stroke="black" stroke-width="0.25"/>
<path d="M125 121V114" stroke="black" stroke-width="0.25"/>
<path d="M125 129V127" stroke="black" stroke-width="0.25"/>
<path d="M160 124V114" stroke="black" stroke-width="0.25"/>
<path d="M160 139V133" stroke="black" stroke-width="0.25"/>
<path d="M145 139V114" stroke="black" stroke-width="0.25"/>
<path d="M140 154V139" stroke="black" stroke-width="0.25"/>
<path d="M160 154V139" stroke="black" stroke-width="0.25"/>
<path d="M140 154V139" stroke="black" stroke-width="0.25"/>
<path d="M125 154V129" stroke="black" stroke-width="0.25"/>
<path d="M105 154V129" stroke="black" stroke-width="0.25"/>
<path d="M105 166V154" stroke="black" stroke-width="0.25"/>
<path d="M105 186V166" stroke="black" stroke-width="0.25"/>
<path d="M105 199V195" stroke="black" stroke-width="0.25"/>
<path d="M120 202V199" stroke="black" stroke-width="0.25"/>
<path d="M128 197V177" stroke="black" stroke-width="0.25"/>
<path d="M128 187H166" stroke="black" stroke-width="0.25"/>
<path d="M132.222 197V177" stroke="black" stroke-width="0.25"/>
<path d="M136.442 197V177" stroke="black" stroke-width="0.25"/>
<path d="M140.662 197V177" stroke="black" stroke-width="0.25"/>
<path d="M144.882 197V177" stroke="black" stroke-width="0.25"/>
<path d="M149.102 197V177" stroke="black" stroke-width="0.25"/>
<path d="M153.322 197V177" stroke="black" stroke-width="0.25"/>
<path d="M157.542 197V177" stroke="black" stroke-width="0.25"/>
<path d="M161.762 197V177" stroke="black" stroke-width="0.25"/>
<path d="M128 197H166" stroke="black" stroke-width="0.25"/>
<path d="M128 177H166" stroke="black" stroke-width="0.25"/>
<path d="M120 229V209" stroke="black" stroke-width="0.25"/>
<path d="M105 229V199" stroke="black" stroke-width="0.25"/>
<path d="M76 229V199" stroke="black" stroke-width="0.25"/>
<path d="M105 269V229" stroke="black" stroke-width="0.25"/>
<path d="M45 269V229" stroke="black" stroke-width="0.25"/>
<path d="M160 154L140 139" stroke="black" stroke-width="0.125"/>
<path d="M160 139L140 154" stroke="black" stroke-width="0.125"/>
<path d="M160 156V154" stroke="black" stroke-width="0.25"/>
<path d="M125 166V163" stroke="black" stroke-width="0.25"/>
<path d="M125 156V154" stroke="black" stroke-width="0.25"/>
<path d="M70 199V193" stroke="black" stroke-width="0.25"/>
<path d="M52 199V196" stroke="black" stroke-width="0.25"/>
<path d="M52 199V195" stroke="black" stroke-width="0.25"/>
<path d="M52 187V177" stroke="black" stroke-width="0.25"/>
<path d="M52 184H40" stroke="black" stroke-width="0.25"/>
<path d="M70 185V177" stroke="black" stroke-width="0.25"/>
<path d="M70 139V129" stroke="black" stroke-width="0.25"/>
<path d="M70 148V146" stroke="black" stroke-width="0.25"/>
<path d="M70 160V148" stroke="black" stroke-width="0.25"/>
<path d="M57 177V160" stroke="black" stroke-width="0.25"/>
<path d="M70 177V160" stroke="black" stroke-width="0.25"/>
<path d="M59 177H57" stroke="black" stroke-width="0.25"/>
<path d="M57 177H25" stroke="black" stroke-width="0.25"/>
<path d="M160 166V163" stroke="black" stroke-width="0.25"/>
<path d="M185 166.5V114.5" stroke="black" stroke-width="0.25"/>
<path d="M185 199V166.5" stroke="black" stroke-width="0.25"/>
<path d="M70 177H67" stroke="black" stroke-width="0.25"/>
<path d="M166 197V177" stroke="black" stroke-width="0.25"/>
<path d="M139.177 182.177C139.274 182.079 139.274 181.921 139.177 181.823L137.586 180.232C137.488 180.135 137.33 180.135 137.232 180.232C137.135 180.33 137.135 180.488 137.232 180.586L138.646 182L137.232 183.414C137.135 183.512 137.135 183.67 137.232 183.768C137.33 183.865 137.488 183.865 137.586 183.768L139.177 182.177ZM128 182.25H139V181.75H128V182.25Z" fill="black"/>
</svg>
