<svg width="218" height="305" viewBox="0 0 218 305" fill="none" xmlns="http://www.w3.org/2000/svg">
<g filter="url(#filter0_d_320_1431)">
<rect width="210" height="297" transform="matrix(-1 0 0 1 214 0)" fill="white"/>
<path d="M129 64H29" stroke="black" stroke-width="0.25"/>
<path d="M189 64L129 64" stroke="black" stroke-width="0.25"/>
<path d="M189 104H115" stroke="black" stroke-width="0.25"/>
<path d="M189.125 164H159.125" stroke="black" stroke-width="0.25"/>
<path d="M189 195H178" stroke="black" stroke-width="0.25"/>
<path d="M167 195H157" stroke="black" stroke-width="0.25"/>
<path d="M157 195H144" stroke="black" stroke-width="0.25"/>
<path d="M154 183H144" stroke="black" stroke-width="0.25"/>
<path d="M152.125 164H122.125" stroke="black" stroke-width="0.25"/>
<path d="M114 164H104" stroke="black" stroke-width="0.25"/>
<path d="M96 164H88.875" stroke="black" stroke-width="0.25"/>
<path d="M89 189H84" stroke="black" stroke-width="0.25"/>
<path d="M76 189H74" stroke="black" stroke-width="0.25"/>
<path d="M74 149H69" stroke="black" stroke-width="0.25"/>
<path d="M89 149H83" stroke="black" stroke-width="0.25"/>
<path d="M54 149H29" stroke="black" stroke-width="0.25"/>
<path d="M144 234H109" stroke="black" stroke-width="0.25"/>
<path d="M109 189H89" stroke="black" stroke-width="0.25"/>
<path d="M74 189H54" stroke="black" stroke-width="0.25"/>
<path d="M74.125 174H54.125" stroke="black" stroke-width="0.25"/>
<path d="M103 104H89" stroke="black" stroke-width="0.25"/>
<path d="M96 234H29" stroke="black" stroke-width="0.25"/>
<path d="M189 234H144" stroke="black" stroke-width="0.25"/>
<path d="M189 164V104" stroke="black" stroke-width="0.25"/>
<path d="M189 234V212" stroke="black" stroke-width="0.25"/>
<path d="M189 212V164" stroke="black" stroke-width="0.25"/>
<path d="M189 104V64" stroke="black" stroke-width="0.25"/>
<path d="M29 234L29 64" stroke="black" stroke-width="0.25"/>
<path d="M89 149V64" stroke="black" stroke-width="0.25"/>
<path d="M54 155.001V149" stroke="black" stroke-width="0.25"/>
<path d="M56 149H54" stroke="black" stroke-width="0.25"/>
<path d="M69 149H65" stroke="black" stroke-width="0.25"/>
<path d="M54 174V161" stroke="black" stroke-width="0.25"/>
<path d="M69 174V149" stroke="black" stroke-width="0.25"/>
<path d="M54 189V174" stroke="black" stroke-width="0.25"/>
<path d="M74 189V174" stroke="black" stroke-width="0.25"/>
<path d="M89 189L89 149" stroke="black" stroke-width="0.25"/>
<path d="M109 189V164" stroke="black" stroke-width="0.25"/>
<path d="M109 234V198" stroke="black" stroke-width="0.25"/>
<path d="M109 192V189" stroke="black" stroke-width="0.25"/>
<path d="M94 231V211" stroke="black" stroke-width="0.25"/>
<path d="M89.75 231V211" stroke="black" stroke-width="0.25"/>
<path d="M85.5 231V211" stroke="black" stroke-width="0.25"/>
<path d="M81.25 231V211" stroke="black" stroke-width="0.25"/>
<path d="M77 231V211" stroke="black" stroke-width="0.25"/>
<path d="M72.75 231V211" stroke="black" stroke-width="0.25"/>
<path d="M68.5 231V211" stroke="black" stroke-width="0.25"/>
<path d="M64.25 231V211" stroke="black" stroke-width="0.25"/>
<path d="M60 231V211" stroke="black" stroke-width="0.25"/>
<path d="M94 221H60" stroke="black" stroke-width="0.25"/>
<path d="M94 231H60" stroke="black" stroke-width="0.25"/>
<path d="M109 234H106" stroke="black" stroke-width="0.25"/>
<path d="M94 211H60" stroke="black" stroke-width="0.25"/>
<path d="M64 209H54" stroke="black" stroke-width="0.25"/>
<path d="M54 209H50" stroke="black" stroke-width="0.25"/>
<path d="M40 209H29" stroke="black" stroke-width="0.25"/>
<path d="M37 203V209" stroke="black" stroke-width="0.25"/>
<path d="M37 189V193" stroke="black" stroke-width="0.25"/>
<path d="M37 189H41" stroke="black" stroke-width="0.25"/>
<path d="M49 189H54" stroke="black" stroke-width="0.25"/>
<path d="M29 189H37" stroke="black" stroke-width="0.25"/>
<path d="M54 189L74 174" stroke="black" stroke-width="0.125"/>
<path d="M54 174L74 189" stroke="black" stroke-width="0.125"/>
<path d="M144 234V228" stroke="black" stroke-width="0.25"/>
<path d="M157 234V230" stroke="black" stroke-width="0.25"/>
<path d="M157 222V212" stroke="black" stroke-width="0.25"/>
<path d="M144 220V212" stroke="black" stroke-width="0.25"/>
<path d="M144 174V164" stroke="black" stroke-width="0.25"/>
<path d="M144 183V181" stroke="black" stroke-width="0.25"/>
<path d="M144 195V183" stroke="black" stroke-width="0.25"/>
<path d="M157.125 212V195" stroke="black" stroke-width="0.25"/>
<path d="M144 212V195" stroke="black" stroke-width="0.25"/>
<path d="M155 212H157" stroke="black" stroke-width="0.25"/>
<path d="M157 212H189" stroke="black" stroke-width="0.25"/>
<path d="M54 234V209" stroke="black" stroke-width="0.25"/>
<path d="M144 212H147" stroke="black" stroke-width="0.25"/>
<path d="M82.8232 216.177C82.7256 216.079 82.7256 215.921 82.8232 215.823L84.4142 214.232C84.5118 214.135 84.6701 214.135 84.7678 214.232C84.8654 214.33 84.8654 214.488 84.7678 214.586L83.3536 216L84.7678 217.414C84.8654 217.512 84.8654 217.67 84.7678 217.768C84.6701 217.865 84.5118 217.865 84.4142 217.768L82.8232 216.177ZM94 216.25H83V215.75H94V216.25Z" fill="black"/>
</g>
<defs>
<filter id="filter0_d_320_1431" x="0" y="0" width="218" height="305" filterUnits="userSpaceOnUse" color-interpolation-filters="sRGB">
<feFlood flood-opacity="0" result="BackgroundImageFix"/>
<feColorMatrix in="SourceAlpha" type="matrix" values="0 0 0 0 0 0 0 0 0 0 0 0 0 0 0 0 0 0 127 0" result="hardAlpha"/>
<feOffset dy="4"/>
<feGaussianBlur stdDeviation="2"/>
<feComposite in2="hardAlpha" operator="out"/>
<feColorMatrix type="matrix" values="0 0 0 0 0 0 0 0 0 0 0 0 0 0 0 0 0 0 0.25 0"/>
<feBlend mode="normal" in2="BackgroundImageFix" result="effect1_dropShadow_320_1431"/>
<feBlend mode="normal" in="SourceGraphic" in2="effect1_dropShadow_320_1431" result="shape"/>
</filter>
</defs>
</svg>
