<svg width="210" height="297" viewBox="0 0 210 297" fill="none" xmlns="http://www.w3.org/2000/svg">
<rect width="210" height="297" transform="matrix(-1 0 0 1 210 0)" fill="white"/>
<path d="M125 48H25" stroke="black" stroke-width="0.25"/>
<path d="M185 48L125 48" stroke="black" stroke-width="0.25"/>
<path d="M185 88H111" stroke="black" stroke-width="0.25"/>
<path d="M185.125 148H155.125" stroke="black" stroke-width="0.25"/>
<path d="M185 179H174" stroke="black" stroke-width="0.25"/>
<path d="M163 179H153" stroke="black" stroke-width="0.25"/>
<path d="M153 179H140" stroke="black" stroke-width="0.25"/>
<path d="M150 167H140" stroke="black" stroke-width="0.25"/>
<path d="M148.125 148H118.125" stroke="black" stroke-width="0.25"/>
<path d="M110 148H100" stroke="black" stroke-width="0.25"/>
<path d="M85 173H80" stroke="black" stroke-width="0.25"/>
<path d="M72 173H70" stroke="black" stroke-width="0.25"/>
<path d="M70 133H65" stroke="black" stroke-width="0.25"/>
<path d="M85 133H79" stroke="black" stroke-width="0.25"/>
<path d="M50 133H25" stroke="black" stroke-width="0.25"/>
<path d="M140 218H122" stroke="black" stroke-width="0.25"/>
<path d="M140 202H105" stroke="black" stroke-width="0.25"/>
<path d="M105 173H85" stroke="black" stroke-width="0.25"/>
<path d="M70 173H50" stroke="black" stroke-width="0.25"/>
<path d="M70.125 158H50.125" stroke="black" stroke-width="0.25"/>
<path d="M99 88H85" stroke="black" stroke-width="0.25"/>
<path d="M88 218H25" stroke="black" stroke-width="0.25"/>
<path d="M185 218H140" stroke="black" stroke-width="0.25"/>
<path d="M185 148V88" stroke="black" stroke-width="0.25"/>
<path d="M185 218V196" stroke="black" stroke-width="0.25"/>
<path d="M185 179V148" stroke="black" stroke-width="0.25"/>
<path d="M185 88V48" stroke="black" stroke-width="0.25"/>
<path d="M25 218L25 48" stroke="black" stroke-width="0.25"/>
<path d="M85 133V48" stroke="black" stroke-width="0.25"/>
<path d="M50 139.001V133" stroke="black" stroke-width="0.25"/>
<path d="M52 133H50" stroke="black" stroke-width="0.25"/>
<path d="M65 133H61" stroke="black" stroke-width="0.25"/>
<path d="M50 158V145" stroke="black" stroke-width="0.25"/>
<path d="M65 158V133" stroke="black" stroke-width="0.25"/>
<path d="M50 173V158" stroke="black" stroke-width="0.25"/>
<path d="M70 173V158" stroke="black" stroke-width="0.25"/>
<path d="M85 173V142" stroke="black" stroke-width="0.25"/>
<path d="M85 136V133" stroke="black" stroke-width="0.25"/>
<path d="M105 173V148" stroke="black" stroke-width="0.25"/>
<path d="M105 218V202" stroke="black" stroke-width="0.25"/>
<path d="M105 202V201" stroke="black" stroke-width="0.25"/>
<path d="M105 193V173" stroke="black" stroke-width="0.25"/>
<path d="M90 215V195" stroke="black" stroke-width="0.25"/>
<path d="M85.75 215V195" stroke="black" stroke-width="0.25"/>
<path d="M81.5 215V195" stroke="black" stroke-width="0.25"/>
<path d="M77.25 215V195" stroke="black" stroke-width="0.25"/>
<path d="M73 215V195" stroke="black" stroke-width="0.25"/>
<path d="M68.75 215V195" stroke="black" stroke-width="0.25"/>
<path d="M64.5 215V195" stroke="black" stroke-width="0.25"/>
<path d="M60.25 215V195" stroke="black" stroke-width="0.25"/>
<path d="M56 215V195" stroke="black" stroke-width="0.25"/>
<path d="M90 205H56" stroke="black" stroke-width="0.25"/>
<path d="M90 215H56" stroke="black" stroke-width="0.25"/>
<path d="M105 218H102" stroke="black" stroke-width="0.25"/>
<path d="M122 218H119" stroke="black" stroke-width="0.25"/>
<path d="M109 218H105" stroke="black" stroke-width="0.25"/>
<path d="M92 218H88" stroke="black" stroke-width="0.25"/>
<path d="M88 223V218" stroke="black" stroke-width="0.25"/>
<path d="M88 231V249" stroke="black" stroke-width="0.25"/>
<path d="M122 223V218" stroke="black" stroke-width="0.25"/>
<path d="M122 231V249" stroke="black" stroke-width="0.25"/>
<path d="M88 249H122" stroke="black" stroke-width="0.25"/>
<path d="M90 195H56" stroke="black" stroke-width="0.25"/>
<path d="M60 193H50" stroke="black" stroke-width="0.25"/>
<path d="M50 193H46" stroke="black" stroke-width="0.25"/>
<path d="M36 193H25" stroke="black" stroke-width="0.25"/>
<path d="M33 187V193" stroke="black" stroke-width="0.25"/>
<path d="M33 173V177" stroke="black" stroke-width="0.25"/>
<path d="M33 173H37" stroke="black" stroke-width="0.25"/>
<path d="M45 173H50" stroke="black" stroke-width="0.25"/>
<path d="M25 173H33" stroke="black" stroke-width="0.25"/>
<path d="M50 173L70 158" stroke="black" stroke-width="0.125"/>
<path d="M50 158L70 173" stroke="black" stroke-width="0.125"/>
<path d="M25 218L50 193" stroke="black" stroke-width="0.125"/>
<path d="M25 193L50 218" stroke="black" stroke-width="0.125"/>
<path d="M140 218V212" stroke="black" stroke-width="0.25"/>
<path d="M153 218V214" stroke="black" stroke-width="0.25"/>
<path d="M153 206V196" stroke="black" stroke-width="0.25"/>
<path d="M140 204V196" stroke="black" stroke-width="0.25"/>
<path d="M140 158V148" stroke="black" stroke-width="0.25"/>
<path d="M140 167V165" stroke="black" stroke-width="0.25"/>
<path d="M140 179V167" stroke="black" stroke-width="0.25"/>
<path d="M153 196V179" stroke="black" stroke-width="0.25"/>
<path d="M185 196V179" stroke="black" stroke-width="0.25"/>
<path d="M140 196V179" stroke="black" stroke-width="0.25"/>
<path d="M151 196H153" stroke="black" stroke-width="0.25"/>
<path d="M153 196H185" stroke="black" stroke-width="0.25"/>
<path d="M50 218V193" stroke="black" stroke-width="0.25"/>
<path d="M140 196H143" stroke="black" stroke-width="0.25"/>
<path d="M78.8232 200.177C78.7256 200.079 78.7256 199.921 78.8232 199.823L80.4142 198.232C80.5118 198.135 80.6701 198.135 80.7678 198.232C80.8654 198.33 80.8654 198.488 80.7678 198.586L79.3536 200L80.7678 201.414C80.8654 201.512 80.8654 201.67 80.7678 201.768C80.6701 201.865 80.5118 201.865 80.4142 201.768L78.8232 200.177ZM90 200.25H79V199.75H90V200.25Z" fill="black"/>
<path d="M25 193L33 173" stroke="black" stroke-width="0.125"/>
<path d="M25 173L33 193" stroke="black" stroke-width="0.125"/>
</svg>
