<svg width="210" height="297" viewBox="0 0 210 297" fill="none" xmlns="http://www.w3.org/2000/svg">
<rect width="210" height="297" fill="white"/>
<line x1="21.125" y1="23" x2="21.125" y2="263" stroke="black" stroke-width="0.5"/>
<line x1="48.125" y1="103" x2="48.125" y2="168" stroke="black" stroke-width="0.5"/>
<line x1="48.125" y1="43" x2="48.125" y2="83" stroke="black" stroke-width="0.5"/>
<line x1="48.125" y1="188" x2="48.125" y2="242" stroke="black" stroke-width="0.5"/>
<line x1="58.125" y1="188" x2="58.125" y2="263" stroke="black" stroke-width="0.5"/>
<line x1="41.125" y1="23" x2="41.125" y2="43" stroke="black" stroke-width="0.5"/>
<line x1="58.125" y1="23" x2="58.125" y2="43" stroke="black" stroke-width="0.5"/>
<line x1="178.125" y1="23" x2="178.125" y2="43" stroke="black" stroke-width="0.5"/>
<line x1="178.125" y1="43" x2="178.125" y2="83" stroke="black" stroke-width="0.5"/>
<line x1="142.125" y1="43" x2="142.125" y2="83" stroke="black" stroke-width="0.5"/>
<line x1="168.125" y1="103" x2="168.125" y2="168" stroke="black" stroke-width="0.5"/>
<line x1="158.125" y1="188" x2="158.125" y2="193" stroke="black" stroke-width="0.5"/>
<line x1="142.125" y1="188" x2="142.125" y2="198" stroke="black" stroke-width="0.5"/>
<line x1="63.125" y1="188" x2="63.125" y2="198" stroke="black" stroke-width="0.5"/>
<line x1="68.125" y1="188" x2="68.125" y2="198" stroke="black" stroke-width="0.5"/>
<line x1="66.875" y1="188" x2="66.875" y2="198" stroke="black" stroke-width="0.5"/>
<line x1="65.625" y1="188" x2="65.625" y2="198" stroke="black" stroke-width="0.5"/>
<line x1="64.375" y1="188" x2="64.375" y2="198" stroke="black" stroke-width="0.5"/>
<line x1="73.125" y1="188" x2="73.125" y2="198" stroke="black" stroke-width="0.5"/>
<line x1="74.375" y1="188" x2="74.375" y2="198" stroke="black" stroke-width="0.5"/>
<line x1="75.625" y1="188" x2="75.625" y2="198" stroke="black" stroke-width="0.5"/>
<line x1="76.875" y1="188" x2="76.875" y2="198" stroke="black" stroke-width="0.5"/>
<line x1="78.125" y1="188" x2="78.125" y2="198" stroke="black" stroke-width="0.5"/>
<line x1="142.125" y1="198" x2="142.125" y2="208" stroke="black" stroke-width="0.5"/>
<line x1="168.125" y1="225" x2="168.125" y2="242" stroke="black" stroke-width="0.5"/>
<line x1="168.125" y1="188" x2="168.125" y2="208" stroke="black" stroke-width="0.5"/>
<line x1="168.125" y1="208" x2="168.125" y2="218" stroke="black" stroke-width="0.5"/>
<line x1="162.125" y1="208" x2="162.125" y2="218" stroke="black" stroke-width="0.5"/>
<line x1="168.125" y1="218" x2="168.125" y2="225" stroke="black" stroke-width="0.5"/>
<line x1="178.125" y1="168" x2="178.125" y2="188" stroke="black" stroke-width="0.5"/>
<line x1="142.125" y1="108" x2="142.125" y2="113" stroke="black" stroke-width="0.5"/>
<line x1="142.125" y1="103" x2="142.125" y2="108" stroke="black" stroke-width="0.5"/>
<line x1="142.125" y1="113" x2="142.125" y2="123" stroke="black" stroke-width="0.5"/>
<line x1="142.125" y1="123" x2="142.125" y2="138" stroke="black" stroke-width="0.5"/>
<line x1="142.125" y1="138" x2="142.125" y2="153" stroke="black" stroke-width="0.5"/>
<line x1="142.125" y1="153" x2="142.125" y2="168" stroke="black" stroke-width="0.5"/>
<line x1="128.125" y1="103" x2="128.125" y2="123" stroke="black" stroke-width="0.5"/>
<line x1="58.125" y1="123" x2="58.125" y2="168" stroke="black" stroke-width="0.5"/>
<line x1="29.125" y1="168" x2="29.125" y2="188" stroke="black" stroke-width="0.5"/>
<line x1="29.125" y1="168" x2="29.125" y2="188" stroke="black" stroke-width="0.5"/>
<line x1="29.125" y1="83" x2="29.125" y2="103" stroke="black" stroke-width="0.5"/>
<line x1="13.125" y1="83" x2="13.125" y2="103" stroke="black" stroke-width="0.5"/>
<line x1="11.125" y1="83" x2="11.125" y2="103" stroke="black" stroke-width="0.5"/>
<line x1="9.125" y1="83" x2="9.125" y2="103" stroke="black" stroke-width="0.5"/>
<line x1="90.125" y1="168" x2="90.125" y2="178" stroke="black" stroke-width="0.5"/>
<line x1="100.625" y1="168" x2="100.625" y2="178" stroke="black" stroke-width="0.5"/>
<line x1="98" y1="168" x2="98" y2="178" stroke="black" stroke-width="0.5"/>
<line x1="95.37" y1="168" x2="95.37" y2="178" stroke="black" stroke-width="0.5"/>
<line x1="92.74" y1="168" x2="92.74" y2="178" stroke="black" stroke-width="0.5"/>
<line x1="112.625" y1="168" x2="112.625" y2="178" stroke="black" stroke-width="0.5"/>
<line x1="115.25" y1="168" x2="115.25" y2="178" stroke="black" stroke-width="0.5"/>
<line x1="117.75" y1="168" x2="117.75" y2="178" stroke="black" stroke-width="0.5"/>
<line x1="120.37" y1="168" x2="120.37" y2="178" stroke="black" stroke-width="0.5"/>
<line x1="123.125" y1="168" x2="123.125" y2="178" stroke="black" stroke-width="0.5"/>
<line x1="99.125" y1="103" x2="99.125" y2="123" stroke="black" stroke-width="0.5"/>
<line x1="79.125" y1="103" x2="79.125" y2="123" stroke="black" stroke-width="0.5"/>
<line x1="69.125" y1="103" x2="69.125" y2="123" stroke="black" stroke-width="0.5"/>
<line x1="58.125" y1="103" x2="58.125" y2="123" stroke="black" stroke-width="0.5"/>
<line x1="63.125" y1="103" x2="63.125" y2="108" stroke="black" stroke-width="0.5"/>
<line x1="41.125" y1="103" x2="41.125" y2="108" stroke="black" stroke-width="0.5"/>
<line x1="38.125" y1="103" x2="38.125" y2="108" stroke="black" stroke-width="0.5"/>
<line x1="48.125" y1="108" x2="48.125" y2="113" stroke="black" stroke-width="0.5"/>
<line x1="89.125" y1="108" x2="89.125" y2="123" stroke="black" stroke-width="0.5"/>
<line x1="158.125" y1="103" x2="158.125" y2="108" stroke="black" stroke-width="0.5"/>
<line x1="178.125" y1="103" x2="178.125" y2="168" stroke="black" stroke-width="0.5"/>
<line x1="58.125" y1="43" x2="58.125" y2="83" stroke="black" stroke-width="0.5"/>
<line x1="178.125" y1="83" x2="178.125" y2="103" stroke="black" stroke-width="0.5"/>
<line x1="78.125" y1="43" x2="78.125" y2="83" stroke="black" stroke-width="0.5"/>
<line x1="142.125" y1="33" x2="142.125" y2="43" stroke="black" stroke-width="0.5"/>
<line x1="150.125" y1="33" x2="150.125" y2="43" stroke="black" stroke-width="0.5"/>
<line x1="158.125" y1="23" x2="158.125" y2="33" stroke="black" stroke-width="0.5"/>
<line x1="168.125" y1="23" x2="168.125" y2="33" stroke="black" stroke-width="0.5"/>
<line x1="184.125" y1="33" x2="184.125" y2="43" stroke="black" stroke-width="0.5"/>
<line x1="186.125" y1="33" x2="186.125" y2="43" stroke="black" stroke-width="0.5"/>
<line x1="188.125" y1="33" x2="188.125" y2="43" stroke="black" stroke-width="0.5"/>
<line x1="163.125" y1="27" x2="163.125" y2="33" stroke="black" stroke-width="0.5"/>
<line x1="142.125" y1="23" x2="142.125" y2="33" stroke="black" stroke-width="0.5"/>
<path d="M21 43H41" stroke="black" stroke-width="0.5"/>
<path d="M21 23H41" stroke="black" stroke-width="0.5"/>
<path d="M41 43H58.25" stroke="black" stroke-width="0.5"/>
<path d="M58 63H78" stroke="black" stroke-width="0.5"/>
<path d="M58 43H178" stroke="black" stroke-width="0.5"/>
<path d="M78 83H142" stroke="black" stroke-width="0.5"/>
<line x1="90.125" y1="83" x2="90.125" y2="93" stroke="black" stroke-width="0.5"/>
<line x1="100.625" y1="83" x2="100.625" y2="93" stroke="black" stroke-width="0.5"/>
<line x1="98" y1="83" x2="98" y2="93" stroke="black" stroke-width="0.5"/>
<line x1="95.37" y1="83" x2="95.37" y2="93" stroke="black" stroke-width="0.5"/>
<line x1="92.74" y1="83" x2="92.74" y2="93" stroke="black" stroke-width="0.5"/>
<line x1="112.625" y1="83" x2="112.625" y2="93" stroke="black" stroke-width="0.5"/>
<line x1="115.25" y1="83" x2="115.25" y2="93" stroke="black" stroke-width="0.5"/>
<line x1="117.75" y1="83" x2="117.75" y2="93" stroke="black" stroke-width="0.5"/>
<line x1="120.37" y1="83" x2="120.37" y2="93" stroke="black" stroke-width="0.5"/>
<line x1="123.125" y1="83" x2="123.125" y2="93" stroke="black" stroke-width="0.5"/>
<path d="M90 93H123.25" stroke="black" stroke-width="0.5"/>
<path d="M142 83H178.25" stroke="black" stroke-width="0.5"/>
<path d="M178 83H198.25" stroke="black" stroke-width="0.5"/>
<path d="M178 93H198.25" stroke="black" stroke-width="0.5"/>
<path d="M142 23H178.25" stroke="black" stroke-width="0.5"/>
<path d="M142 33H178" stroke="black" stroke-width="0.5"/>
<path d="M158 27H168" stroke="black" stroke-width="0.5"/>
<path d="M178 43H188.25" stroke="black" stroke-width="0.5"/>
<line x1="184.125" y1="93" x2="184.125" y2="103" stroke="black" stroke-width="0.5"/>
<line x1="186.125" y1="93" x2="186.125" y2="103" stroke="black" stroke-width="0.5"/>
<line x1="188.125" y1="93" x2="188.125" y2="103" stroke="black" stroke-width="0.5"/>
<line x1="198.125" y1="83" x2="198.125" y2="93" stroke="black" stroke-width="0.5"/>
<path d="M178 103H188.25" stroke="black" stroke-width="0.5"/>
<path d="M178 93H188.25" stroke="black" stroke-width="0.5"/>
<path d="M178 33H188.25" stroke="black" stroke-width="0.5"/>
<path d="M158 28.5H168" stroke="black" stroke-width="0.5"/>
<path d="M158 30H168" stroke="black" stroke-width="0.5"/>
<path d="M158 31.5H168" stroke="black" stroke-width="0.5"/>
<path d="M41 23H58.25" stroke="black" stroke-width="0.5"/>
<path d="M58 103L168.25 103" stroke="black" stroke-width="0.5"/>
<path d="M21 103H48.25" stroke="black" stroke-width="0.5"/>
<path d="M21 83H48.25" stroke="black" stroke-width="0.5"/>
<path d="M9 83H21" stroke="black" stroke-width="0.5"/>
<line x1="13.125" y1="168" x2="13.125" y2="188" stroke="black" stroke-width="0.5"/>
<line x1="11.125" y1="168" x2="11.125" y2="188" stroke="black" stroke-width="0.5"/>
<line x1="9.125" y1="168" x2="9.125" y2="188" stroke="black" stroke-width="0.5"/>
<path d="M9 168H21" stroke="black" stroke-width="0.5"/>
<line x1="185.875" y1="188" x2="185.875" y2="168" stroke="black" stroke-width="0.5"/>
<line x1="187.875" y1="188" x2="187.875" y2="168" stroke="black" stroke-width="0.5"/>
<line x1="189.875" y1="188" x2="189.875" y2="168" stroke="black" stroke-width="0.5"/>
<path d="M190 188H178" stroke="black" stroke-width="0.5"/>
<path d="M190 168H178" stroke="black" stroke-width="0.5"/>
<path d="M9 188H21" stroke="black" stroke-width="0.5"/>
<path d="M9 103H21" stroke="black" stroke-width="0.5"/>
<path d="M21 73H48" stroke="black" stroke-width="0.5"/>
<path d="M21 63H48" stroke="black" stroke-width="0.5"/>
<path d="M21 53H48" stroke="black" stroke-width="0.5"/>
<path d="M142 108L168 108" stroke="black" stroke-width="0.5"/>
<path d="M142 113L168 113" stroke="black" stroke-width="0.5"/>
<path d="M142 123L168 123" stroke="black" stroke-width="0.5"/>
<path d="M142 138L168 138" stroke="black" stroke-width="0.5"/>
<path d="M21 138L48 138" stroke="black" stroke-width="0.5"/>
<path d="M21 153L48 153" stroke="black" stroke-width="0.5"/>
<path d="M21 168L48.25 168" stroke="black" stroke-width="0.5"/>
<path d="M21 188L48.25 188" stroke="black" stroke-width="0.5"/>
<path d="M21 193L48 193" stroke="black" stroke-width="0.5"/>
<path d="M21 198L48 198" stroke="black" stroke-width="0.5"/>
<path d="M21 208L48 208" stroke="black" stroke-width="0.5"/>
<path d="M21 225L48 225" stroke="black" stroke-width="0.5"/>
<path d="M58 188H168.25" stroke="black" stroke-width="0.5"/>
<path d="M63 198H78.25" stroke="black" stroke-width="0.5"/>
<path d="M142 153L168 153" stroke="black" stroke-width="0.5"/>
<path d="M142 193L168.25 193" stroke="black" stroke-width="0.5"/>
<path d="M142 198L168.25 198" stroke="black" stroke-width="0.5"/>
<path d="M142 208L168.25 208" stroke="black" stroke-width="0.5"/>
<path d="M142 225L168.25 225" stroke="black" stroke-width="0.5"/>
<path d="M142 242L178 242" stroke="black" stroke-width="0.5"/>
<path d="M142 263L178.25 263" stroke="black" stroke-width="0.5"/>
<path d="M162 218L168.25 218" stroke="black" stroke-width="0.5"/>
<path d="M99 123L128 123" stroke="black" stroke-width="0.5"/>
<path d="M79 123L99 123" stroke="black" stroke-width="0.5"/>
<path d="M58 168H168.25" stroke="black" stroke-width="0.5"/>
<path d="M90 178H123.25" stroke="black" stroke-width="0.5"/>
<path d="M58 123L79 123" stroke="black" stroke-width="0.5"/>
<path d="M21 123L48 123" stroke="black" stroke-width="0.5"/>
<path d="M79 108L99 108" stroke="black" stroke-width="0.5"/>
<path d="M58 108H63" stroke="black" stroke-width="0.5"/>
<path d="M38 108H41" stroke="black" stroke-width="0.5"/>
<path d="M21 108H38" stroke="black" stroke-width="0.5"/>
<path d="M41 108H48" stroke="black" stroke-width="0.5"/>
<path d="M21 113H48" stroke="black" stroke-width="0.5"/>
<path d="M63 108H69" stroke="black" stroke-width="0.5"/>
<path d="M21 242H58" stroke="black" stroke-width="0.5"/>
<path d="M21 263H58.25" stroke="black" stroke-width="0.5"/>
<line x1="142.125" y1="225" x2="142.125" y2="242" stroke="black" stroke-width="0.5"/>
<line x1="142.125" y1="242" x2="142.125" y2="263" stroke="black" stroke-width="0.5"/>
<line x1="178.125" y1="188" x2="178.125" y2="263" stroke="black" stroke-width="0.5"/>
<line x1="142.125" y1="208" x2="142.125" y2="225" stroke="black" stroke-width="0.5"/>
</svg>
