<svg width="210" height="297" viewBox="0 0 210 297" fill="none" xmlns="http://www.w3.org/2000/svg">
<rect width="210" height="297" fill="white"/>
<line x1="21.125" y1="34" x2="21.125" y2="256.125" stroke="black" stroke-width="0.25"/>
<line x1="48.125" y1="49" x2="48.125" y2="240" stroke="black" stroke-width="0.25"/>
<line x1="58" y1="167.875" x2="59" y2="167.875" stroke="black" stroke-width="0.25"/>
<line x1="178.125" y1="19" x2="178.125" y2="83" stroke="black" stroke-width="0.25"/>
<line x1="142.125" y1="19" x2="142.125" y2="83" stroke="black" stroke-width="0.25"/>
<line x1="152.125" y1="66" x2="152.125" y2="83" stroke="black" stroke-width="0.25"/>
<line x1="168.125" y1="103" x2="168.125" y2="168" stroke="black" stroke-width="0.25"/>
<line x1="158.125" y1="188" x2="158.125" y2="193" stroke="black" stroke-width="0.25"/>
<line x1="142.125" y1="188" x2="142.125" y2="198" stroke="black" stroke-width="0.25"/>
<line x1="142.125" y1="198" x2="142.125" y2="208" stroke="black" stroke-width="0.25"/>
<line x1="168.125" y1="225" x2="168.125" y2="240" stroke="black" stroke-width="0.25"/>
<line x1="168.125" y1="188" x2="168.125" y2="208" stroke="black" stroke-width="0.25"/>
<line x1="168.125" y1="208" x2="168.125" y2="218" stroke="black" stroke-width="0.25"/>
<line x1="168.125" y1="218" x2="168.125" y2="225" stroke="black" stroke-width="0.25"/>
<line x1="178.125" y1="168" x2="178.125" y2="188" stroke="black" stroke-width="0.25"/>
<line x1="142.125" y1="108" x2="142.125" y2="113" stroke="black" stroke-width="0.25"/>
<line x1="142.125" y1="103" x2="142.125" y2="108" stroke="black" stroke-width="0.25"/>
<line x1="142.125" y1="113" x2="142.125" y2="123" stroke="black" stroke-width="0.25"/>
<line x1="142.125" y1="123" x2="142.125" y2="138" stroke="black" stroke-width="0.25"/>
<line x1="142.125" y1="138" x2="142.125" y2="153" stroke="black" stroke-width="0.25"/>
<line x1="142.125" y1="153" x2="142.125" y2="168" stroke="black" stroke-width="0.25"/>
<line x1="128.125" y1="103" x2="128.125" y2="123" stroke="black" stroke-width="0.25"/>
<line x1="58.125" y1="123" x2="58.125" y2="168" stroke="black" stroke-width="0.25"/>
<line x1="58.125" y1="188" x2="58.125" y2="256" stroke="black" stroke-width="0.25"/>
<line x1="100.625" y1="168" x2="100.625" y2="178" stroke="black" stroke-width="0.25"/>
<line x1="112.625" y1="168" x2="112.625" y2="178" stroke="black" stroke-width="0.25"/>
<line x1="115.25" y1="168" x2="115.25" y2="178" stroke="black" stroke-width="0.25"/>
<line x1="117.75" y1="168" x2="117.75" y2="178" stroke="black" stroke-width="0.25"/>
<line x1="120.37" y1="168" x2="120.37" y2="178" stroke="black" stroke-width="0.25"/>
<line x1="123.125" y1="168" x2="123.125" y2="178" stroke="black" stroke-width="0.25"/>
<line x1="58.125" y1="103" x2="58.125" y2="123" stroke="black" stroke-width="0.25"/>
<line x1="71.125" y1="103" x2="71.125" y2="123" stroke="black" stroke-width="0.25"/>
<line x1="84.125" y1="103" x2="84.125" y2="123" stroke="black" stroke-width="0.25"/>
<line x1="114.125" y1="103" x2="114.125" y2="123" stroke="black" stroke-width="0.25"/>
<line x1="48.125" y1="108" x2="48.125" y2="113" stroke="black" stroke-width="0.25"/>
<line x1="162.125" y1="103" x2="162.125" y2="108" stroke="black" stroke-width="0.25"/>
<line x1="178.125" y1="103" x2="178.125" y2="168" stroke="black" stroke-width="0.25"/>
<line x1="58.125" y1="49" x2="58.125" y2="83" stroke="black" stroke-width="0.25"/>
<line x1="58.125" y1="34" x2="58.125" y2="49" stroke="black" stroke-width="0.25"/>
<line x1="152.125" y1="34" x2="152.125" y2="50" stroke="black" stroke-width="0.25"/>
<line x1="152.125" y1="58" x2="152.125" y2="66" stroke="black" stroke-width="0.25"/>
<line x1="152.125" y1="50" x2="152.125" y2="58" stroke="black" stroke-width="0.25"/>
<line x1="178.125" y1="83" x2="178.125" y2="103" stroke="black" stroke-width="0.25"/>
<line x1="78.125" y1="66" x2="78.125" y2="83" stroke="black" stroke-width="0.25"/>
<line x1="64.7883" y1="66" x2="64.7883" y2="83" stroke="black" stroke-width="0.25"/>
<line x1="71.4517" y1="66" x2="71.4517" y2="83" stroke="black" stroke-width="0.25"/>
<path d="M21 34H58" stroke="black" stroke-width="0.25"/>
<path d="M21 49L58 49" stroke="black" stroke-width="0.25"/>
<path d="M58 66H142" stroke="black" stroke-width="0.25"/>
<path d="M58 83H78" stroke="black" stroke-width="0.25"/>
<path d="M58 49L142 49" stroke="black" stroke-width="0.25" stroke-dasharray="0.5 0.5"/>
<path d="M78 83H142" stroke="black" stroke-width="0.25"/>
<line x1="90.125" y1="83" x2="90.125" y2="93" stroke="black" stroke-width="0.25"/>
<line x1="100.625" y1="83" x2="100.625" y2="93" stroke="black" stroke-width="0.25"/>
<line x1="98" y1="83" x2="98" y2="93" stroke="black" stroke-width="0.25"/>
<line x1="95.37" y1="83" x2="95.37" y2="93" stroke="black" stroke-width="0.25"/>
<line x1="92.74" y1="83" x2="92.74" y2="93" stroke="black" stroke-width="0.25"/>
<line x1="90.125" y1="168" x2="90.125" y2="178" stroke="black" stroke-width="0.25"/>
<line x1="98" y1="168" x2="98" y2="178" stroke="black" stroke-width="0.25"/>
<line x1="95.37" y1="168" x2="95.37" y2="178" stroke="black" stroke-width="0.25"/>
<line x1="92.74" y1="168" x2="92.74" y2="178" stroke="black" stroke-width="0.25"/>
<line x1="112.625" y1="83" x2="112.625" y2="93" stroke="black" stroke-width="0.25"/>
<line x1="115.25" y1="83" x2="115.25" y2="93" stroke="black" stroke-width="0.25"/>
<line x1="117.75" y1="83" x2="117.75" y2="93" stroke="black" stroke-width="0.25"/>
<line x1="120.37" y1="83" x2="120.37" y2="93" stroke="black" stroke-width="0.25"/>
<line x1="123.125" y1="83" x2="123.125" y2="93" stroke="black" stroke-width="0.25"/>
<path d="M90 93H123.25" stroke="black" stroke-width="0.25"/>
<path d="M58 103L168.25 103" stroke="black" stroke-width="0.25"/>
<path d="M21 103H48" stroke="black" stroke-width="0.25"/>
<path d="M21 83H48" stroke="black" stroke-width="0.25"/>
<path d="M21 93H48" stroke="black" stroke-width="0.25"/>
<path d="M21 66H48" stroke="black" stroke-width="0.25"/>
<path d="M142 108L162 108" stroke="black" stroke-width="0.25"/>
<path d="M152 66L178 66" stroke="black" stroke-width="0.25"/>
<path d="M152 58L178 58" stroke="black" stroke-width="0.25"/>
<path d="M152 50L178 50" stroke="black" stroke-width="0.25"/>
<path d="M142 34L178 34" stroke="black" stroke-width="0.25"/>
<path d="M142 19L178 19" stroke="black" stroke-width="0.25"/>
<path d="M152 83L178 83" stroke="black" stroke-width="0.25"/>
<path d="M162 108L168 108" stroke="black" stroke-width="0.25"/>
<path d="M142 113L168 113" stroke="black" stroke-width="0.25"/>
<path d="M142 123L168 123" stroke="black" stroke-width="0.25"/>
<path d="M142 138L168 138" stroke="black" stroke-width="0.25"/>
<path d="M21 138L48 138" stroke="black" stroke-width="0.25"/>
<path d="M21 153L48 153" stroke="black" stroke-width="0.25"/>
<path d="M21 168L48 168" stroke="black" stroke-width="0.25"/>
<path d="M21 178L48 178" stroke="black" stroke-width="0.25"/>
<path d="M21 188L48 188" stroke="black" stroke-width="0.25"/>
<path d="M21 193L48 193" stroke="black" stroke-width="0.25"/>
<path d="M21 198L48 198" stroke="black" stroke-width="0.25"/>
<path d="M21 208L48 208" stroke="black" stroke-width="0.25"/>
<path d="M21 224L48 224" stroke="black" stroke-width="0.25"/>
<path d="M58 188H168.25" stroke="black" stroke-width="0.25"/>
<path d="M142 153L168 153" stroke="black" stroke-width="0.25"/>
<path d="M142 193L168.25 193" stroke="black" stroke-width="0.25"/>
<path d="M142 198L168.25 198" stroke="black" stroke-width="0.25"/>
<path d="M142 208L168.25 208" stroke="black" stroke-width="0.25"/>
<path d="M142 224L168.25 224" stroke="black" stroke-width="0.25"/>
<path d="M142 240H178" stroke="black" stroke-width="0.25"/>
<path d="M142 256H178.25" stroke="black" stroke-width="0.25"/>
<path d="M58 168H168.25" stroke="black" stroke-width="0.25"/>
<path d="M90 178H123" stroke="black" stroke-width="0.25"/>
<path d="M58 123L142 123" stroke="black" stroke-width="0.25"/>
<path d="M21 123L48 123" stroke="black" stroke-width="0.25"/>
<path d="M21 108H48" stroke="black" stroke-width="0.25"/>
<path d="M21 113H48" stroke="black" stroke-width="0.25"/>
<path d="M21 240H58" stroke="black" stroke-width="0.25"/>
<path d="M21.25 256H58.25" stroke="black" stroke-width="0.25"/>
<line x1="142.125" y1="225" x2="142.125" y2="242" stroke="black" stroke-width="0.25"/>
<line x1="142.125" y1="242" x2="142.125" y2="256" stroke="black" stroke-width="0.25"/>
<line x1="178.125" y1="188" x2="178.125" y2="256" stroke="black" stroke-width="0.25"/>
<line x1="142.125" y1="208" x2="142.125" y2="225" stroke="black" stroke-width="0.25"/>
</svg>
