<svg width="210" height="297" viewBox="0 0 210 297" fill="none" xmlns="http://www.w3.org/2000/svg">
<rect width="210" height="297" fill="white"/>
<path d="M28 64H128" stroke="black" stroke-width="0.5"/>
<path d="M128 64L188 64" stroke="black" stroke-width="0.5"/>
<path d="M28 104H102" stroke="black" stroke-width="0.5"/>
<path d="M28 164H58" stroke="black" stroke-width="0.5"/>
<path d="M28 195H39" stroke="black" stroke-width="0.5"/>
<path d="M50 195H60" stroke="black" stroke-width="0.5"/>
<path d="M60 195H73" stroke="black" stroke-width="0.5"/>
<path d="M63 183H73" stroke="black" stroke-width="0.5"/>
<path d="M65 164H95" stroke="black" stroke-width="0.5"/>
<path d="M103 164H113" stroke="black" stroke-width="0.5"/>
<path d="M121 164H128.125" stroke="black" stroke-width="0.5"/>
<path d="M128 189H133" stroke="black" stroke-width="0.5"/>
<path d="M141 189H143" stroke="black" stroke-width="0.5"/>
<path d="M128 149H166" stroke="black" stroke-width="0.5"/>
<path d="M166 149H172.125" stroke="black" stroke-width="0.5"/>
<path d="M163 201H188" stroke="black" stroke-width="0.5"/>
<path d="M108 201H128" stroke="black" stroke-width="0.5"/>
<path d="M108 189H128" stroke="black" stroke-width="0.5"/>
<path d="M143 189H163" stroke="black" stroke-width="0.5"/>
<path d="M143 174H163" stroke="black" stroke-width="0.5"/>
<path d="M182 149H188" stroke="black" stroke-width="0.5"/>
<path d="M114 104H128" stroke="black" stroke-width="0.5"/>
<path d="M28 234L188 234" stroke="black" stroke-width="0.5"/>
<path d="M28 164L28 104" stroke="black" stroke-width="0.5"/>
<path d="M28 234V212" stroke="black" stroke-width="0.5"/>
<path d="M28 212L28 164" stroke="black" stroke-width="0.5"/>
<path d="M28 104L28 64" stroke="black" stroke-width="0.5"/>
<path d="M188 234V64" stroke="black" stroke-width="0.5"/>
<path d="M128 149V64" stroke="black" stroke-width="0.5"/>
<path d="M128 156V149" stroke="black" stroke-width="0.5"/>
<path d="M128 164V162" stroke="black" stroke-width="0.5"/>
<path d="M163 159V149" stroke="black" stroke-width="0.5"/>
<path d="M163 174V168" stroke="black" stroke-width="0.5"/>
<path d="M148 174V149" stroke="black" stroke-width="0.5"/>
<path d="M143 189V174" stroke="black" stroke-width="0.5"/>
<path d="M163 189V174" stroke="black" stroke-width="0.5"/>
<path d="M143 189V174" stroke="black" stroke-width="0.5"/>
<path d="M128 189V164" stroke="black" stroke-width="0.5"/>
<path d="M108 189V164" stroke="black" stroke-width="0.5"/>
<path d="M108 201V189" stroke="black" stroke-width="0.5"/>
<path d="M108 221V201" stroke="black" stroke-width="0.5"/>
<path d="M108 234V230" stroke="black" stroke-width="0.5"/>
<path d="M131 232V212" stroke="black" stroke-width="0.5"/>
<path d="M131 222H169" stroke="black" stroke-width="0.5"/>
<path d="M135.222 232V212" stroke="black" stroke-width="0.5"/>
<path d="M139.442 232V212" stroke="black" stroke-width="0.5"/>
<path d="M143.662 232V212" stroke="black" stroke-width="0.5"/>
<path d="M147.882 232V212" stroke="black" stroke-width="0.5"/>
<path d="M152.102 232V212" stroke="black" stroke-width="0.5"/>
<path d="M156.322 232V212" stroke="black" stroke-width="0.5"/>
<path d="M160.542 232V212" stroke="black" stroke-width="0.5"/>
<path d="M164.762 232V212" stroke="black" stroke-width="0.5"/>
<path d="M131 232H169" stroke="black" stroke-width="0.5"/>
<path d="M131 212H169" stroke="black" stroke-width="0.5"/>
<path d="M163 189L143 174" stroke="black" stroke-width="0.125"/>
<path d="M163 174L143 189" stroke="black" stroke-width="0.125"/>
<path d="M163 191V189" stroke="black" stroke-width="0.5"/>
<path d="M128 201V198" stroke="black" stroke-width="0.5"/>
<path d="M128 191V189" stroke="black" stroke-width="0.5"/>
<path d="M73 234V228" stroke="black" stroke-width="0.5"/>
<path d="M55 234V231" stroke="black" stroke-width="0.5"/>
<path d="M55 234V230" stroke="black" stroke-width="0.5"/>
<path d="M55 222V212" stroke="black" stroke-width="0.5"/>
<path d="M55 219H43" stroke="black" stroke-width="0.5"/>
<path d="M73 220V212" stroke="black" stroke-width="0.5"/>
<path d="M73 174V164" stroke="black" stroke-width="0.5"/>
<path d="M73 183V181" stroke="black" stroke-width="0.5"/>
<path d="M73 195V183" stroke="black" stroke-width="0.5"/>
<path d="M60 212V195" stroke="black" stroke-width="0.5"/>
<path d="M73 212V195" stroke="black" stroke-width="0.5"/>
<path d="M62 212H60" stroke="black" stroke-width="0.5"/>
<path d="M60 212H28" stroke="black" stroke-width="0.5"/>
<path d="M163 201V198" stroke="black" stroke-width="0.5"/>
<path d="M188 201.5V149.5" stroke="black" stroke-width="0.5"/>
<path d="M188 234V201.5" stroke="black" stroke-width="0.5"/>
<path d="M73 212H70" stroke="black" stroke-width="0.5"/>
<path d="M169 232V212" stroke="black" stroke-width="0.5"/>
<path d="M157.823 216.823C157.726 216.921 157.726 217.079 157.823 217.177L159.414 218.768C159.512 218.865 159.67 218.865 159.768 218.768C159.865 218.67 159.865 218.512 159.768 218.414L158.354 217L159.768 215.586C159.865 215.488 159.865 215.33 159.768 215.232C159.67 215.135 159.512 215.135 159.414 215.232L157.823 216.823ZM169 216.75H158V217.25H169V216.75Z" fill="black"/>
</svg>
