<svg width="210" height="297" viewBox="0 0 210 297" fill="none" xmlns="http://www.w3.org/2000/svg">
<rect width="210" height="297" transform="matrix(-1 0 0 1 210 0)" fill="white"/>
<path d="M85 64L25 64" stroke="black" stroke-width="0.5"/>
<path d="M185 64L85 64" stroke="black" stroke-width="0.5"/>
<path d="M185 104H111" stroke="black" stroke-width="0.5"/>
<path d="M185.125 164H155.125" stroke="black" stroke-width="0.5"/>
<path d="M185 195H174" stroke="black" stroke-width="0.5"/>
<path d="M163 195H153" stroke="black" stroke-width="0.5"/>
<path d="M153 195H140" stroke="black" stroke-width="0.5"/>
<path d="M150 183H140" stroke="black" stroke-width="0.5"/>
<path d="M148.125 164H118.125" stroke="black" stroke-width="0.5"/>
<path d="M110 164H100" stroke="black" stroke-width="0.5"/>
<path d="M85 189H80" stroke="black" stroke-width="0.5"/>
<path d="M72 189H70" stroke="black" stroke-width="0.5"/>
<path d="M70 149H65" stroke="black" stroke-width="0.5"/>
<path d="M85 149H79" stroke="black" stroke-width="0.5"/>
<path d="M50 149H25" stroke="black" stroke-width="0.5"/>
<path d="M105 189H85" stroke="black" stroke-width="0.5"/>
<path d="M70 189H50" stroke="black" stroke-width="0.5"/>
<path d="M70.125 174H50.125" stroke="black" stroke-width="0.5"/>
<path d="M99 104H85" stroke="black" stroke-width="0.5"/>
<path d="M140 234H25" stroke="black" stroke-width="0.5"/>
<path d="M185 234H140" stroke="black" stroke-width="0.5"/>
<path d="M185 164V104" stroke="black" stroke-width="0.5"/>
<path d="M185 234V212" stroke="black" stroke-width="0.5"/>
<path d="M185 195V164" stroke="black" stroke-width="0.5"/>
<path d="M185 104V64" stroke="black" stroke-width="0.5"/>
<path d="M25 234L25 64" stroke="black" stroke-width="0.5"/>
<path d="M85 149V64" stroke="black" stroke-width="0.5"/>
<path d="M50 155.001V149" stroke="black" stroke-width="0.5"/>
<path d="M52 149H50" stroke="black" stroke-width="0.5"/>
<path d="M65 149H61" stroke="black" stroke-width="0.5"/>
<path d="M50 174V161" stroke="black" stroke-width="0.5"/>
<path d="M65 174V149" stroke="black" stroke-width="0.5"/>
<path d="M50 189V174" stroke="black" stroke-width="0.5"/>
<path d="M70 189V174" stroke="black" stroke-width="0.5"/>
<path d="M85 189V158" stroke="black" stroke-width="0.5"/>
<path d="M85 152V149" stroke="black" stroke-width="0.5"/>
<path d="M105 189V164" stroke="black" stroke-width="0.5"/>
<path d="M105 234V218" stroke="black" stroke-width="0.5"/>
<path d="M105 218V217" stroke="black" stroke-width="0.5"/>
<path d="M105 209V189" stroke="black" stroke-width="0.5"/>
<path d="M90 231V211" stroke="black" stroke-width="0.5"/>
<path d="M85.75 231V211" stroke="black" stroke-width="0.5"/>
<path d="M81.5 231V211" stroke="black" stroke-width="0.5"/>
<path d="M77.25 231V211" stroke="black" stroke-width="0.5"/>
<path d="M73 231V211" stroke="black" stroke-width="0.5"/>
<path d="M68.75 231V211" stroke="black" stroke-width="0.5"/>
<path d="M64.5 231V211" stroke="black" stroke-width="0.5"/>
<path d="M60.25 231V211" stroke="black" stroke-width="0.5"/>
<path d="M56 231V211" stroke="black" stroke-width="0.5"/>
<path d="M90 221H56" stroke="black" stroke-width="0.5"/>
<path d="M90 231H56" stroke="black" stroke-width="0.5"/>
<path d="M90 211H56" stroke="black" stroke-width="0.5"/>
<path d="M60 209H50" stroke="black" stroke-width="0.5"/>
<path d="M50 209H46" stroke="black" stroke-width="0.5"/>
<path d="M36 209H25" stroke="black" stroke-width="0.5"/>
<path d="M33 203V209" stroke="black" stroke-width="0.5"/>
<path d="M33 189V193" stroke="black" stroke-width="0.5"/>
<path d="M33 189H37" stroke="black" stroke-width="0.5"/>
<path d="M45 189H50" stroke="black" stroke-width="0.5"/>
<path d="M25 189H33" stroke="black" stroke-width="0.5"/>
<path d="M50 189L70 174" stroke="black" stroke-width="0.125"/>
<path d="M50 174L70 189" stroke="black" stroke-width="0.125"/>
<path d="M140 234V228" stroke="black" stroke-width="0.5"/>
<path d="M153 234V230" stroke="black" stroke-width="0.5"/>
<path d="M153 222V212" stroke="black" stroke-width="0.5"/>
<path d="M140 220V212" stroke="black" stroke-width="0.5"/>
<path d="M140 174V164" stroke="black" stroke-width="0.5"/>
<path d="M140 183V181" stroke="black" stroke-width="0.5"/>
<path d="M140 195V183" stroke="black" stroke-width="0.5"/>
<path d="M153 212V195" stroke="black" stroke-width="0.5"/>
<path d="M185 212V195" stroke="black" stroke-width="0.5"/>
<path d="M140 212V195" stroke="black" stroke-width="0.5"/>
<path d="M151 212H153" stroke="black" stroke-width="0.5"/>
<path d="M153 212H185" stroke="black" stroke-width="0.5"/>
<path d="M50 234V209" stroke="black" stroke-width="0.5"/>
<path d="M140 212H143" stroke="black" stroke-width="0.5"/>
<path d="M67.1768 216.177C67.2744 216.079 67.2744 215.921 67.1768 215.823L65.5858 214.232C65.4882 214.135 65.3299 214.135 65.2322 214.232C65.1346 214.33 65.1346 214.488 65.2322 214.586L66.6464 216L65.2322 217.414C65.1346 217.512 65.1346 217.67 65.2322 217.768C65.3299 217.865 65.4882 217.865 65.5858 217.768L67.1768 216.177ZM56 216.25H67V215.75H56V216.25Z" fill="black"/>
</svg>
