<svg width="210" height="297" viewBox="0 0 210 297" fill="none" xmlns="http://www.w3.org/2000/svg">
<rect width="210" height="297" fill="white"/>
<line x1="129.25" y1="167.4" x2="129.25" y2="199.4" stroke="black" stroke-width="0.5"/>
<line x1="113.25" y1="167.4" x2="113.25" y2="199.4" stroke="black" stroke-width="0.5"/>
<line x1="58.85" y1="167.4" x2="58.85" y2="199.4" stroke="black" stroke-width="0.5"/>
<line x1="81.25" y1="97" x2="81.25" y2="129" stroke="black" stroke-width="0.5"/>
<line x1="97.25" y1="97" x2="97.25" y2="129" stroke="black" stroke-width="0.5"/>
<line x1="168.45" y1="97" x2="168.45" y2="129" stroke="black" stroke-width="0.5"/>
<path d="M17 129H81" stroke="black" stroke-width="0.5"/>
<path d="M81 129H97" stroke="black" stroke-width="0.5"/>
<path d="M97 129H161" stroke="black" stroke-width="0.5"/>
<path d="M193 129H161" stroke="black" stroke-width="0.5"/>
<path d="M193 167.4H129" stroke="black" stroke-width="0.5"/>
<path d="M113 167.4H129" stroke="black" stroke-width="0.5"/>
<path d="M113 167.4H58.6" stroke="black" stroke-width="0.5"/>
<path d="M17 167.4H58.6" stroke="black" stroke-width="0.5"/>
<path d="M193 116.2H168.2" stroke="black" stroke-width="0.5"/>
<line x1="77.074" y1="129" x2="77.074" y2="145" stroke="black" stroke-width="0.5"/>
<line x1="93.874" y1="129" x2="93.874" y2="145" stroke="black" stroke-width="0.5"/>
<line x1="89.674" y1="129" x2="89.674" y2="145" stroke="black" stroke-width="0.5"/>
<line x1="85.466" y1="129" x2="85.466" y2="145" stroke="black" stroke-width="0.5"/>
<line x1="81.258" y1="129" x2="81.258" y2="145" stroke="black" stroke-width="0.5"/>
<line x1="113.074" y1="129" x2="113.074" y2="145" stroke="black" stroke-width="0.5"/>
<line x1="117.274" y1="129" x2="117.274" y2="145" stroke="black" stroke-width="0.5"/>
<line x1="121.274" y1="129" x2="121.274" y2="145" stroke="black" stroke-width="0.5"/>
<path d="M17.125 97L17.125 199.5" stroke="black" stroke-width="0.5"/>
<line x1="125.466" y1="129" x2="125.466" y2="145" stroke="black" stroke-width="0.5"/>
<line x1="129.874" y1="129" x2="129.874" y2="145" stroke="black" stroke-width="0.5"/>
<path d="M76.824 145H130.125" stroke="black" stroke-width="0.5"/>
<path d="M17 97H193.5" stroke="black" stroke-width="0.5"/>
<line x1="193.25" y1="97" x2="193.25" y2="199.4" stroke="black" stroke-width="0.5"/>
<path d="M17 199.4H193.5" stroke="black" stroke-width="0.5"/>
<line x1="161.25" y1="129" x2="161.25" y2="167.4" stroke="black" stroke-width="0.5"/>
</svg>
